<svg width="390" height="179" xmlns="http://www.w3.org/2000/svg" xmlns:xlink="http://www.w3.org/1999/xlink" xml:space="preserve" overflow="hidden"><g transform="translate(-2415 -421)"><g><path d="M2614.8 490.479C2623.42 490.479 2629.36 494.475 2632.83 500.041 2636.76 494.617 2642.92 490.479 2649.98 490.479 2665.77 490.479 2672.5 503.752 2672.5 516.168 2672.5 534.77 2672.5 553.371 2672.5 571.972 2668.31 571.972 2664.13 571.972 2659.95 571.972 2659.95 553.847 2659.95 535.721 2659.95 517.596 2659.95 510.031 2655.69 504.037 2648.74 504.037 2643.37 504.037 2638.55 508.604 2636.98 515.597 2636.98 534.389 2636.98 553.181 2636.98 571.972 2632.83 571.972 2628.69 571.972 2624.54 571.972 2624.54 553.847 2624.54 535.721 2624.54 517.596 2624.54 510.031 2620.51 504.037 2613.56 504.037 2607.96 504.037 2603.26 509.032 2602.02 516.454 2602.02 534.96 2602.02 553.466 2602.02 571.972 2597.84 571.972 2593.66 571.972 2589.48 571.972 2589.48 545.569 2589.48 519.165 2589.48 492.762 2593.66 492.762 2597.84 492.762 2602.02 492.762 2602.02 493.856 2602.02 494.95 2602.02 496.045 2605.5 492.762 2609.87 490.479 2614.8 490.479ZM2531.06 449.946C2556.05 449.946 2562.32 467.643 2562.32 480.345 2562.32 491.335 2557.73 501.896 2550.22 506.035 2561.2 510.317 2566.8 522.448 2566.8 535.293 2566.8 554.418 2555.15 574.541 2528.82 574.541 2520.19 574.541 2511.12 571.972 2503.72 566.121 2503.72 559.793 2503.72 553.466 2503.72 547.139 2512.8 555.417 2521.99 558.556 2529.94 558.556 2544.28 558.556 2552.91 547.995 2552.91 534.579 2552.91 523.875 2546.52 513.885 2533.3 513.885 2533 513.885 2532.7 513.885 2532.41 513.885 2531.17 513.885 2526.58 514.17 2524.68 514.456 2524.68 509.318 2524.68 504.18 2524.68 499.042 2527.59 499.327 2530.95 499.327 2532.07 499.327 2542.83 499.042 2548.99 489.622 2548.99 480.916 2548.99 473.352 2544.39 465.074 2530.73 465.074 2524.23 465.074 2516.27 467.358 2507.87 473.923 2507.87 467.976 2507.87 462.03 2507.87 456.083 2515.71 451.658 2523.89 449.946 2531.06 449.946Z" fill="#FFFFFF" fill-rule="evenodd" fill-opacity="1"/><text fill="#000000" fill-opacity="0" font-family="Arial,Arial_MSFontService,sans-serif" font-size="124.595" direction="ltr" writing-mode="lr-tb" x="2503.72" y="558.967">3m</text></g></g></svg>