<svg width="600" height="52" viewBox="0 0 600 52" fill="none" xmlns="http://www.w3.org/2000/svg">
<mask id="path-1-inside-1_10_201" fill="white">
<path d="M0 0H600V52H0V0Z"/>
</mask>
<path d="M0 0H600V52H0V0Z" fill="white"/>
<path d="M600 52V51H0V52V53H600V52Z" fill="#C8C8C8" mask="url(#path-1-inside-1_10_201)"/>
<rect x="306" y="6" width="180" height="40" fill="#FEDC00"/>
<rect x="492" y="6" width="103" height="40" fill="#DE080A"/>
<path d="M529.928 43.312L528.632 40.468H513.44V32.008H530.18V39.388C533.6 39.352 534.032 39.028 534.032 37.336V29.884H509.732V43.312H505.988V26.68H537.776V37.408C537.776 42.808 536.408 43.06 529.928 43.312ZM533.636 24.988H510.056V16.816H533.636V24.988ZM538.028 15.16H505.844V11.74H519.776V9.292H523.844V11.74H538.028V15.16ZM529.928 22.036V19.732H513.764V22.036H529.928ZM526.508 37.66V34.744H517.076V37.66H526.508ZM563.3 29.848L566.144 34.024C564.236 37.948 561.86 40.972 558.44 40.972C550.448 40.972 550.124 26.716 550.124 20.02C550.124 17.824 550.196 15.628 550.34 13.468L554.768 13.612C554.408 16.132 554.228 19.12 554.228 22C554.228 24.628 554.48 36.4 558.656 36.4C560.384 36.4 561.392 34.456 563.3 29.848ZM581.192 35.5L576.98 37.228C576.944 30.712 574.496 20.524 569.42 15.196L573.056 13.612C577.916 18.4 581.192 28.768 581.192 35.5Z" fill="white"/>
</svg>
