<svg width="600" height="52" viewBox="0 0 600 52" fill="none" xmlns="http://www.w3.org/2000/svg">
<rect width="600" height="52" fill="#C91EFB"/>
<path d="M51 40.56L48.32 44.6C40.68 40.48 35.52 34.72 32.28 26.72C29.48 34.92 23.48 41.48 16 44.72L13 40.64C22.72 37.08 28.2 29.4 29.56 21.16H14.08V16.84H29.92V6.88H34.2V16.84H49.92V21.16H34.64C36.92 29.84 43.32 37 51 40.56ZM94.56 39.32H82.44V44.72H78.24V39.32H67V35.56H78.24V32.76H68.36V29.24H78.24V26.52H69.36V22.92H78.24V20.04H67.36V16.28H78.24V13.48H69.52V9.8H78.24V6.88H82.44V9.8L92.36 9.76V16.28H94.88V20.04H92.36V26.52H82.44V29.24H93.52V32.76H82.44V35.56H94.56V39.32ZM60.84 43.28L57.2 40.76C59.44 37.56 62.08 31.4 63.28 27.32L66.76 29.6C65.68 33.84 63.36 39.76 60.84 43.28ZM67.92 12.2L65.24 15.72C63.64 14.32 60.48 11.84 58.36 10.52L61.04 7.04C63.16 8.36 66.44 10.8 67.92 12.2ZM66.4 21.08L64 24.92C62.16 23.36 58.92 21.08 57.2 20.04L59.6 16.4C61.6 17.44 64.52 19.52 66.4 21.08ZM88.44 22.92V20.04H82.44V22.92H88.44ZM88.44 16.28V13.48H82.44V16.28H88.44ZM138.92 40.52L137.04 44.48C133.56 43.28 130.44 41.6 127.8 39.52C125.04 41.72 121.6 43.6 117.8 44.68L115.92 40.72C119.08 40 122.2 38.72 124.84 36.88C122.12 34.04 120.08 30.64 118.84 26.68H117.4C117.08 33.4 115.84 39.96 112.76 44.6L109.76 40.96C112.4 36.6 113.48 30.8 113.48 20.24V11.4H124.12V6.88H128.16V11.4H137.8V20.64H133.8V15.48H128.16V22.76H136.56C136.08 28.44 134.08 33.24 130.8 36.96C133.08 38.4 135.76 39.6 138.92 40.52ZM104.84 43.32L101.2 40.72C103.84 37.32 106.24 31.44 107.56 27.12L111.04 29.44C109.72 34.08 107.6 39.6 104.84 43.32ZM124.12 22.76V15.48H117.48V22.76H124.12ZM132 26.68H122.92C123.92 29.8 125.52 32.4 127.76 34.56C129.8 32.36 131.24 29.68 132 26.68ZM112.2 12.28L109.48 15.84C107.68 14.2 104.68 11.96 102.52 10.56L105.24 7.08C107.2 8.28 110.52 10.76 112.2 12.28ZM110.6 21.04L108.16 24.92C106.24 23.32 103.52 21.32 101.28 20L103.72 16.32C105.84 17.48 109.12 19.84 110.6 21.04ZM177.4 25.04H150.6V22.68H158.88L158.36 21.36H148.72V17.76C148.04 18.52 147.32 19.2 146.6 19.68L144.8 16.48C146.76 15.24 148.44 13.28 149.32 11.72L150.32 11.8V11H145.92V8.12H150.32V6.88H154.28V8.12H158.04V6.88H162.04V8.12H166.44V11H162.04V12.32H158.04V11H154.28V12.2H152.68C152.6 12.44 152.48 12.68 152.32 12.96H164.96V13.84C167.28 12.12 168.96 9.32 169.8 6.92L173.64 7.28C173.44 7.92 173.2 8.52 172.88 9.16H182.36V12.24H180.84C180.04 14.32 178.92 16.08 177.48 17.56C179.16 18.44 181 19.08 182.96 19.44L181.28 23.04C178.88 22.32 176.64 21.16 174.6 19.76C172.48 21.08 169.92 22.04 166.92 22.64L165.28 19.16C167.8 19 170 18.44 171.84 17.56C170.92 16.72 170.04 15.8 169.28 14.88C168.52 15.84 167.68 16.68 166.88 17.36L164.96 14.32C164.96 20.32 164.88 22.24 161.2 22.68L177.4 22.64V25.04ZM178.04 44.68H173.92V43.52H154.04V44.68H149.92V36.84H178.04V44.68ZM182.92 28.92H145.08V26.2H182.92V28.92ZM177.48 32.32H150.44V30.04H177.48V32.32ZM177.48 35.64H150.44V33.44H177.48V35.64ZM173.92 41.08V39.32H154.04V41.08H173.92ZM161.08 15.4H150.72L149.92 16.44H159.16V20.16C161 20.08 161.08 19.68 161.08 15.4ZM177.2 12.24H171.2L171.12 12.36C172.12 13.64 173.28 14.76 174.64 15.76C175.84 14.76 176.72 13.52 177.2 12.24ZM155.72 19.68V18.16H152.16V19.68H155.72ZM227.12 41.08L224.76 44.64C223.2 43.48 221.52 42 220.28 40.48C218.84 42.28 217.12 43.68 215.64 44.72L213.28 41.28V44.68H209.32V8.08H226.08V11.84C226.08 19.44 225.6 20.36 217.96 20.4L216.44 16.6H218.16C221.92 16.6 222 16.44 222 13.56V12.04H213.28V22.48H226.2C226.12 26.84 225 33.4 222.52 37.72C223.92 39.24 225.56 40.24 227.12 41.08ZM200.88 44.68H196.76V37.88H190.24V34H196.76V29.92H189.56V26.08H193.4C192.96 24.48 192.28 22.48 191.8 21.12H189.08V17.28H196.76V13.68H190.4V9.92H196.76V6.88H200.88V9.92H207.24V13.68H200.88V17.28H208.32V21.12H205.76C205.44 22.56 204.88 24.52 204.28 26.08H208.2V29.92H200.88V34H207.56V37.88H200.88V44.68ZM214.48 26.32H213.28V41.12C214.68 40.44 216.44 39.52 218.12 37.72C216.36 34.52 214.96 30.84 214.48 26.32ZM197.08 26.08H200.4C201.08 24.48 201.64 22.52 201.96 21.12H195.68C196.12 22.52 196.68 24.52 197.08 26.08ZM222.28 26.32H218.08C218.36 29.24 219 32.24 220.24 34.96C221.44 32.28 222.16 28.92 222.28 26.32Z" fill="white"/>
<path d="M346.456 34.224L346.424 37.488C341.944 38.416 333.88 39.344 328.44 39.536L327.864 36.112C329.976 36.112 332.728 35.92 335.544 35.664V31.088H329.304V27.888H335.544V24.4C333.048 24.624 330.552 24.816 328.568 24.88L328.024 21.584C328.984 21.584 330.072 21.552 331.16 21.488C332.408 19.472 333.496 17.072 334.136 15.376H328.6V12.208H346.552V15.376H337.752C337.016 17.392 336.056 19.472 335 21.264C337.208 21.104 339.32 20.848 341.048 20.592C340.44 19.472 339.832 18.384 339.288 17.52L342.104 16.112C343.384 18.16 345.432 21.68 346.712 24.208L343.64 25.84C343.32 25.136 342.968 24.336 342.52 23.504C341.432 23.696 340.184 23.856 338.84 24.016V27.888H345.272V31.088H338.84V35.312C341.72 34.992 344.472 34.608 346.456 34.224ZM350.264 40.944L348.952 37.488H350.072C353.464 37.488 353.752 37.36 353.752 35.76V10.704H357.08V35.856C357.08 40.176 356.216 40.944 350.264 40.944ZM350.936 33.232H347.8V12.912H350.936V33.232ZM392.376 33.392H383.736V35.664H380.504V33.392H372.216V30.736H380.504V28.912L373.464 28.944V26.448H380.504V24.784H372.376V22.16H376.728C376.44 21.328 376.056 20.464 375.704 19.696H371.64V17.104H380.504V15.312H373.272V12.624H380.504L380.472 10.736H383.736V12.624H391.16V15.312H383.736V17.104H392.728V19.696H388.664C388.376 20.528 388.024 21.392 387.64 22.16H392.152V24.784H383.736V26.448H391.192V28.912H383.736V30.736H392.376V33.392ZM392.216 39.952H376.696C373.72 39.952 371.096 39.312 369.08 36.848C368.088 38.384 366.552 39.92 365.08 40.944L363.032 38C364.472 37.232 366.04 35.984 367.128 34.48V26H363.448V22.704H370.392V33.776C371.896 36.112 373.72 36.784 376.6 36.784H376.824L393.368 36.592L392.216 39.952ZM370.584 16.784L367.992 18.992C367.064 17.616 364.952 14.96 363.576 13.456L366.232 11.28C367.576 12.784 369.528 15.184 370.584 16.784ZM385.272 19.696H379.064C379.352 20.432 379.704 21.296 379.992 22.16H384.28C384.664 21.36 385.016 20.528 385.272 19.696ZM421.816 34.096L419.288 31.44C421.24 29.968 422.936 28.24 424.024 25.872H415.672V34.448C415.672 39.76 415.256 40.88 406.424 40.88L404.984 37.264H408.792C412.088 37.232 412.248 36.816 412.248 34.832V25.872H398.584V22.608H415.096C411.896 21.264 407.8 19.696 405.016 18.8L407.736 16.432C410.008 17.168 412.152 18 414.296 18.928C416.248 17.808 418.392 16.304 419.672 15.248H402.136V12.016H424.792V14.32C422.872 16.304 419.928 18.576 417.4 20.24L419.8 21.328L418.424 22.608H428.024V25.424C426.68 28.848 424.536 31.824 421.816 34.096ZM462.36 28.304H449.016C450.36 29.328 451.992 30.672 453.24 31.856L451 34.256C449.688 32.912 447.832 31.248 446.136 30.032L448.472 27.888L448.984 28.272V11.76H462.36V28.304ZM442.936 28.496H439.704V19.728C438.712 22.608 437.336 25.136 435.384 27.248L433.496 24.08C435.608 22.512 437.496 20.112 438.68 17.328H434.36V14.192H439.704V10.736H442.936V14.192L447.928 14.16V17.328H443.704C445.016 19.664 446.904 21.264 448.44 22.224L446.776 25.488C445.272 24.08 443.96 22.064 442.936 19.984V28.496ZM452.472 40.08H444.792C442.296 40.08 441.304 39.632 441.304 37.36V29.968H444.632V35.888C444.632 36.688 444.856 36.816 445.624 36.816H452.056C453.464 36.816 453.752 36.688 454.136 33.296L457.496 34.544C456.664 39.632 455.672 40.08 452.472 40.08ZM463.8 36.848L460.792 38.864C459.64 36.016 457.912 33.296 456.312 31.216L459.224 29.488C460.728 31.376 462.68 34.512 463.8 36.848ZM436.248 39.344L433.336 37.104C434.936 35.152 436.184 32.112 436.664 29.808L439.8 31.056C439.288 33.52 437.88 37.072 436.248 39.344ZM459.16 25.456V23.28H452.152V25.456H459.16ZM459.16 20.944V18.928H452.152V20.944H459.16ZM459.16 16.56V14.544H452.152V16.56H459.16Z" fill="white"/>
<path d="M533.136 40.944L531.984 38.416H518.48V30.896H533.36V37.456C536.4 37.424 536.784 37.136 536.784 35.632V29.008H515.184V40.944H511.856V26.16H540.112V35.696C540.112 40.496 538.896 40.72 533.136 40.944ZM536.432 24.656H515.472V17.392H536.432V24.656ZM540.336 15.92H511.728V12.88H524.112V10.704H527.728V12.88H540.336V15.92ZM533.136 22.032V19.984H518.768V22.032H533.136ZM530.096 35.92V33.328H521.712V35.92H530.096ZM571.28 34.704L570.992 38.672C568.016 39.376 564.848 39.632 562.224 39.632C552.24 39.632 549.2 35.504 549.2 32.304C549.2 27.472 555.344 25.68 559.184 25.584C559.696 25.584 560.176 25.552 560.656 25.552C562.96 25.552 565.232 25.712 567.472 26.384C565.712 24.464 563.952 22.416 562.256 20.112C557.904 20.496 553.488 20.72 549.456 20.72H548.464L548.08 17.2C549.136 17.232 550.16 17.232 551.216 17.232C554.288 17.232 557.392 17.104 560.336 16.848C559.44 15.376 558.544 13.808 557.648 12.112L561.168 11.376C562.032 13.104 562.992 14.8 564.016 16.464C567.536 16.048 570.672 15.536 573.04 14.96L573.68 18.48C571.312 18.96 568.656 19.376 565.872 19.696C567.6 22 570.448 25.328 573.776 28.4L570.96 31.152C568.304 29.04 564.304 28.752 560.848 28.752H559.568C555.76 28.784 552.912 30.224 552.912 32.08C552.912 35.536 558.672 36.048 561.712 36.048C564.88 36.048 568.208 35.472 571.28 34.704Z" fill="white"/>
<rect x="302" y="11" width="2" height="30" fill="white"/>
<rect x="488" y="11" width="2" height="30" fill="white"/>
</svg>
