<svg width="2035" height="179" xmlns="http://www.w3.org/2000/svg" xmlns:xlink="http://www.w3.org/1999/xlink" xml:space="preserve" overflow="hidden"><g transform="translate(-1219 -1393)"><g><rect x="1220" y="1394" width="2034" height="175" fill="#FEDC00" fill-opacity="1"/><path d="M1726.72 1507.19C1731.13 1507.19 1735.55 1507.19 1739.97 1507.19 1739.97 1512.14 1739.97 1517.09 1739.97 1522.03 1739.97 1525.16 1741.01 1526.07 1744 1526.07 1753.14 1526.07 1762.28 1526.07 1771.42 1526.07 1776.62 1526.07 1778.05 1525.29 1779.35 1513.83 1783.81 1515.87 1788.27 1517.91 1792.73 1519.95 1789.87 1537.26 1785.32 1538.43 1772.98 1538.43 1761.93 1538.43 1750.89 1538.43 1739.84 1538.43 1730.87 1538.43 1726.72 1536.22 1726.72 1526.98 1726.72 1520.38 1726.72 1513.79 1726.72 1507.19ZM1709.56 1505.5C1713.37 1507.28 1717.19 1509.06 1721 1510.84 1721.04 1510.84 1721.08 1510.84 1721.13 1510.84 1717.62 1520.47 1712.55 1529.45 1705.4 1537.26 1701.46 1534.44 1697.52 1531.62 1693.58 1528.8 1700.2 1522.68 1705.92 1514.48 1709.56 1505.5ZM1723.73 1487.8C1723.73 1489.97 1723.73 1492.14 1723.73 1494.31 1745.52 1494.31 1767.3 1494.31 1789.09 1494.31 1789.09 1492.14 1789.09 1489.97 1789.09 1487.8 1767.3 1487.8 1745.52 1487.8 1723.73 1487.8ZM1284.32 1485.07C1288.09 1487.54 1291.86 1490.01 1295.62 1492.49 1292.12 1506.28 1284.58 1525.55 1276.39 1537 1272.45 1534.27 1268.51 1531.53 1264.57 1528.8 1271.84 1518.39 1280.42 1498.34 1284.32 1485.07ZM1576.3 1484.68C1580.12 1487.32 1583.93 1489.97 1587.74 1492.62 1582.54 1508.89 1572.67 1527.5 1564.48 1537.52 1560.28 1534.7 1556.07 1531.88 1551.87 1529.06 1561.1 1518.65 1571.11 1499.12 1576.3 1484.68ZM1428.75 1484.42C1432.52 1486.93 1436.29 1489.45 1440.06 1491.97 1435.77 1507.06 1428.88 1525.03 1419.92 1537.13 1415.97 1534.31 1412.03 1531.49 1408.09 1528.67 1416.67 1517.61 1424.46 1498.47 1428.75 1484.42ZM1478.65 1482.98C1481.9 1493.14 1487.1 1501.6 1494.38 1508.63 1501.01 1501.47 1505.68 1492.75 1508.15 1482.98 1498.32 1482.98 1488.49 1482.98 1478.65 1482.98ZM1932.49 1481.81C1933.4 1491.32 1935.48 1501.08 1939.5 1509.93 1943.4 1501.21 1945.74 1490.27 1946.13 1481.81 1941.58 1481.81 1937.04 1481.81 1932.49 1481.81ZM1916.89 1481.81C1916.89 1497.87 1916.89 1513.92 1916.89 1529.97 1921.44 1527.76 1927.16 1524.77 1932.62 1518.91 1926.9 1508.5 1922.35 1496.52 1920.79 1481.81 1919.49 1481.81 1918.19 1481.81 1916.89 1481.81ZM1723.73 1472.83C1723.73 1474.91 1723.73 1477 1723.73 1479.08 1745.52 1479.12 1767.3 1479.17 1789.09 1479.21 1789.09 1477.08 1789.09 1474.96 1789.09 1472.83 1767.3 1472.83 1745.52 1472.83 1723.73 1472.83ZM1859.71 1464.89C1861.14 1469.45 1862.96 1475.96 1864.26 1481.03 1867.86 1481.03 1871.45 1481.03 1875.05 1481.03 1877.26 1475.83 1879.08 1469.45 1880.12 1464.89 1873.31 1464.89 1866.51 1464.89 1859.71 1464.89ZM1709.43 1463.33C1740.75 1463.33 1772.07 1463.33 1803.39 1463.33 1803.39 1476.69 1803.39 1490.06 1803.39 1503.42 1801.92 1503.42 1800.44 1503.42 1798.97 1503.42 1805.21 1510.19 1811.58 1518.78 1817.29 1527.5 1813.39 1530.1 1809.5 1532.71 1805.6 1535.31 1800.66 1526.2 1794.81 1517.87 1788.18 1510.19 1791.56 1507.93 1794.94 1505.68 1798.32 1503.42 1784.89 1503.42 1771.46 1503.42 1758.03 1503.42 1763.1 1506.8 1768.56 1510.97 1772.85 1515 1770.03 1517.95 1767.22 1520.91 1764.4 1523.86 1759.07 1518.65 1752.97 1513.44 1747.64 1509.54 1749.89 1507.5 1752.14 1505.46 1754.4 1503.42 1739.41 1503.42 1724.42 1503.42 1709.43 1503.42 1709.43 1490.06 1709.43 1476.69 1709.43 1463.33ZM1346.57 1461.38C1346.57 1464.5 1346.57 1467.63 1346.57 1470.75 1353.06 1470.75 1359.56 1470.75 1366.06 1470.75 1366.06 1467.63 1366.06 1464.5 1366.06 1461.38 1359.56 1461.38 1353.06 1461.38 1346.57 1461.38ZM1559.54 1449.53C1566.56 1453.31 1576.82 1459.82 1584.23 1465.15 1581.5 1469.23 1578.77 1473.31 1576.04 1477.39 1570.46 1472.7 1558.89 1465.02 1551.87 1461.38 1554.43 1457.43 1556.98 1453.48 1559.54 1449.53ZM1272.36 1449.53C1278.86 1452.92 1288.35 1459.69 1294.46 1464.76 1291.86 1468.93 1289.26 1473.09 1286.66 1477.26 1280.68 1472.18 1270.15 1464.76 1264.57 1461.38 1267.16 1457.43 1269.76 1453.48 1272.36 1449.53ZM1416.28 1449.27C1423.16 1453.05 1433.82 1460.73 1438.63 1464.63 1435.99 1468.84 1433.34 1473.05 1430.7 1477.26 1424.46 1472.05 1415.63 1465.54 1408.35 1461.25 1410.99 1457.26 1413.63 1453.26 1416.28 1449.27ZM1460.98 1446.54C1460.98 1454.44 1460.98 1462.33 1460.98 1470.23 1468.17 1470.23 1475.36 1470.23 1482.55 1470.23 1482.55 1462.33 1482.55 1454.44 1482.55 1446.54 1475.36 1446.54 1468.17 1446.54 1460.98 1446.54ZM1346.57 1440.03C1346.57 1443.07 1346.57 1446.11 1346.57 1449.14 1353.06 1449.14 1359.56 1449.14 1366.06 1449.14 1366.06 1446.11 1366.06 1443.07 1366.06 1440.03 1359.56 1440.03 1353.06 1440.03 1346.57 1440.03ZM1738.41 1437.82C1739.45 1440.55 1740.75 1443.81 1742.05 1446.67 1751.75 1446.67 1761.46 1446.67 1771.16 1446.67 1772.46 1443.81 1773.76 1440.55 1774.67 1437.82 1762.58 1437.82 1750.5 1437.82 1738.41 1437.82ZM1904.03 1422.46C1922.18 1422.46 1940.33 1422.46 1958.48 1422.46 1958.48 1426.54 1958.48 1430.62 1958.48 1434.69 1958.48 1459.43 1956.92 1462.42 1932.1 1462.55 1930.45 1458.43 1928.8 1454.31 1927.16 1450.18 1929.02 1450.18 1930.88 1450.18 1932.75 1450.18 1944.96 1450.18 1945.22 1449.66 1945.22 1440.29 1945.22 1438.64 1945.22 1436.99 1945.22 1435.35 1935.78 1435.35 1926.34 1435.35 1916.89 1435.35 1916.89 1446.67 1916.89 1457.99 1916.89 1469.32 1930.88 1469.32 1944.88 1469.32 1958.87 1469.32 1958.61 1483.51 1954.97 1504.85 1946.91 1518.91 1951.46 1523.86 1956.79 1527.11 1961.86 1529.84 1959.3 1533.7 1956.74 1537.57 1954.19 1541.43 1949.12 1537.65 1943.66 1532.84 1939.63 1527.89 1934.96 1533.75 1929.37 1538.3 1924.56 1541.69 1922 1537.96 1919.45 1534.22 1916.89 1530.49 1916.89 1534.18 1916.89 1537.87 1916.89 1541.56 1912.6 1541.56 1908.32 1541.56 1904.03 1541.56 1904.03 1501.86 1904.03 1462.16 1904.03 1422.46ZM1564.35 1419.21C1572.02 1424.02 1583.06 1431.83 1589.04 1436.91 1585.88 1440.64 1582.72 1444.37 1579.55 1448.1 1573.84 1443.29 1561.75 1434.43 1555.51 1430.4 1558.46 1426.67 1561.4 1422.94 1564.35 1419.21ZM1421.21 1419.21C1427.58 1423.11 1438.37 1431.18 1443.83 1436.13 1440.88 1439.99 1437.94 1443.85 1434.99 1447.71 1429.14 1442.37 1419.4 1435.09 1412.38 1430.53 1415.32 1426.76 1418.27 1422.98 1421.21 1419.21ZM1277.04 1419.08C1283.93 1423.37 1294.59 1431.31 1299.39 1435.87 1296.49 1439.68 1293.59 1443.5 1290.69 1447.32 1285.49 1442.76 1275.22 1434.69 1268.33 1430.4 1271.24 1426.62 1274.14 1422.85 1277.04 1419.08ZM1618.67 1418.82C1627.64 1423.5 1640.37 1431.83 1646.61 1436.65 1644.18 1439.08 1641.76 1441.51 1639.33 1443.94 1650.03 1443.89 1660.73 1443.85 1671.43 1443.81 1671.43 1448.28 1671.43 1452.74 1671.43 1457.21 1659.95 1457.21 1648.47 1457.21 1636.99 1457.21 1636.99 1465.54 1636.99 1473.87 1636.99 1482.2 1646.91 1482.2 1656.83 1482.2 1666.75 1482.2 1666.75 1486.67 1666.75 1491.14 1666.75 1495.61 1656.83 1495.61 1646.91 1495.61 1636.99 1495.61 1636.99 1505.37 1636.99 1515.13 1636.99 1524.9 1649.34 1524.9 1661.68 1524.9 1674.03 1524.9 1674.03 1529.37 1674.03 1533.83 1674.03 1538.3 1644.4 1538.26 1614.77 1538.22 1585.14 1538.17 1585.14 1533.75 1585.14 1529.32 1585.14 1524.9 1597.79 1524.9 1610.44 1524.9 1623.09 1524.9 1623.09 1515.13 1623.09 1505.37 1623.09 1495.61 1613.21 1495.61 1603.33 1495.61 1593.46 1495.61 1593.46 1491.14 1593.46 1486.67 1593.46 1482.2 1603.33 1482.2 1613.21 1482.2 1623.09 1482.2 1623.09 1473.87 1623.09 1465.54 1623.09 1457.21 1611.78 1457.21 1600.48 1457.21 1589.17 1457.21 1589.17 1452.79 1589.17 1448.36 1589.17 1443.94 1603.77 1443.94 1618.37 1443.94 1632.96 1443.94 1626.08 1438.6 1616.07 1432.09 1608.53 1428.45 1611.91 1425.24 1615.29 1422.03 1618.67 1418.82ZM1748.55 1418.69C1753.49 1418.69 1758.42 1418.69 1763.36 1418.69 1763.36 1421.42 1763.36 1424.15 1763.36 1426.89 1778.7 1426.89 1794.03 1426.89 1809.37 1426.89 1809.37 1430.53 1809.37 1434.17 1809.37 1437.82 1802.31 1437.82 1795.24 1437.82 1788.18 1437.82 1787.27 1440.55 1786.1 1443.94 1784.93 1446.54 1794.72 1446.54 1804.51 1446.54 1814.3 1446.54 1814.3 1450.18 1814.3 1453.83 1814.3 1457.47 1775.53 1457.47 1736.77 1457.47 1698 1457.47 1698 1453.87 1698 1450.27 1698 1446.67 1708.05 1446.67 1718.09 1446.67 1728.14 1446.67 1726.85 1443.94 1725.55 1440.68 1724.38 1437.82 1717.27 1437.82 1710.17 1437.82 1703.06 1437.82 1703.06 1434.17 1703.06 1430.53 1703.06 1426.89 1718.22 1426.89 1733.39 1426.89 1748.55 1426.89 1748.55 1424.15 1748.55 1421.42 1748.55 1418.69ZM1863.22 1418.55C1867.68 1418.55 1872.14 1418.55 1876.61 1418.55 1876.61 1421.85 1876.61 1425.15 1876.61 1428.45 1883.49 1428.45 1890.38 1428.45 1897.27 1428.45 1897.27 1432.53 1897.27 1436.6 1897.27 1440.68 1890.38 1440.68 1883.49 1440.68 1876.61 1440.68 1876.61 1444.59 1876.61 1448.49 1876.61 1452.4 1884.66 1452.4 1892.72 1452.4 1900.78 1452.4 1900.78 1456.56 1900.78 1460.73 1900.78 1464.89 1898.01 1464.89 1895.23 1464.89 1892.46 1464.89 1891.42 1469.58 1889.6 1475.96 1887.65 1481.03 1891.9 1481.03 1896.14 1481.03 1900.39 1481.03 1900.39 1485.2 1900.39 1489.36 1900.39 1493.53 1892.46 1493.53 1884.53 1493.53 1876.61 1493.53 1876.61 1497.95 1876.61 1502.38 1876.61 1506.8 1883.84 1506.8 1891.07 1506.8 1898.31 1506.8 1898.31 1511.01 1898.31 1515.22 1898.31 1519.43 1891.07 1519.43 1883.84 1519.43 1876.61 1519.43 1876.61 1526.81 1876.61 1534.18 1876.61 1541.56 1872.14 1541.56 1867.68 1541.56 1863.22 1541.56 1863.22 1534.18 1863.22 1526.81 1863.22 1519.43 1856.16 1519.43 1849.1 1519.43 1842.04 1519.43 1842.04 1515.22 1842.04 1511.01 1842.04 1506.8 1849.1 1506.8 1856.16 1506.8 1863.22 1506.8 1863.22 1502.38 1863.22 1497.95 1863.22 1493.53 1855.42 1493.53 1847.63 1493.53 1839.83 1493.53 1839.83 1489.36 1839.83 1485.2 1839.83 1481.03 1843.99 1481.03 1848.15 1481.03 1852.31 1481.03 1850.88 1475.83 1848.67 1469.32 1847.11 1464.89 1844.16 1464.89 1841.22 1464.89 1838.27 1464.89 1838.27 1460.73 1838.27 1456.56 1838.27 1452.4 1846.59 1452.4 1854.9 1452.4 1863.22 1452.4 1863.22 1448.49 1863.22 1444.59 1863.22 1440.68 1856.33 1440.68 1849.45 1440.68 1842.56 1440.68 1842.56 1436.6 1842.56 1432.53 1842.56 1428.45 1849.45 1428.45 1856.33 1428.45 1863.22 1428.45 1863.22 1425.15 1863.22 1421.85 1863.22 1418.55ZM1482.55 1418.55C1486.93 1418.55 1491.3 1418.55 1495.68 1418.55 1495.68 1423.46 1495.68 1428.36 1495.68 1433.26 1506.12 1433.26 1516.56 1433.26 1527 1433.26 1527 1443.29 1527 1453.31 1527 1463.33 1522.67 1463.33 1518.33 1463.33 1514 1463.33 1514 1457.73 1514 1452.14 1514 1446.54 1507.89 1446.54 1501.79 1446.54 1495.68 1446.54 1495.68 1454.44 1495.68 1462.33 1495.68 1470.23 1504.78 1470.23 1513.87 1470.23 1522.97 1470.23 1521.41 1488.71 1514.91 1504.33 1504.26 1516.44 1511.66 1521.12 1520.37 1525.03 1530.64 1528.02 1528.6 1532.32 1526.56 1536.61 1524.53 1540.91 1513.22 1537 1503.09 1531.53 1494.51 1524.77 1485.54 1531.93 1474.37 1538.04 1462.02 1541.56 1459.98 1537.26 1457.95 1532.97 1455.91 1528.67 1466.18 1526.33 1476.32 1522.16 1484.89 1516.18 1476.06 1506.93 1469.43 1495.87 1465.4 1482.98 1463.84 1482.98 1462.28 1482.98 1460.72 1482.98 1459.68 1504.85 1455.65 1526.2 1445.65 1541.3 1442.4 1537.35 1439.15 1533.4 1435.9 1529.45 1444.48 1515.26 1447.99 1496.39 1447.99 1462.03 1447.99 1452.44 1447.99 1442.85 1447.99 1433.26 1459.51 1433.26 1471.03 1433.26 1482.55 1433.26 1482.55 1428.36 1482.55 1423.46 1482.55 1418.55ZM1332.92 1418.55C1337.47 1418.55 1342.02 1418.55 1346.57 1418.55 1346.57 1421.72 1346.57 1424.89 1346.57 1428.06 1357.31 1428.01 1368.05 1427.97 1378.8 1427.93 1378.8 1435 1378.8 1442.07 1378.8 1449.14 1381.52 1449.14 1384.25 1449.14 1386.98 1449.14 1386.98 1453.22 1386.98 1457.3 1386.98 1461.38 1384.25 1461.38 1381.52 1461.38 1378.8 1461.38 1378.8 1468.41 1378.8 1475.44 1378.8 1482.46 1368.05 1482.46 1357.31 1482.46 1346.57 1482.46 1346.57 1485.41 1346.57 1488.36 1346.57 1491.32 1358.57 1491.32 1370.57 1491.32 1382.56 1491.32 1382.56 1495.13 1382.56 1498.95 1382.56 1502.77 1370.57 1502.77 1358.57 1502.77 1346.57 1502.77 1346.57 1505.81 1346.57 1508.84 1346.57 1511.88 1359.69 1511.88 1372.82 1511.88 1385.94 1511.88 1385.94 1515.96 1385.94 1520.04 1385.94 1524.12 1372.82 1524.12 1359.69 1524.12 1346.57 1524.12 1346.57 1529.97 1346.57 1535.83 1346.57 1541.69 1342.02 1541.69 1337.47 1541.69 1332.92 1541.69 1332.92 1535.83 1332.92 1529.97 1332.92 1524.12 1320.75 1524.12 1308.58 1524.12 1296.4 1524.12 1296.4 1520.04 1296.4 1515.96 1296.4 1511.88 1308.58 1511.88 1320.75 1511.88 1332.92 1511.88 1332.92 1508.84 1332.92 1505.81 1332.92 1502.77 1322.22 1502.77 1311.52 1502.77 1300.82 1502.77 1300.82 1498.95 1300.82 1495.13 1300.82 1491.32 1311.52 1491.32 1322.22 1491.32 1332.92 1491.32 1332.92 1488.36 1332.92 1485.41 1332.92 1482.46 1323.31 1482.46 1313.69 1482.46 1304.07 1482.46 1304.07 1478.56 1304.07 1474.65 1304.07 1470.75 1313.69 1470.75 1323.31 1470.75 1332.92 1470.75 1332.92 1467.63 1332.92 1464.5 1332.92 1461.38 1321.14 1461.38 1309.36 1461.38 1297.57 1461.38 1297.57 1457.3 1297.57 1453.22 1297.57 1449.14 1309.36 1449.14 1321.14 1449.14 1332.92 1449.14 1332.92 1446.11 1332.92 1443.07 1332.92 1440.03 1323.48 1440.03 1314.04 1440.03 1304.59 1440.03 1304.59 1436.04 1304.59 1432.05 1304.59 1428.06 1314.04 1428.06 1323.48 1428.06 1332.92 1428.06 1332.92 1424.89 1332.92 1421.72 1332.92 1418.55Z" fill="#0D0D0D" fill-rule="evenodd" fill-opacity="1"/><text fill="#000000" fill-opacity="0" font-family="Arial,Arial_MSFontService,sans-serif" font-size="123.133" direction="ltr" writing-mode="lr-tb" x="1264.57" y="1526.3">津波注意報</text><path d="M2252.5 1434.5 2252.5 1527.38" stroke="#7F7F7F" stroke-width="4.58333" stroke-linecap="butt" stroke-linejoin="miter" stroke-miterlimit="8" stroke-opacity="1" fill="none" fill-rule="evenodd"/><path d="M2861.5 1434.5 2861.5 1527.38" stroke="#7F7F7F" stroke-width="4.58333" stroke-linecap="butt" stroke-linejoin="miter" stroke-miterlimit="8" stroke-opacity="1" fill="none" fill-rule="evenodd"/><path d="M2685.2 1493.86C2688.29 1493.86 2691.39 1493.86 2694.48 1493.86 2694.48 1500.49 2694.48 1507.12 2694.48 1513.75 2694.48 1516.43 2695.11 1516.86 2697.25 1516.86 2703.23 1516.86 2709.21 1516.86 2715.19 1516.86 2719.12 1516.86 2719.92 1516.43 2720.99 1505.04 2724.12 1506.44 2727.24 1507.83 2730.36 1509.23 2728.04 1526.32 2725.28 1527.83 2716.35 1527.83 2709.21 1527.83 2702.07 1527.83 2694.93 1527.83 2687.97 1527.83 2685.2 1526.32 2685.2 1518.69 2685.2 1510.41 2685.2 1502.14 2685.2 1493.86ZM2672.26 1493.32C2675.17 1494.72 2678.09 1496.12 2681 1497.51 2679.58 1505.79 2675.65 1517.72 2671.1 1525.36 2668.39 1522.85 2665.68 1520.34 2662.97 1517.83 2667.44 1511.27 2670.92 1501.06 2672.26 1493.32ZM2735.18 1492.25C2739.38 1498.59 2744.82 1509.12 2747.95 1516.97 2745.15 1519.23 2742.35 1521.49 2739.56 1523.74 2736.34 1514.18 2731.52 1505.04 2727.06 1498.05 2729.77 1496.12 2732.48 1494.18 2735.18 1492.25ZM2715.46 1471.39C2715.46 1473.83 2715.46 1476.26 2715.46 1478.7 2721.97 1478.7 2728.49 1478.7 2735.01 1478.7 2735.01 1476.26 2735.01 1473.83 2735.01 1471.39 2728.49 1471.39 2721.97 1471.39 2715.46 1471.39ZM2467.24 1469.46C2473.7 1469.46 2480.15 1469.46 2486.61 1469.46 2486.61 1481.85 2486.61 1494.25 2486.61 1506.65 2490.81 1514.5 2495.89 1516.76 2503.93 1516.76 2504.14 1516.76 2504.34 1516.76 2504.55 1516.76 2519.93 1516.54 2535.32 1516.33 2550.7 1516.11 2549.63 1519.87 2548.56 1523.64 2547.49 1527.4 2533.06 1527.4 2518.63 1527.4 2504.2 1527.4 2495.89 1527.4 2488.57 1525.25 2482.95 1516.97 2480.18 1522.13 2475.9 1527.29 2471.79 1530.73 2469.89 1527.43 2467.99 1524.14 2466.08 1520.84 2470.1 1518.26 2474.47 1514.07 2477.51 1509.02 2477.51 1499.52 2477.51 1490.02 2477.51 1480.53 2474.08 1480.53 2470.66 1480.53 2467.24 1480.53 2467.24 1476.84 2467.24 1473.15 2467.24 1469.46ZM2510.8 1459.35C2511.6 1461.82 2512.59 1464.73 2513.39 1467.63 2517.38 1467.63 2521.36 1467.63 2525.35 1467.63 2526.42 1464.94 2527.4 1462.15 2528.12 1459.35 2522.34 1459.35 2516.57 1459.35 2510.8 1459.35ZM2715.46 1456.77C2715.46 1459.03 2715.46 1461.29 2715.46 1463.54 2721.97 1463.54 2728.49 1463.54 2735.01 1463.54 2735.01 1461.29 2735.01 1459.03 2735.01 1456.77 2728.49 1456.77 2721.97 1456.77 2715.46 1456.77ZM2715.46 1442.04C2715.46 1444.3 2715.46 1446.56 2715.46 1448.82 2721.97 1448.82 2728.49 1448.82 2735.01 1448.82 2735.01 1446.56 2735.01 1444.3 2735.01 1442.04 2728.49 1442.04 2721.97 1442.04 2715.46 1442.04ZM2423.2 1436.56C2426.12 1436.56 2429.03 1436.56 2431.95 1436.56 2431.95 1459.31 2431.95 1482.07 2431.95 1504.82 2429.03 1504.82 2426.12 1504.82 2423.2 1504.82 2423.2 1482.07 2423.2 1459.31 2423.2 1436.56ZM2369.64 1434.19C2386.34 1434.19 2403.03 1434.19 2419.72 1434.19 2419.72 1437.74 2419.72 1441.29 2419.72 1444.84 2411.54 1444.84 2403.35 1444.84 2395.17 1444.84 2393.12 1451.61 2390.44 1458.6 2387.5 1464.62 2393.65 1464.08 2399.55 1463.22 2404.37 1462.36 2402.67 1458.6 2400.97 1454.94 2399.46 1452.04 2402.07 1450.46 2404.69 1448.89 2407.31 1447.31 2410.88 1454.19 2416.59 1466.02 2420.16 1474.51 2417.31 1476.34 2414.45 1478.16 2411.6 1479.99 2410.7 1477.63 2409.72 1474.94 2408.47 1472.14 2405.44 1472.79 2401.96 1473.33 2398.21 1473.86 2398.21 1478.2 2398.21 1482.53 2398.21 1486.87 2404.19 1486.87 2410.17 1486.87 2416.15 1486.87 2416.15 1490.45 2416.15 1494.04 2416.15 1497.62 2410.17 1497.62 2404.19 1497.62 2398.21 1497.62 2398.21 1502.35 2398.21 1507.08 2398.21 1511.81 2406.24 1510.74 2413.92 1509.45 2419.45 1508.16 2419.42 1511.81 2419.39 1515.47 2419.36 1519.12 2406.87 1522.24 2384.37 1525.36 2369.2 1526 2368.66 1522.17 2368.13 1518.33 2367.59 1514.5 2373.48 1514.5 2381.16 1513.85 2389.01 1512.99 2389.01 1507.87 2389.01 1502.74 2389.01 1497.62 2383.21 1497.62 2377.41 1497.62 2371.61 1497.62 2371.61 1494.04 2371.61 1490.45 2371.61 1486.87 2377.41 1486.87 2383.21 1486.87 2389.01 1486.87 2389.01 1482.96 2389.01 1479.06 2389.01 1475.15 2382.05 1475.91 2375.09 1476.55 2369.55 1476.77 2369.05 1473.07 2368.54 1469.38 2368.04 1465.69 2370.72 1465.69 2373.75 1465.59 2376.78 1465.37 2380.27 1458.6 2383.3 1450.54 2385.09 1444.84 2379.94 1444.84 2374.79 1444.84 2369.64 1444.84 2369.64 1441.29 2369.64 1437.74 2369.64 1434.19ZM2575.55 1433.55C2596.62 1433.55 2617.68 1433.55 2638.75 1433.55 2638.75 1436.13 2638.75 1438.71 2638.75 1441.29 2633.39 1447.96 2625.18 1455.59 2618.13 1461.18 2620.36 1462.4 2622.59 1463.61 2624.82 1464.83 2623.54 1466.27 2622.26 1467.7 2620.98 1469.13 2629.91 1469.13 2638.84 1469.13 2647.76 1469.13 2647.76 1472.29 2647.76 1475.44 2647.76 1478.59 2644.01 1490.1 2638.03 1500.09 2630.45 1507.73 2628.09 1504.75 2625.74 1501.78 2623.39 1498.8 2628.84 1493.86 2633.57 1488.05 2636.6 1480.1 2628.84 1480.1 2621.07 1480.1 2613.31 1480.1 2613.31 1489.7 2613.31 1499.3 2613.31 1508.91 2613.31 1526.75 2612.15 1530.52 2587.51 1530.52 2586.17 1526.47 2584.83 1522.42 2583.49 1518.37 2587.04 1518.37 2590.58 1518.37 2594.12 1518.37 2603.31 1518.26 2603.76 1516.86 2603.76 1510.2 2603.76 1500.16 2603.76 1490.13 2603.76 1480.1 2591.05 1480.1 2578.35 1480.1 2565.64 1480.1 2565.64 1476.44 2565.64 1472.79 2565.64 1469.13 2581 1469.13 2596.35 1469.13 2611.7 1469.13 2602.77 1464.62 2591.35 1459.35 2583.58 1456.34 2586.11 1453.69 2588.64 1451.04 2591.17 1448.39 2597.51 1450.86 2603.49 1453.65 2609.47 1456.77 2614.91 1453.01 2620.89 1447.96 2624.46 1444.41 2608.16 1444.41 2591.86 1444.41 2575.55 1444.41 2575.55 1440.79 2575.55 1437.17 2575.55 1433.55ZM2706.62 1432.69C2719.06 1432.69 2731.49 1432.69 2743.93 1432.69 2743.93 1451.22 2743.93 1469.74 2743.93 1488.27 2731.52 1488.27 2719.12 1488.27 2706.71 1488.27 2710.46 1491.71 2715.01 1496.22 2718.49 1500.2 2716.41 1502.89 2714.33 1505.58 2712.24 1508.26 2708.58 1503.75 2703.41 1498.16 2698.68 1494.07 2700.85 1491.67 2703.02 1489.27 2705.19 1486.87 2705.67 1487.3 2706.14 1487.73 2706.62 1488.16 2706.62 1469.67 2706.62 1451.18 2706.62 1432.69ZM2475.01 1431.08C2478.76 1436.13 2484.2 1444.19 2487.15 1449.57 2484.74 1452.04 2482.33 1454.51 2479.92 1456.99 2477.33 1452.36 2471.44 1443.44 2467.6 1438.39 2470.07 1435.95 2472.54 1433.51 2475.01 1431.08ZM2680.74 1429.25C2683.74 1429.25 2686.75 1429.25 2689.75 1429.25 2689.75 1433.12 2689.75 1436.99 2689.75 1440.86 2694.39 1440.82 2699.03 1440.79 2703.68 1440.75 2703.68 1444.3 2703.68 1447.85 2703.68 1451.4 2699.75 1451.4 2695.82 1451.4 2691.89 1451.4 2695.55 1459.24 2700.82 1464.62 2705.1 1467.84 2703.56 1471.5 2702.01 1475.15 2700.46 1478.81 2696.27 1474.08 2692.61 1467.31 2689.75 1460.32 2689.75 1469.85 2689.75 1479.38 2689.75 1488.91 2686.75 1488.91 2683.74 1488.91 2680.74 1488.91 2680.74 1479.09 2680.74 1469.28 2680.74 1459.46 2677.97 1469.13 2674.13 1477.63 2668.69 1484.72 2666.93 1481.17 2665.17 1477.63 2663.42 1474.08 2669.31 1468.81 2674.58 1460.75 2677.88 1451.4 2673.86 1451.4 2669.85 1451.4 2665.83 1451.4 2665.83 1447.88 2665.83 1444.37 2665.83 1440.86 2670.8 1440.86 2675.77 1440.86 2680.74 1440.86 2680.74 1436.99 2680.74 1433.12 2680.74 1429.25ZM2514.73 1429.25C2517.76 1429.25 2520.8 1429.25 2523.83 1429.25 2523.83 1431.36 2523.83 1433.48 2523.83 1435.59 2530.73 1435.59 2537.64 1435.59 2544.54 1435.59 2544.54 1438.6 2544.54 1441.61 2544.54 1444.62 2537.64 1444.62 2530.73 1444.62 2523.83 1444.62 2523.83 1446.63 2523.83 1448.64 2523.83 1450.64 2532.19 1450.64 2540.55 1450.64 2548.91 1450.64 2548.91 1453.55 2548.91 1456.45 2548.91 1459.35 2545.14 1459.35 2541.36 1459.35 2537.58 1459.35 2536.77 1462.15 2535.79 1465.05 2534.72 1467.63 2538.92 1467.63 2543.11 1467.63 2547.31 1467.63 2547.31 1470.57 2547.31 1473.5 2547.31 1476.44 2539.48 1476.44 2531.66 1476.44 2523.83 1476.44 2523.83 1478.31 2523.83 1480.17 2523.83 1482.03 2530.76 1482.03 2537.7 1482.03 2544.63 1482.03 2544.63 1484.79 2544.63 1487.55 2544.63 1490.31 2537.7 1490.31 2530.76 1490.31 2523.83 1490.31 2523.83 1492.35 2523.83 1494.4 2523.83 1496.44 2531.87 1496.44 2539.9 1496.44 2547.93 1496.44 2547.93 1499.41 2547.93 1502.39 2547.93 1505.36 2539.9 1505.36 2531.87 1505.36 2523.83 1505.36 2523.83 1507.9 2523.83 1510.45 2523.83 1512.99 2520.83 1512.99 2517.82 1512.99 2514.82 1512.99 2514.82 1510.45 2514.82 1507.9 2514.82 1505.36 2507.11 1505.36 2499.41 1505.36 2491.7 1505.36 2491.7 1502.39 2491.7 1499.41 2491.7 1496.44 2499.41 1496.44 2507.11 1496.44 2514.82 1496.44 2514.82 1494.4 2514.82 1492.35 2514.82 1490.31 2508.27 1490.35 2501.73 1490.38 2495.18 1490.42 2495.18 1487.62 2495.18 1484.83 2495.18 1482.03 2501.73 1482.03 2508.27 1482.03 2514.82 1482.03 2514.82 1480.17 2514.82 1478.31 2514.82 1476.44 2507.26 1476.44 2499.7 1476.44 2492.15 1476.44 2492.15 1473.5 2492.15 1470.57 2492.15 1467.63 2496.19 1467.63 2500.24 1467.63 2504.28 1467.63 2503.48 1464.83 2502.41 1461.93 2501.43 1459.35 2497.65 1459.35 2493.87 1459.35 2490.09 1459.35 2490.09 1456.45 2490.09 1453.55 2490.09 1450.64 2498.33 1450.64 2506.58 1450.64 2514.82 1450.64 2514.82 1448.64 2514.82 1446.63 2514.82 1444.62 2508.09 1444.62 2501.37 1444.62 2494.64 1444.62 2494.64 1441.61 2494.64 1438.6 2494.64 1435.59 2501.37 1435.59 2508.09 1435.59 2514.82 1435.59 2514.79 1433.48 2514.76 1431.36 2514.73 1429.25ZM2439.8 1429.14C2442.9 1429.14 2445.99 1429.14 2449.08 1429.14 2449.08 1457.31 2449.08 1485.47 2449.08 1513.64 2449.08 1528.15 2446.67 1530.73 2430.07 1530.73 2428.85 1526.86 2427.63 1522.99 2426.41 1519.12 2427.45 1519.12 2428.5 1519.12 2429.54 1519.12 2439 1519.12 2439.8 1518.69 2439.8 1513.32 2439.8 1485.26 2439.8 1457.2 2439.8 1429.14Z" fill="#0D0D0D" fill-rule="evenodd" fill-opacity="1"/><text fill="#000000" fill-opacity="0" font-family="Arial,Arial_MSFontService,sans-serif" font-size="101.588" direction="ltr" writing-mode="lr-tb" x="2367.59" y="1518.03">到達予想</text><path d="M2992.8 1504.24C2992.8 1507.14 2992.8 1510.04 2992.8 1512.94 3001.37 1512.94 3009.93 1512.94 3018.5 1512.94 3018.5 1510.04 3018.5 1507.14 3018.5 1504.24 3009.93 1504.24 3001.37 1504.24 2992.8 1504.24ZM2962.59 1480.16C2991.46 1480.16 3020.33 1480.16 3049.2 1480.16 3049.2 1490.83 3049.2 1501.51 3049.2 1512.19 3049.2 1528.32 3045.47 1529.07 3027.82 1529.82 3026.64 1526.99 3025.46 1524.16 3024.28 1521.33 3010.49 1521.33 2996.69 1521.33 2982.89 1521.33 2982.89 1512.91 2982.89 1504.49 2982.89 1496.07 2998.1 1496.07 3013.3 1496.07 3028.5 1496.07 3028.5 1503.41 3028.5 1510.76 3028.5 1518.1 3037.82 1518 3039 1517.03 3039 1511.98 3039 1504.56 3039 1497.14 3039 1489.72 3016.93 1489.72 2994.86 1489.72 2972.79 1489.72 2972.79 1503.09 2972.79 1516.46 2972.79 1529.82 2969.39 1529.82 2965.99 1529.82 2962.59 1529.82 2962.59 1513.27 2962.59 1496.71 2962.59 1480.16ZM2983.78 1459.41C2983.78 1461.7 2983.78 1463.99 2983.78 1466.29 2998.46 1466.29 3013.14 1466.29 3027.82 1466.29 3027.82 1463.99 3027.82 1461.7 3027.82 1459.41 3013.14 1459.41 2998.46 1459.41 2983.78 1459.41ZM2973.67 1450.7C2995.09 1450.7 3016.5 1450.7 3037.92 1450.7 3037.92 1458.83 3037.92 1466.97 3037.92 1475.1 3016.5 1475.1 2995.09 1475.1 2973.67 1475.1 2973.67 1466.97 2973.67 1458.83 2973.67 1450.7ZM3114.17 1430.49C3116.82 1436.3 3119.76 1441.99 3122.9 1447.58 3133.69 1446.19 3143.3 1444.47 3150.56 1442.53 3151.21 1446.47 3151.87 1450.41 3152.52 1454.36 3145.26 1455.97 3137.12 1457.37 3128.59 1458.44 3133.88 1466.18 3142.61 1477.36 3152.81 1487.68 3149.94 1490.76 3147.06 1493.84 3144.18 1496.93 3136.04 1489.83 3123.78 1488.86 3113.19 1488.86 3111.88 1488.86 3110.57 1488.86 3109.27 1488.86 3097.59 1488.97 3088.86 1493.81 3088.86 1500.04 3088.86 1511.65 3106.52 1513.37 3115.84 1513.37 3125.55 1513.37 3135.75 1511.44 3145.16 1508.86 3144.87 1513.3 3144.58 1517.75 3144.28 1522.19 3135.16 1524.55 3125.45 1525.41 3117.41 1525.41 3086.8 1525.41 3077.49 1511.55 3077.49 1500.8 3077.49 1484.56 3096.32 1478.54 3108.09 1478.22 3109.66 1478.22 3111.13 1478.11 3112.6 1478.11 3119.66 1478.11 3126.63 1478.65 3133.49 1480.91 3128.1 1474.46 3122.7 1467.58 3117.5 1459.84 3104.17 1461.13 3090.63 1461.88 3078.27 1461.88 3077.26 1461.88 3076.24 1461.88 3075.23 1461.88 3074.84 1457.94 3074.45 1454 3074.05 1450.06 3077.29 1450.16 3080.43 1450.16 3083.67 1450.16 3093.08 1450.16 3102.6 1449.73 3111.62 1448.87 3108.87 1443.93 3106.13 1438.66 3103.38 1432.96 3106.98 1432.14 3110.57 1431.31 3114.17 1430.49ZM3000.16 1428.23C3003.85 1428.23 3007.55 1428.23 3011.24 1428.23 3011.24 1430.67 3011.24 1433.11 3011.24 1435.54 3024.12 1435.54 3037 1435.54 3049.88 1435.54 3049.88 1438.95 3049.88 1442.35 3049.88 1445.76 3020.66 1445.76 2991.43 1445.76 2962.2 1445.76 2962.2 1442.35 2962.2 1438.95 2962.2 1435.54 2974.85 1435.54 2987.5 1435.54 3000.16 1435.54 3000.16 1433.11 3000.16 1430.67 3000.16 1428.23Z" fill="#0D0D0D" fill-rule="evenodd" fill-opacity="1"/><text fill="#000000" fill-opacity="0" font-family="Arial,Arial_MSFontService,sans-serif" font-size="101.588" direction="ltr" writing-mode="lr-tb" x="2962.2" y="1517.12">高さ</text></g></g></svg>