<svg width="600" height="52" viewBox="0 0 600 52" fill="none" xmlns="http://www.w3.org/2000/svg">
<rect width="600" height="52" fill="white"/>
<rect x="306" y="6" width="180" height="40" fill="#FEDC00"/>
<rect x="492" y="6" width="103" height="40" fill="#C91EFB"/>
<path d="M513.989 41.044V36.364C516.689 37.588 519.065 38.092 521.081 38.092C526.301 38.092 529.397 34.708 529.397 31.18C529.397 27.976 526.877 24.844 521.369 24.844C519.497 24.844 517.265 25.204 514.637 26.068L516.545 11.668H531.989V15.628H520.037L519.281 21.136C520.325 20.992 521.333 20.92 522.269 20.92C530.009 20.92 533.825 25.96 533.825 31.18C533.825 37.336 528.641 42.268 521.009 42.268C518.885 42.268 516.545 41.908 513.989 41.044ZM564.214 41.584H560.182V27.868C560.182 25.96 558.814 24.448 556.582 24.448C554.854 24.448 553.306 25.6 552.802 27.364V41.584H548.806V27.868C548.806 25.96 547.51 24.448 545.278 24.448C543.478 24.448 541.966 25.708 541.57 27.58V41.584H537.538V21.604H541.57V22.432C542.686 21.604 544.09 21.028 545.674 21.028C548.446 21.028 550.354 22.036 551.47 23.44C552.73 22.072 554.71 21.028 556.978 21.028C562.054 21.028 564.214 24.376 564.214 27.508V41.584Z" fill="white"/>
</svg>
