<svg width="390" height="179" xmlns="http://www.w3.org/2000/svg" xmlns:xlink="http://www.w3.org/1999/xlink" xml:space="preserve" overflow="hidden"><g transform="translate(-2827 -623)"><g><path d="M2859.74 652.597C2869.23 652.597 2878.71 652.597 2888.2 652.597 2888.2 692.316 2888.2 732.035 2888.2 771.754 2883.57 771.706 2878.94 771.659 2874.31 771.611 2874.31 737.232 2874.31 702.854 2874.31 668.475 2869.45 668.475 2864.6 668.475 2859.74 668.475 2859.74 663.182 2859.74 657.89 2859.74 652.597Z" fill="#FFFFFF" fill-rule="evenodd" fill-opacity="1"/><text fill="#000000" fill-opacity="0" font-family="Arial,Arial_MSFontService,sans-serif" font-size="119.157" direction="ltr" writing-mode="lr-tb" x="2859.74" y="756.859">1</text><path d="M2947.95 665.328C2930.92 665.328 2927.11 692.507 2927.11 711.961 2927.11 731.415 2930.92 758.308 2947.95 758.308 2964.98 758.308 2968.9 731.415 2968.9 711.961 2968.9 692.507 2964.98 665.328 2947.95 665.328ZM2947.95 649.593C2975.51 649.593 2983.02 683.066 2983.02 712.104 2983.02 740.856 2975.4 774.472 2947.95 774.472 2920.5 774.472 2913 740.856 2913 712.104 2913 683.066 2920.39 649.593 2947.95 649.593Z" fill="#FFFFFF" fill-rule="evenodd" fill-opacity="1"/><text fill="#000000" fill-opacity="0" font-family="Arial,Arial_MSFontService,sans-serif" font-size="124.879" direction="ltr" writing-mode="lr-tb" x="2913" y="758.862">0</text><path d="M3026.64 689.932C3035.27 689.932 3041.21 693.937 3044.68 699.516 3048.6 694.08 3054.77 689.932 3061.82 689.932 3077.62 689.932 3084.34 703.235 3084.34 715.68 3084.34 734.324 3084.34 752.967 3084.34 771.611 3080.16 771.611 3075.98 771.611 3071.8 771.611 3071.8 753.444 3071.8 735.277 3071.8 717.111 3071.8 709.529 3067.54 703.521 3060.59 703.521 3055.21 703.521 3050.4 708.099 3048.83 715.108 3048.83 733.942 3048.83 752.777 3048.83 771.611 3044.68 771.611 3040.54 771.611 3036.39 771.611 3036.39 753.444 3036.39 735.277 3036.39 717.111 3036.39 709.529 3032.36 703.521 3025.41 703.521 3019.81 703.521 3015.1 708.528 3013.87 715.966 3013.87 734.514 3013.87 753.063 3013.87 771.611 3009.69 771.611 3005.51 771.611 3001.32 771.611 3001.32 745.148 3001.32 718.684 3001.32 692.221 3005.51 692.221 3009.69 692.221 3013.87 692.221 3013.87 693.317 3013.87 694.414 3013.87 695.511 3017.35 692.221 3021.71 689.932 3026.64 689.932Z" fill="#FFFFFF" fill-rule="evenodd" fill-opacity="1"/><text fill="#000000" fill-opacity="0" font-family="Arial,Arial_MSFontService,sans-serif" font-size="81.6792" direction="ltr" writing-mode="lr-tb" x="3001.32" y="761.401">m</text></g></g></svg>