<svg width="600" height="52" viewBox="0 0 600 52" fill="none" xmlns="http://www.w3.org/2000/svg">
<mask id="path-1-inside-1_8_129" fill="white">
<path d="M0 0H600V52H0V0Z"/>
</mask>
<path d="M0 0H600V52H0V0Z" fill="white"/>
<path d="M600 52V51H0V52V53H600V52Z" fill="#C8C8C8" mask="url(#path-1-inside-1_8_129)"/>
<rect x="306" y="6" width="180" height="40" fill="#FEDC00"/>
<rect x="492" y="6" width="103" height="40" fill="#C91EFB"/>
<path d="M538.028 41.404H511.316V43.276H507.464V10.444H536.948V14.152H511.316V19.192H535.004V32.224H511.316V37.696H538.028V41.404ZM531.26 28.516V22.9H511.316V28.516H531.26ZM582.2 39.604L579.788 43.24C572.912 39.532 568.268 34.348 565.352 27.148C562.832 34.528 557.432 40.432 550.7 43.348L548 39.676C556.748 36.472 561.68 29.56 562.904 22.144H548.972V18.256H563.228V9.292H567.08V18.256H581.228V22.144H567.476C569.528 29.956 575.288 36.4 582.2 39.604Z" fill="white"/>
</svg>
