<svg width="390" height="178" xmlns="http://www.w3.org/2000/svg" xmlns:xlink="http://www.w3.org/1999/xlink" xml:space="preserve" overflow="hidden"><g transform="translate(-2827 -825)"><g><path d="M3026.64 887.489C3035.27 887.489 3041.21 891.593 3044.68 897.308 3048.6 891.739 3054.77 887.489 3061.82 887.489 3077.62 887.489 3084.34 901.119 3084.34 913.868 3084.34 932.969 3084.34 952.069 3084.34 971.169 3080.16 971.169 3075.98 971.169 3071.8 971.169 3071.8 952.557 3071.8 933.946 3071.8 915.334 3071.8 907.567 3067.54 901.412 3060.59 901.412 3055.21 901.412 3050.4 906.101 3048.83 913.282 3048.83 932.578 3048.83 951.873 3048.83 971.169 3044.68 971.169 3040.54 971.169 3036.39 971.169 3036.39 952.557 3036.39 933.946 3036.39 915.334 3036.39 907.567 3032.36 901.412 3025.41 901.412 3019.81 901.412 3015.1 906.541 3013.87 914.161 3013.87 933.164 3013.87 952.167 3013.87 971.169 3009.69 971.169 3005.51 971.169 3001.32 971.169 3001.32 944.057 3001.32 916.946 3001.32 889.834 3005.51 889.834 3009.69 889.834 3013.87 889.834 3013.87 890.958 3013.87 892.081 3013.87 893.205 3017.35 889.834 3021.71 887.489 3026.64 887.489ZM2924.87 849.387C2940.89 849.387 2956.91 849.387 2972.94 849.387 2972.94 854.76 2972.94 860.133 2972.94 865.507 2960.54 865.507 2948.14 865.507 2935.74 865.507 2934.96 872.981 2934.17 880.455 2933.39 887.929 2936.64 887.343 2939.77 887.05 2942.69 887.05 2966.77 887.05 2978.65 907.567 2978.65 928.816 2978.65 953.876 2962.52 973.954 2938.76 973.954 2932.15 973.954 2924.87 972.488 2916.92 968.971 2916.92 962.62 2916.92 956.27 2916.92 949.919 2925.32 954.902 2932.71 956.954 2938.99 956.954 2955.23 956.954 2964.87 943.178 2964.87 928.816 2964.87 915.773 2957.03 903.024 2939.89 903.024 2934.06 903.024 2927.11 904.489 2918.93 908.006 2920.91 888.466 2922.89 868.926 2924.87 849.387Z" fill="#FFFFFF" fill-rule="evenodd" fill-opacity="1"/><text fill="#000000" fill-opacity="0" font-family="Arial,Arial_MSFontService,sans-serif" font-size="124.567" direction="ltr" writing-mode="lr-tb" x="2916.92" y="958.383">5m</text></g></g></svg>