<svg width="600" height="52" viewBox="0 0 600 52" fill="none" xmlns="http://www.w3.org/2000/svg">
<mask id="path-1-inside-1_10_186" fill="white">
<path d="M0 0H600V52H0V0Z"/>
</mask>
<path d="M0 0H600V52H0V0Z" fill="white"/>
<path d="M600 52V51H0V52V53H600V52Z" fill="#C8C8C8" mask="url(#path-1-inside-1_10_186)"/>
<rect x="306" y="6" width="180" height="40" fill="#FEDC00"/>
<rect x="492" y="6" width="103" height="40" fill="#C91EFB"/>
<path d="M509.125 41.62L504.661 41.584V15.628H499.981V11.632H509.125V41.62ZM523.961 42.304C515.141 42.304 512.729 33.844 512.729 26.608C512.729 19.3 515.105 10.876 523.961 10.876C532.817 10.876 535.229 19.3 535.229 26.608C535.229 33.844 532.781 42.304 523.961 42.304ZM523.961 38.236C529.433 38.236 530.693 31.468 530.693 26.572C530.693 21.676 529.433 14.836 523.961 14.836C518.489 14.836 517.265 21.676 517.265 26.572C517.265 31.468 518.489 38.236 523.961 38.236ZM564.214 41.584H560.182V27.868C560.182 25.96 558.814 24.448 556.582 24.448C554.854 24.448 553.306 25.6 552.802 27.364V41.584H548.806V27.868C548.806 25.96 547.51 24.448 545.278 24.448C543.478 24.448 541.966 25.708 541.57 27.58V41.584H537.538V21.604H541.57V22.432C542.686 21.604 544.09 21.028 545.674 21.028C548.446 21.028 550.354 22.036 551.47 23.44C552.73 22.072 554.71 21.028 556.978 21.028C562.054 21.028 564.214 24.376 564.214 27.508V41.584ZM591.627 41.792H579.923C574.547 41.792 571.803 40.532 569.507 37.48C569.255 39.272 568.863 40.952 568.331 42.52L565.951 40.224C567.043 37.452 567.435 33.84 567.435 30.2V29.444L570.011 29.78C570.011 31.236 569.983 32.636 569.871 34.008C570.375 34.932 570.935 35.688 571.579 36.332V27.792H566.651V25.02H571.383V21.912H567.295V19.112H571.383V16.116H574.239V19.112H577.991V21.912H574.239V25.02H578.663V27.792H574.379V31.152H578.131V33.924H574.379V38.152C575.723 38.684 577.319 38.936 579.167 38.936H579.475L592.663 38.768L591.627 41.792ZM591.291 37.116H579.643V28.016H591.291V37.116ZM586.139 27.148L585.019 24.404H586.503C588.715 24.348 588.939 23.956 588.939 21.38V19.868H585.663C585.299 23.004 583.871 25.916 580.567 27.792L578.719 25.3C581.463 23.956 582.471 22.164 582.807 19.868H579.363V17.208H591.739V20.456C591.739 26.42 591.179 27.148 586.139 27.148ZM588.491 34.4V30.704H582.443V34.4H588.491Z" fill="white"/>
</svg>
