<svg width="2040" height="183" xmlns="http://www.w3.org/2000/svg" xmlns:xlink="http://www.w3.org/1999/xlink" xml:space="preserve" overflow="hidden"><g transform="translate(-1521 -935)"><g><rect x="1525" y="939" width="2034" height="175" fill="#C91EFB" fill-opacity="1"/><path d="M2028.98 1069.01C2028.98 1070.92 2028.98 1072.83 2028.98 1074.74 2050.49 1074.74 2072 1074.74 2093.51 1074.74 2093.51 1072.83 2093.51 1070.92 2093.51 1069.01 2072 1069.01 2050.49 1069.01 2028.98 1069.01ZM2015.61 1060.94C2046.03 1060.94 2076.46 1060.94 2106.88 1060.94 2106.88 1069.44 2106.88 1077.95 2106.88 1086.45 2102.42 1086.45 2097.97 1086.45 2093.51 1086.45 2093.51 1085.19 2093.51 1083.94 2093.51 1082.68 2072 1082.68 2050.49 1082.68 2028.98 1082.68 2028.98 1083.94 2028.98 1085.19 2028.98 1086.45 2024.53 1086.45 2020.07 1086.45 2015.61 1086.45 2015.61 1077.95 2015.61 1069.44 2015.61 1060.94ZM2017.3 1049.88C2046.55 1049.88 2075.81 1049.88 2105.06 1049.88 2105.06 1052.26 2105.06 1054.65 2105.06 1057.04 2075.81 1057.04 2046.55 1057.04 2017.3 1057.04 2017.3 1054.65 2017.3 1052.26 2017.3 1049.88ZM2017.3 1038.81C2046.55 1038.81 2075.81 1038.81 2105.06 1038.81 2105.06 1041.29 2105.06 1043.76 2105.06 1046.23 2075.81 1046.23 2046.55 1046.23 2017.3 1046.23 2017.3 1043.76 2017.3 1041.29 2017.3 1038.81ZM1733.25 1029.96C1737.01 1032.43 1740.78 1034.91 1744.54 1037.38 1741.04 1051.18 1733.51 1070.44 1725.33 1081.9 1721.39 1079.16 1717.45 1076.43 1713.51 1073.7 1720.78 1063.28 1729.35 1043.24 1733.25 1029.96ZM1877.54 1029.31C1881.31 1031.83 1885.07 1034.34 1888.84 1036.86 1884.55 1051.96 1877.67 1069.92 1868.72 1082.03 1864.78 1079.21 1860.84 1076.39 1856.9 1073.57 1865.47 1062.5 1873.26 1043.37 1877.54 1029.31ZM1927.4 1027.88C1930.65 1038.03 1935.84 1046.49 1943.11 1053.52 1949.73 1046.36 1954.4 1037.64 1956.87 1027.88 1947.05 1027.88 1937.22 1027.88 1927.4 1027.88ZM2237.42 1026.71C2238.33 1036.21 2240.4 1045.97 2244.43 1054.82 2248.32 1046.1 2250.66 1035.17 2251.05 1026.71 2246.51 1026.71 2241.96 1026.71 2237.42 1026.71ZM2221.84 1026.71C2221.84 1042.76 2221.84 1058.81 2221.84 1074.87 2226.38 1072.65 2232.09 1069.66 2237.55 1063.8 2231.83 1053.39 2227.29 1041.42 2225.73 1026.71 2224.43 1026.71 2223.14 1026.71 2221.84 1026.71ZM1999.9 1026.32C2040.84 1026.32 2081.78 1026.32 2122.72 1026.32 2122.72 1029.27 2122.72 1032.22 2122.72 1035.17 2081.78 1035.17 2040.84 1035.17 1999.9 1035.17 1999.9 1032.22 1999.9 1029.27 1999.9 1026.32ZM2164.71 1009.79C2166.14 1014.34 2167.96 1020.85 2169.26 1025.93 2172.85 1025.93 2176.44 1025.93 2180.03 1025.93 2182.24 1020.72 2184.06 1014.34 2185.1 1009.79 2178.3 1009.79 2171.51 1009.79 2164.71 1009.79ZM1795.44 1006.27C1795.44 1009.4 1795.44 1012.52 1795.44 1015.64 1801.93 1015.64 1808.42 1015.64 1814.91 1015.64 1814.91 1012.52 1814.91 1009.4 1814.91 1006.27 1808.42 1006.27 1801.93 1006.27 1795.44 1006.27ZM2022.88 1000.15C2022.88 1001.8 2022.88 1003.45 2022.88 1005.1 2026.73 1005.1 2030.58 1005.1 2034.44 1005.1 2034.44 1003.45 2034.44 1001.8 2034.44 1000.15 2030.58 1000.15 2026.73 1000.15 2022.88 1000.15ZM1721.3 994.428C1727.79 997.812 1737.27 1004.58 1743.37 1009.66 1740.78 1013.82 1738.18 1017.99 1735.58 1022.15 1729.61 1017.08 1719.09 1009.66 1713.51 1006.27 1716.11 1002.32 1718.7 998.376 1721.3 994.428ZM1865.08 994.167C1871.96 997.942 1882.61 1005.62 1887.41 1009.53 1884.77 1013.74 1882.13 1017.94 1879.49 1022.15 1873.26 1016.95 1864.43 1010.44 1857.16 1006.14 1859.8 1002.15 1862.44 998.159 1865.08 994.167ZM1909.74 991.434C1909.74 999.331 1909.74 1007.23 1909.74 1015.12 1916.93 1015.12 1924.11 1015.12 1931.29 1015.12 1931.29 1007.23 1931.29 999.331 1931.29 991.434 1924.11 991.434 1916.93 991.434 1909.74 991.434ZM2018.21 991.174C2017.34 992.302 2016.48 993.43 2015.61 994.558 2025.61 994.558 2035.6 994.558 2045.6 994.558 2045.6 998.593 2045.6 1002.63 2045.6 1006.66 2051.57 1006.4 2051.83 1005.1 2051.83 991.174 2040.62 991.174 2029.42 991.174 2018.21 991.174ZM1795.44 984.926C1795.44 987.963 1795.44 991 1795.44 994.037 1801.93 994.037 1808.42 994.037 1814.91 994.037 1814.91 991 1814.91 987.963 1814.91 984.926 1808.42 984.926 1801.93 984.926 1795.44 984.926ZM2084.68 980.891C2084.59 981.021 2084.51 981.151 2084.42 981.282 2087.67 985.447 2091.43 989.091 2095.85 992.345 2099.74 989.091 2102.6 985.056 2104.16 980.891 2097.66 980.891 2091.17 980.891 2084.68 980.891ZM2208.98 967.354C2227.12 967.354 2245.25 967.354 2263.38 967.354 2263.38 971.433 2263.38 975.511 2263.38 979.589 2263.38 1004.32 2261.83 1007.31 2237.03 1007.44 2235.38 1003.32 2233.74 999.2 2232.09 995.079 2233.96 995.079 2235.82 995.079 2237.68 995.079 2249.88 995.079 2250.14 994.558 2250.14 985.186 2250.14 983.538 2250.14 981.889 2250.14 980.24 2240.71 980.24 2231.27 980.24 2221.84 980.24 2221.84 991.564 2221.84 1002.89 2221.84 1014.21 2235.82 1014.21 2249.8 1014.21 2263.77 1014.21 2263.51 1028.4 2259.88 1049.75 2251.83 1063.8 2256.37 1068.75 2261.7 1072 2266.76 1074.74 2264.21 1078.6 2261.65 1082.46 2259.1 1086.32 2254.04 1082.55 2248.58 1077.73 2244.56 1072.78 2239.88 1078.64 2234.3 1083.2 2229.5 1086.58 2226.94 1082.85 2224.39 1079.12 2221.84 1075.39 2221.84 1079.08 2221.84 1082.76 2221.84 1086.45 2217.55 1086.45 2213.27 1086.45 2208.98 1086.45 2208.98 1046.75 2208.98 1007.05 2208.98 967.354ZM1870.01 964.1C1876.38 968.005 1887.15 976.075 1892.6 981.021 1889.66 984.883 1886.72 988.744 1883.78 992.606 1877.93 987.269 1868.2 979.98 1861.18 975.424 1864.13 971.65 1867.07 967.875 1870.01 964.1ZM1725.98 963.97C1732.86 968.265 1743.5 976.205 1748.31 980.761 1745.41 984.579 1742.51 988.397 1739.61 992.215 1734.41 987.659 1724.16 979.589 1717.28 975.294 1720.18 971.519 1723.08 967.745 1725.98 963.97ZM2168.22 963.449C2172.67 963.449 2177.13 963.449 2181.59 963.449 2181.59 966.747 2181.59 970.044 2181.59 973.342 2188.47 973.342 2195.35 973.342 2202.23 973.342 2202.23 977.42 2202.23 981.498 2202.23 985.577 2195.35 985.577 2188.47 985.577 2181.59 985.577 2181.59 989.482 2181.59 993.387 2181.59 997.291 2189.64 997.291 2197.69 997.291 2205.74 997.291 2205.74 1001.46 2205.74 1005.62 2205.74 1009.79 2202.97 1009.79 2200.2 1009.79 2197.43 1009.79 2196.39 1014.47 2194.57 1020.85 2192.63 1025.93 2196.87 1025.93 2201.11 1025.93 2205.35 1025.93 2205.35 1030.09 2205.35 1034.26 2205.35 1038.42 2197.43 1038.42 2189.51 1038.42 2181.59 1038.42 2181.59 1042.85 2181.59 1047.27 2181.59 1051.7 2188.82 1051.7 2196.04 1051.7 2203.27 1051.7 2203.27 1055.91 2203.27 1060.12 2203.27 1064.32 2196.04 1064.32 2188.82 1064.32 2181.59 1064.32 2181.59 1071.7 2181.59 1079.08 2181.59 1086.45 2177.13 1086.45 2172.67 1086.45 2168.22 1086.45 2168.22 1079.08 2168.22 1071.7 2168.22 1064.32 2161.16 1064.32 2154.11 1064.32 2147.05 1064.32 2147.05 1060.12 2147.05 1055.91 2147.05 1051.7 2154.11 1051.7 2161.16 1051.7 2168.22 1051.7 2168.22 1047.27 2168.22 1042.85 2168.22 1038.42 2160.43 1038.42 2152.64 1038.42 2144.85 1038.42 2144.85 1034.26 2144.85 1030.09 2144.85 1025.93 2149 1025.93 2153.16 1025.93 2157.31 1025.93 2155.88 1020.72 2153.68 1014.21 2152.12 1009.79 2149.18 1009.79 2146.23 1009.79 2143.29 1009.79 2143.29 1005.62 2143.29 1001.46 2143.29 997.291 2151.6 997.291 2159.91 997.291 2168.22 997.291 2168.22 993.387 2168.22 989.482 2168.22 985.577 2161.34 985.577 2154.45 985.577 2147.57 985.577 2147.57 981.498 2147.57 977.42 2147.57 973.342 2154.45 973.342 2161.34 973.342 2168.22 973.342 2168.22 970.044 2168.22 966.747 2168.22 963.449ZM2016.91 963.449C2021.19 963.449 2025.48 963.449 2029.76 963.449 2029.76 964.794 2029.76 966.139 2029.76 967.484 2033.83 967.484 2037.9 967.484 2041.97 967.484 2041.97 966.139 2041.97 964.794 2041.97 963.449 2046.29 963.449 2050.62 963.449 2054.95 963.449 2054.95 964.794 2054.95 966.139 2054.95 967.484 2059.71 967.484 2064.47 967.484 2069.23 967.484 2069.23 970.608 2069.23 973.732 2069.23 976.856 2064.47 976.856 2059.71 976.856 2054.95 976.856 2054.95 978.288 2054.95 979.72 2054.95 981.151 2050.62 981.151 2046.29 981.151 2041.97 981.151 2041.97 979.72 2041.97 978.288 2041.97 976.856 2037.9 976.856 2033.83 976.856 2029.76 976.856 2029.76 978.158 2029.76 979.459 2029.76 980.761 2028.03 980.761 2026.3 980.761 2024.57 980.761 2024.31 981.542 2023.92 982.323 2023.4 983.234 2037.08 983.234 2050.75 983.234 2064.43 983.234 2064.43 984.188 2064.43 985.143 2064.43 986.098 2071.96 980.501 2077.41 971.389 2080.14 963.58 2084.29 963.97 2088.45 964.361 2092.6 964.751 2091.95 966.834 2091.17 968.786 2090.13 970.869 2100.39 970.869 2110.65 970.869 2120.9 970.869 2120.9 974.209 2120.9 977.55 2120.9 980.891 2119.26 980.891 2117.61 980.891 2115.97 980.891 2113.37 987.659 2109.74 993.387 2105.06 998.203 2110.52 1001.07 2116.49 1003.15 2122.85 1004.32 2121.03 1008.22 2119.22 1012.13 2117.4 1016.03 2109.61 1013.69 2102.34 1009.92 2095.72 1005.36 2088.84 1009.66 2080.53 1012.78 2070.79 1014.73 2069.01 1010.96 2067.24 1007.18 2065.47 1003.41 2073.65 1002.89 2080.79 1001.07 2086.76 998.203 2083.77 995.469 2080.92 992.475 2078.45 989.482 2075.98 992.606 2073.26 995.339 2070.66 997.552 2068.58 994.254 2066.5 990.957 2064.43 987.659 2064.43 1007.18 2064.17 1013.43 2052.22 1014.86 2069.75 1014.82 2087.28 1014.78 2104.8 1014.73 2104.8 1017.34 2104.8 1019.94 2104.8 1022.54 2075.81 1022.54 2046.81 1022.54 2017.82 1022.54 2017.82 1019.98 2017.82 1017.42 2017.82 1014.86 2026.78 1014.86 2035.73 1014.86 2044.69 1014.86 2044.13 1013.43 2043.57 1012 2043 1010.57 2032.57 1010.57 2022.14 1010.57 2011.71 1010.57 2011.71 1006.66 2011.71 1002.76 2011.71 998.853 2009.51 1001.33 2007.17 1003.54 2004.83 1005.1 2002.89 1001.63 2000.94 998.159 1998.99 994.688 2005.35 990.653 2010.81 984.275 2013.66 979.199 2014.74 979.286 2015.83 979.372 2016.91 979.459 2016.91 978.592 2016.91 977.724 2016.91 976.856 2012.15 976.856 2007.39 976.856 2002.63 976.856 2002.63 973.732 2002.63 970.608 2002.63 967.484 2007.39 967.484 2012.15 967.484 2016.91 967.484 2016.91 966.139 2016.91 964.794 2016.91 963.449ZM1931.29 963.449C1935.67 963.449 1940.04 963.449 1944.41 963.449 1944.41 968.352 1944.41 973.255 1944.41 978.158 1954.84 978.158 1965.27 978.158 1975.7 978.158 1975.7 988.18 1975.7 998.203 1975.7 1008.22 1971.37 1008.22 1967.04 1008.22 1962.71 1008.22 1962.71 1002.63 1962.71 997.031 1962.71 991.434 1956.61 991.434 1950.51 991.434 1944.41 991.434 1944.41 999.331 1944.41 1007.23 1944.41 1015.12 1953.5 1015.12 1962.58 1015.12 1971.67 1015.12 1970.11 1033.61 1963.62 1049.23 1952.98 1061.33 1960.38 1066.02 1969.08 1069.92 1979.33 1072.92 1977.3 1077.21 1975.26 1081.51 1973.23 1085.8 1961.93 1081.9 1951.81 1076.43 1943.24 1069.66 1934.28 1076.82 1923.11 1082.94 1910.78 1086.45 1908.75 1082.16 1906.71 1077.86 1904.68 1073.57 1914.94 1071.22 1925.06 1067.06 1933.63 1061.07 1924.8 1051.83 1918.18 1040.77 1914.16 1027.88 1912.6 1027.88 1911.04 1027.88 1909.48 1027.88 1908.44 1049.75 1904.42 1071.09 1894.42 1086.19 1891.18 1082.24 1887.93 1078.3 1884.68 1074.35 1893.25 1060.16 1896.76 1041.29 1896.76 1006.92 1896.76 997.335 1896.76 987.746 1896.76 978.158 1908.27 978.158 1919.78 978.158 1931.29 978.158 1931.29 973.255 1931.29 968.352 1931.29 963.449ZM1781.8 963.449C1786.35 963.449 1790.89 963.449 1795.44 963.449 1795.44 966.617 1795.44 969.784 1795.44 972.951 1806.17 972.908 1816.9 972.864 1827.63 972.821 1827.63 979.893 1827.63 986.965 1827.63 994.037 1830.36 994.037 1833.09 994.037 1835.81 994.037 1835.81 998.116 1835.81 1002.19 1835.81 1006.27 1833.09 1006.27 1830.36 1006.27 1827.63 1006.27 1827.63 1013.3 1827.63 1020.33 1827.63 1027.36 1816.9 1027.36 1806.17 1027.36 1795.44 1027.36 1795.44 1030.31 1795.44 1033.26 1795.44 1036.21 1807.42 1036.21 1819.41 1036.21 1831.4 1036.21 1831.4 1040.03 1831.4 1043.85 1831.4 1047.66 1819.41 1047.66 1807.42 1047.66 1795.44 1047.66 1795.44 1050.7 1795.44 1053.74 1795.44 1056.78 1808.55 1056.78 1821.66 1056.78 1834.77 1056.78 1834.77 1060.85 1834.77 1064.93 1834.77 1069.01 1821.66 1069.01 1808.55 1069.01 1795.44 1069.01 1795.44 1074.87 1795.44 1080.72 1795.44 1086.58 1790.89 1086.58 1786.35 1086.58 1781.8 1086.58 1781.8 1080.72 1781.8 1074.87 1781.8 1069.01 1769.64 1069.01 1757.48 1069.01 1745.32 1069.01 1745.32 1064.93 1745.32 1060.85 1745.32 1056.78 1757.48 1056.78 1769.64 1056.78 1781.8 1056.78 1781.8 1053.74 1781.8 1050.7 1781.8 1047.66 1771.11 1047.66 1760.42 1047.66 1749.73 1047.66 1749.73 1043.85 1749.73 1040.03 1749.73 1036.21 1760.42 1036.21 1771.11 1036.21 1781.8 1036.21 1781.8 1033.26 1781.8 1030.31 1781.8 1027.36 1772.2 1027.36 1762.59 1027.36 1752.98 1027.36 1752.98 1023.45 1752.98 1019.55 1752.98 1015.64 1762.59 1015.64 1772.2 1015.64 1781.8 1015.64 1781.8 1012.52 1781.8 1009.4 1781.8 1006.27 1770.03 1006.27 1758.26 1006.27 1746.49 1006.27 1746.49 1002.19 1746.49 998.116 1746.49 994.037 1758.26 994.037 1770.03 994.037 1781.8 994.037 1781.8 991 1781.8 987.963 1781.8 984.926 1772.37 984.926 1762.93 984.926 1753.5 984.926 1753.5 980.934 1753.5 976.943 1753.5 972.951 1762.93 972.951 1772.37 972.951 1781.8 972.951 1781.8 969.784 1781.8 966.617 1781.8 963.449ZM1624.39 963.449C1629.02 963.449 1633.65 963.449 1638.28 963.449 1638.28 974.253 1638.28 985.056 1638.28 995.86 1655.29 995.86 1672.3 995.86 1689.31 995.86 1689.31 1000.55 1689.31 1005.23 1689.31 1009.92 1672.78 1009.92 1656.24 1009.92 1639.71 1009.92 1647.11 1038.16 1667.89 1061.46 1692.81 1073.05 1689.91 1077.43 1687.01 1081.81 1684.11 1086.19 1659.32 1072.78 1642.57 1054.04 1632.05 1028.01 1622.96 1054.69 1603.49 1076.04 1579.21 1086.58 1575.96 1082.16 1572.72 1077.73 1569.47 1073.31 1601.02 1061.72 1618.81 1036.73 1623.22 1009.92 1606.48 1009.92 1589.73 1009.92 1572.98 1009.92 1572.98 1005.23 1572.98 1000.55 1572.98 995.86 1590.12 995.86 1607.25 995.86 1624.39 995.86 1624.39 985.056 1624.39 974.253 1624.39 963.449Z" fill="#FFFFFF" fill-rule="evenodd" fill-opacity="1"/><text fill="#000000" fill-opacity="0" font-family="Arial,Arial_MSFontService,sans-serif" font-size="123.133" direction="ltr" writing-mode="lr-tb" x="1569.47" y="1071.19">大津波警報</text><path d="M2557.5 979.5 2557.5 1072.38" stroke="#FFFFFF" stroke-width="4.58333" stroke-linecap="butt" stroke-linejoin="miter" stroke-miterlimit="8" stroke-opacity="1" fill="none" fill-rule="evenodd"/><path d="M3165.5 979.5 3165.5 1072.38" stroke="#FFFFFF" stroke-width="4.58333" stroke-linecap="butt" stroke-linejoin="miter" stroke-miterlimit="8" stroke-opacity="1" fill="none" fill-rule="evenodd"/><path d="M2990.11 1038.75C2993.2 1038.75 2996.3 1038.75 2999.39 1038.75 2999.39 1045.38 2999.39 1052.01 2999.39 1058.64 2999.39 1061.33 3000.01 1061.76 3002.16 1061.76 3008.14 1061.76 3014.12 1061.76 3020.1 1061.76 3024.02 1061.76 3024.83 1061.33 3025.9 1049.93 3029.02 1051.33 3032.15 1052.73 3035.27 1054.12 3032.95 1071.22 3030.18 1072.72 3021.26 1072.72 3014.12 1072.72 3006.98 1072.72 2999.84 1072.72 2992.87 1072.72 2990.11 1071.22 2990.11 1063.58 2990.11 1055.31 2990.11 1047.03 2990.11 1038.75ZM2977.16 1038.21C2980.08 1039.61 2983 1041.01 2985.91 1042.41 2984.48 1050.68 2980.56 1062.62 2976 1070.25 2973.3 1067.74 2970.59 1065.23 2967.88 1062.72 2972.34 1056.17 2975.82 1045.95 2977.16 1038.21ZM3040.09 1037.14C3044.29 1043.48 3049.73 1054.02 3052.86 1061.86 3050.06 1064.12 3047.26 1066.38 3044.47 1068.64 3041.25 1059.07 3036.43 1049.93 3031.97 1042.94 3034.68 1041.01 3037.38 1039.07 3040.09 1037.14ZM3020.37 1016.28C3020.37 1018.72 3020.37 1021.16 3020.37 1023.59 3026.88 1023.59 3033.4 1023.59 3039.91 1023.59 3039.91 1021.16 3039.91 1018.72 3039.91 1016.28 3033.4 1016.28 3026.88 1016.28 3020.37 1016.28ZM2772.15 1014.35C2778.61 1014.35 2785.06 1014.35 2791.52 1014.35 2791.52 1026.75 2791.52 1039.15 2791.52 1051.54 2795.71 1059.39 2800.8 1061.65 2808.84 1061.65 2809.04 1061.65 2809.25 1061.65 2809.46 1061.65 2824.84 1061.43 2840.22 1061.22 2855.61 1061 2854.54 1064.77 2853.47 1068.53 2852.39 1072.29 2837.96 1072.29 2823.53 1072.29 2809.1 1072.29 2800.8 1072.29 2793.48 1070.14 2787.86 1061.86 2785.09 1067.02 2780.81 1072.18 2776.7 1075.62 2774.8 1072.33 2772.89 1069.03 2770.99 1065.73 2775.01 1063.15 2779.38 1058.96 2782.41 1053.91 2782.41 1044.41 2782.41 1034.92 2782.41 1025.42 2778.99 1025.42 2775.57 1025.42 2772.15 1025.42 2772.15 1021.73 2772.15 1018.04 2772.15 1014.35ZM2815.71 1004.24C2816.51 1006.72 2817.49 1009.62 2818.3 1012.52 2822.28 1012.52 2826.27 1012.52 2830.26 1012.52 2831.33 1009.83 2832.31 1007.04 2833.02 1004.24 2827.25 1004.24 2821.48 1004.24 2815.71 1004.24ZM3020.37 1001.66C3020.37 1003.92 3020.37 1006.18 3020.37 1008.44 3026.88 1008.44 3033.4 1008.44 3039.91 1008.44 3039.91 1006.18 3039.91 1003.92 3039.91 1001.66 3033.4 1001.66 3026.88 1001.66 3020.37 1001.66ZM3020.37 986.937C3020.37 989.195 3020.37 991.452 3020.37 993.71 3026.88 993.71 3033.4 993.71 3039.91 993.71 3039.91 991.452 3039.91 989.195 3039.91 986.937 3033.4 986.937 3026.88 986.937 3020.37 986.937ZM2728.11 981.454C2731.02 981.454 2733.94 981.454 2736.85 981.454 2736.85 1004.21 2736.85 1026.96 2736.85 1049.72 2733.94 1049.72 2731.02 1049.72 2728.11 1049.72 2728.11 1026.96 2728.11 1004.21 2728.11 981.454ZM2674.55 979.089C2691.24 979.089 2707.94 979.089 2724.63 979.089 2724.63 982.637 2724.63 986.185 2724.63 989.732 2716.44 989.732 2708.26 989.732 2700.08 989.732 2698.03 996.505 2695.35 1003.49 2692.4 1009.51 2698.56 1008.97 2704.45 1008.11 2709.27 1007.25 2707.58 1003.49 2705.88 999.837 2704.36 996.935 2706.98 995.358 2709.6 993.781 2712.22 992.205 2715.79 999.085 2721.5 1010.91 2725.07 1019.4 2722.22 1021.23 2719.36 1023.06 2716.5 1024.88 2715.61 1022.52 2714.63 1019.83 2713.38 1017.04 2710.34 1017.68 2706.86 1018.22 2703.11 1018.76 2703.11 1023.09 2703.11 1027.43 2703.11 1031.76 2709.1 1031.76 2715.08 1031.76 2721.06 1031.76 2721.06 1035.35 2721.06 1038.93 2721.06 1042.51 2715.08 1042.51 2709.1 1042.51 2703.11 1042.51 2703.11 1047.24 2703.11 1051.97 2703.11 1056.7 2711.15 1055.63 2718.82 1054.34 2724.36 1053.05 2724.33 1056.7 2724.3 1060.36 2724.27 1064.01 2711.77 1067.13 2689.28 1070.25 2674.11 1070.89 2673.57 1067.06 2673.03 1063.23 2672.5 1059.39 2678.39 1059.39 2686.07 1058.75 2693.92 1057.89 2693.92 1052.76 2693.92 1047.64 2693.92 1042.51 2688.12 1042.51 2682.32 1042.51 2676.52 1042.51 2676.52 1038.93 2676.52 1035.35 2676.52 1031.76 2682.32 1031.76 2688.12 1031.76 2693.92 1031.76 2693.92 1027.86 2693.92 1023.95 2693.92 1020.05 2686.96 1020.8 2680 1021.44 2674.46 1021.66 2673.96 1017.97 2673.45 1014.28 2672.95 1010.59 2675.62 1010.59 2678.66 1010.48 2681.69 1010.26 2685.17 1003.49 2688.21 995.43 2689.99 989.732 2684.85 989.732 2679.7 989.732 2674.55 989.732 2674.55 986.185 2674.55 982.637 2674.55 979.089ZM2880.46 978.444C2901.52 978.444 2922.59 978.444 2943.65 978.444 2943.65 981.024 2943.65 983.604 2943.65 986.185 2938.3 992.849 2930.09 1000.48 2923.04 1006.07 2925.27 1007.29 2927.5 1008.51 2929.73 1009.73 2928.45 1011.16 2927.17 1012.59 2925.89 1014.03 2934.82 1014.03 2943.74 1014.03 2952.67 1014.03 2952.67 1017.18 2952.67 1020.33 2952.67 1023.49 2948.92 1034.99 2942.94 1044.99 2935.35 1052.62 2933 1049.65 2930.65 1046.67 2928.3 1043.7 2933.75 1038.75 2938.48 1032.95 2941.51 1024.99 2933.75 1024.99 2925.98 1024.99 2918.22 1024.99 2918.22 1034.6 2918.22 1044.2 2918.22 1053.8 2918.22 1071.65 2917.05 1075.41 2892.42 1075.41 2891.08 1071.36 2889.74 1067.31 2888.4 1063.26 2891.94 1063.26 2895.48 1063.26 2899.02 1063.26 2908.22 1063.15 2908.66 1061.76 2908.66 1055.09 2908.66 1045.06 2908.66 1035.03 2908.66 1024.99 2895.96 1024.99 2883.26 1024.99 2870.55 1024.99 2870.55 1021.34 2870.55 1017.68 2870.55 1014.03 2885.9 1014.03 2901.26 1014.03 2916.61 1014.03 2907.68 1009.51 2896.26 1004.24 2888.49 1001.23 2891.02 998.583 2893.55 995.931 2896.08 993.28 2902.42 995.752 2908.4 998.547 2914.38 1001.66 2919.82 997.902 2925.8 992.849 2929.37 989.302 2913.07 989.302 2896.76 989.302 2880.46 989.302 2880.46 985.683 2880.46 982.064 2880.46 978.444ZM3011.53 977.584C3023.97 977.584 3036.4 977.584 3048.84 977.584 3048.84 996.11 3048.84 1014.64 3048.84 1033.16 3036.43 1033.16 3024.02 1033.16 3011.62 1033.16 3015.37 1036.6 3019.92 1041.12 3023.4 1045.09 3021.32 1047.78 3019.23 1050.47 3017.15 1053.16 3013.49 1048.64 3008.32 1043.05 3003.58 1038.97 3005.76 1036.57 3007.93 1034.17 3010.1 1031.76 3010.58 1032.19 3011.05 1032.62 3011.53 1033.05 3011.53 1014.56 3011.53 996.075 3011.53 977.584ZM2779.92 975.972C2783.66 981.024 2789.11 989.087 2792.05 994.462 2789.64 996.935 2787.23 999.407 2784.82 1001.88 2782.24 997.257 2776.34 988.334 2772.51 983.282 2774.98 980.845 2777.45 978.409 2779.92 975.972ZM2985.64 974.144C2988.65 974.144 2991.65 974.144 2994.66 974.144 2994.66 978.014 2994.66 981.884 2994.66 985.754 2999.3 985.719 3003.94 985.683 3008.58 985.647 3008.58 989.195 3008.58 992.742 3008.58 996.29 3004.66 996.29 3000.73 996.29 2996.8 996.29 3000.46 1004.14 3005.73 1009.51 3010.01 1012.74 3008.46 1016.39 3006.92 1020.05 3005.37 1023.7 3001.17 1018.97 2997.51 1012.2 2994.66 1005.21 2994.66 1014.74 2994.66 1024.28 2994.66 1033.81 2991.65 1033.81 2988.65 1033.81 2985.64 1033.81 2985.64 1023.99 2985.64 1014.17 2985.64 1004.35 2982.88 1014.03 2979.04 1022.52 2973.59 1029.61 2971.84 1026.07 2970.08 1022.52 2968.33 1018.97 2974.22 1013.7 2979.48 1005.64 2982.79 996.29 2978.77 996.29 2974.75 996.29 2970.74 996.29 2970.74 992.778 2970.74 989.266 2970.74 985.754 2975.71 985.754 2980.67 985.754 2985.64 985.754 2985.64 981.884 2985.64 978.014 2985.64 974.144ZM2819.64 974.144C2822.67 974.144 2825.71 974.144 2828.74 974.144 2828.74 976.259 2828.74 978.373 2828.74 980.487 2835.64 980.487 2842.55 980.487 2849.45 980.487 2849.45 983.497 2849.45 986.507 2849.45 989.517 2842.55 989.517 2835.64 989.517 2828.74 989.517 2828.74 991.524 2828.74 993.53 2828.74 995.537 2837.1 995.537 2845.46 995.537 2853.82 995.537 2853.82 998.44 2853.82 1001.34 2853.82 1004.24 2850.04 1004.24 2846.26 1004.24 2842.49 1004.24 2841.68 1007.04 2840.7 1009.94 2839.63 1012.52 2843.82 1012.52 2848.02 1012.52 2852.22 1012.52 2852.22 1015.46 2852.22 1018.4 2852.22 1021.34 2844.39 1021.34 2836.57 1021.34 2828.74 1021.34 2828.74 1023.2 2828.74 1025.06 2828.74 1026.93 2835.67 1026.93 2842.61 1026.93 2849.54 1026.93 2849.54 1029.69 2849.54 1032.45 2849.54 1035.2 2842.61 1035.2 2835.67 1035.2 2828.74 1035.2 2828.74 1037.25 2828.74 1039.29 2828.74 1041.33 2836.77 1041.33 2844.81 1041.33 2852.84 1041.33 2852.84 1044.31 2852.84 1047.28 2852.84 1050.25 2844.81 1050.25 2836.77 1050.25 2828.74 1050.25 2828.74 1052.8 2828.74 1055.34 2828.74 1057.89 2825.74 1057.89 2822.73 1057.89 2819.73 1057.89 2819.73 1055.34 2819.73 1052.8 2819.73 1050.25 2812.02 1050.25 2804.31 1050.25 2796.61 1050.25 2796.61 1047.28 2796.61 1044.31 2796.61 1041.33 2804.31 1041.33 2812.02 1041.33 2819.73 1041.33 2819.73 1039.29 2819.73 1037.25 2819.73 1035.2 2813.18 1035.24 2806.63 1035.28 2800.09 1035.31 2800.09 1032.52 2800.09 1029.72 2800.09 1026.93 2806.63 1026.93 2813.18 1026.93 2819.73 1026.93 2819.73 1025.06 2819.73 1023.2 2819.73 1021.34 2812.17 1021.34 2804.61 1021.34 2797.05 1021.34 2797.05 1018.4 2797.05 1015.46 2797.05 1012.52 2801.1 1012.52 2805.15 1012.52 2809.19 1012.52 2808.39 1009.73 2807.32 1006.82 2806.34 1004.24 2802.56 1004.24 2798.78 1004.24 2795 1004.24 2795 1001.34 2795 998.44 2795 995.537 2803.24 995.537 2811.48 995.537 2819.73 995.537 2819.73 993.53 2819.73 991.524 2819.73 989.517 2813 989.517 2806.28 989.517 2799.55 989.517 2799.55 986.507 2799.55 983.497 2799.55 980.487 2806.28 980.487 2813 980.487 2819.73 980.487 2819.7 978.373 2819.67 976.259 2819.64 974.144ZM2744.71 974.037C2747.8 974.037 2750.9 974.037 2753.99 974.037 2753.99 1002.2 2753.99 1030.37 2753.99 1058.53 2753.99 1073.04 2751.58 1075.62 2734.98 1075.62 2733.76 1071.75 2732.54 1067.88 2731.32 1064.01 2732.36 1064.01 2733.4 1064.01 2734.45 1064.01 2743.91 1064.01 2744.71 1063.58 2744.71 1058.21 2744.71 1030.15 2744.71 1002.09 2744.71 974.037Z" fill="#FFFFFF" fill-rule="evenodd" fill-opacity="1"/><text fill="#000000" fill-opacity="0" font-family="Arial,Arial_MSFontService,sans-serif" font-size="101.588" direction="ltr" writing-mode="lr-tb" x="2672.5" y="1062.93">到達予想</text><path d="M3297.71 1049.13C3297.71 1052.03 3297.71 1054.94 3297.71 1057.84 3306.27 1057.84 3314.84 1057.84 3323.41 1057.84 3323.41 1054.94 3323.41 1052.03 3323.41 1049.13 3314.84 1049.13 3306.27 1049.13 3297.71 1049.13ZM3267.5 1025.05C3296.37 1025.05 3325.24 1025.05 3354.11 1025.05 3354.11 1035.73 3354.11 1046.41 3354.11 1057.09 3354.11 1073.21 3350.38 1073.96 3332.72 1074.72 3331.55 1071.88 3330.37 1069.05 3329.19 1066.22 3315.4 1066.22 3301.6 1066.22 3287.8 1066.22 3287.8 1057.8 3287.8 1049.38 3287.8 1040.96 3303 1040.96 3318.21 1040.96 3333.41 1040.96 3333.41 1048.31 3333.41 1055.65 3333.41 1063 3342.73 1062.89 3343.91 1061.92 3343.91 1056.87 3343.91 1049.45 3343.91 1042.04 3343.91 1034.62 3321.84 1034.62 3299.77 1034.62 3277.7 1034.62 3277.7 1047.98 3277.7 1061.35 3277.7 1074.72 3274.3 1074.72 3270.9 1074.72 3267.5 1074.72 3267.5 1058.16 3267.5 1041.61 3267.5 1025.05ZM3288.68 1004.3C3288.68 1006.6 3288.68 1008.89 3288.68 1011.18 3303.36 1011.18 3318.04 1011.18 3332.72 1011.18 3332.72 1008.89 3332.72 1006.6 3332.72 1004.3 3318.04 1004.3 3303.36 1004.3 3288.68 1004.3ZM3278.58 995.595C3300 995.595 3321.41 995.595 3342.83 995.595 3342.83 1003.73 3342.83 1011.86 3342.83 1020 3321.41 1020 3300 1020 3278.58 1020 3278.58 1011.86 3278.58 1003.73 3278.58 995.595ZM3419.08 975.385C3421.73 981.19 3424.67 986.888 3427.81 992.478 3438.6 991.08 3448.21 989.36 3455.47 987.425 3456.12 991.367 3456.77 995.308 3457.43 999.25 3450.17 1000.86 3442.03 1002.26 3433.5 1003.34 3438.79 1011.08 3447.52 1022.26 3457.72 1032.58 3454.85 1035.66 3451.97 1038.74 3449.09 1041.82 3440.95 1034.73 3428.69 1033.76 3418.1 1033.76 3416.79 1033.76 3415.48 1033.76 3414.17 1033.76 3402.5 1033.87 3393.77 1038.7 3393.77 1044.94 3393.77 1056.55 3411.43 1058.27 3420.75 1058.27 3430.46 1058.27 3440.66 1056.33 3450.07 1053.75 3449.78 1058.2 3449.48 1062.64 3449.19 1067.08 3440.07 1069.45 3430.36 1070.31 3422.31 1070.31 3391.71 1070.31 3382.39 1056.44 3382.39 1045.69 3382.39 1029.46 3401.23 1023.44 3413 1023.12 3414.57 1023.12 3416.04 1023.01 3417.51 1023.01 3424.57 1023.01 3431.53 1023.55 3438.4 1025.8 3433.01 1019.35 3427.61 1012.47 3422.41 1004.73 3409.07 1006.02 3395.54 1006.78 3383.18 1006.78 3382.17 1006.78 3381.15 1006.78 3380.14 1006.78 3379.75 1002.83 3379.35 998.892 3378.96 994.95 3382.2 995.058 3385.34 995.058 3388.57 995.058 3397.99 995.058 3407.5 994.628 3416.53 993.768 3413.78 988.823 3411.03 983.555 3408.29 977.858 3411.89 977.033 3415.48 976.209 3419.08 975.385ZM3305.06 973.128C3308.76 973.128 3312.45 973.128 3316.15 973.128 3316.15 975.564 3316.15 978.001 3316.15 980.438 3329.03 980.438 3341.91 980.438 3354.79 980.438 3354.79 983.842 3354.79 987.246 3354.79 990.65 3325.56 990.65 3296.33 990.65 3267.11 990.65 3267.11 987.246 3267.11 983.842 3267.11 980.438 3279.76 980.438 3292.41 980.438 3305.06 980.438 3305.06 978.001 3305.06 975.564 3305.06 973.128Z" fill="#FFFFFF" fill-rule="evenodd" fill-opacity="1"/><text fill="#000000" fill-opacity="0" font-family="Arial,Arial_MSFontService,sans-serif" font-size="101.588" direction="ltr" writing-mode="lr-tb" x="3267.11" y="1062.02">高さ</text></g></g></svg>