<svg width="2035" height="184" xmlns="http://www.w3.org/2000/svg" xmlns:xlink="http://www.w3.org/1999/xlink" xml:space="preserve" overflow="hidden"><g transform="translate(-1480 -1168)"><g><rect x="1481" y="1173" width="2034" height="175" fill="#DE080A" fill-opacity="1"/><path d="M1846.3 1302.31C1846.3 1304.22 1846.3 1306.12 1846.3 1308.03 1868.18 1308.03 1890.07 1308.03 1911.95 1308.03 1911.95 1306.12 1911.95 1304.22 1911.95 1302.31 1890.07 1302.31 1868.18 1302.31 1846.3 1302.31ZM1832.7 1294.24C1863.65 1294.24 1894.6 1294.24 1925.56 1294.24 1925.56 1302.74 1925.56 1311.24 1925.56 1319.75 1921.02 1319.75 1916.49 1319.75 1911.95 1319.75 1911.95 1318.49 1911.95 1317.23 1911.95 1315.97 1890.07 1315.97 1868.18 1315.97 1846.3 1315.97 1846.3 1317.23 1846.3 1318.49 1846.3 1319.75 1841.77 1319.75 1837.23 1319.75 1832.7 1319.75 1832.7 1311.24 1832.7 1302.74 1832.7 1294.24ZM1834.41 1283.17C1864.18 1283.17 1893.94 1283.17 1923.71 1283.17 1923.71 1285.56 1923.71 1287.95 1923.71 1290.33 1893.94 1290.33 1864.18 1290.33 1834.41 1290.33 1834.41 1287.95 1834.41 1285.56 1834.41 1283.17ZM1834.41 1272.11C1864.18 1272.11 1893.94 1272.11 1923.71 1272.11 1923.71 1274.58 1923.71 1277.06 1923.71 1279.53 1893.94 1279.53 1864.18 1279.53 1834.41 1279.53 1834.41 1277.06 1834.41 1274.58 1834.41 1272.11ZM1545.42 1263.26C1549.25 1265.73 1553.08 1268.2 1556.91 1270.68 1553.34 1284.47 1545.68 1303.74 1537.36 1315.19 1533.35 1312.46 1529.35 1309.73 1525.34 1306.99 1532.74 1296.58 1541.45 1276.53 1545.42 1263.26ZM1692.23 1262.61C1696.06 1265.12 1699.89 1267.64 1703.72 1270.16 1699.36 1285.26 1692.36 1303.22 1683.24 1315.32 1679.24 1312.5 1675.23 1309.68 1671.22 1306.86 1679.94 1295.8 1687.87 1276.66 1692.23 1262.61ZM1742.95 1261.18C1746.25 1271.33 1751.54 1279.79 1758.93 1286.82 1765.67 1279.66 1770.43 1270.94 1772.93 1261.18 1762.94 1261.18 1752.95 1261.18 1742.95 1261.18ZM2058.36 1260C2059.29 1269.51 2061.4 1279.27 2065.5 1288.12 2069.46 1279.4 2071.84 1268.46 2072.23 1260 2067.61 1260 2062.99 1260 2058.36 1260ZM2042.51 1260C2042.51 1276.06 2042.51 1292.11 2042.51 1308.16 2047.14 1305.95 2052.95 1302.96 2058.5 1297.1 2052.68 1286.69 2048.06 1274.71 2046.48 1260 2045.16 1260 2043.83 1260 2042.51 1260ZM1816.71 1259.61C1858.37 1259.61 1900.02 1259.61 1941.67 1259.61 1941.67 1262.56 1941.67 1265.51 1941.67 1268.46 1900.02 1268.46 1858.37 1268.46 1816.71 1268.46 1816.71 1265.51 1816.71 1262.56 1816.71 1259.61ZM1984.39 1243.08C1985.85 1247.64 1987.7 1254.15 1989.02 1259.22 1992.67 1259.22 1996.33 1259.22 1999.98 1259.22 2002.23 1254.02 2004.07 1247.64 2005.13 1243.08 1998.22 1243.08 1991.31 1243.08 1984.39 1243.08ZM1608.69 1239.57C1608.69 1242.69 1608.69 1245.82 1608.69 1248.94 1615.29 1248.94 1621.9 1248.94 1628.5 1248.94 1628.5 1245.82 1628.5 1242.69 1628.5 1239.57 1621.9 1239.57 1615.29 1239.57 1608.69 1239.57ZM1840.09 1233.45C1840.09 1235.1 1840.09 1236.75 1840.09 1238.4 1844.01 1238.4 1847.93 1238.4 1851.85 1238.4 1851.85 1236.75 1851.85 1235.1 1851.85 1233.45 1847.93 1233.45 1844.01 1233.45 1840.09 1233.45ZM1533.26 1227.72C1539.87 1231.11 1549.51 1237.88 1555.72 1242.95 1553.08 1247.12 1550.44 1251.28 1547.79 1255.45 1541.72 1250.37 1531.02 1242.95 1525.34 1239.57 1527.98 1235.62 1530.62 1231.67 1533.26 1227.72ZM1679.55 1227.46C1686.55 1231.24 1697.38 1238.92 1702.27 1242.82 1699.58 1247.03 1696.89 1251.24 1694.21 1255.45 1687.87 1250.24 1678.89 1243.73 1671.49 1239.44 1674.17 1235.45 1676.86 1231.46 1679.55 1227.46ZM1724.99 1224.73C1724.99 1232.63 1724.99 1240.52 1724.99 1248.42 1732.29 1248.42 1739.6 1248.42 1746.91 1248.42 1746.91 1240.52 1746.91 1232.63 1746.91 1224.73 1739.6 1224.73 1732.29 1224.73 1724.99 1224.73ZM1835.34 1224.47C1834.46 1225.6 1833.58 1226.73 1832.7 1227.85 1842.87 1227.85 1853.04 1227.85 1863.21 1227.85 1863.21 1231.89 1863.21 1235.92 1863.21 1239.96 1869.29 1239.7 1869.55 1238.4 1869.55 1224.47 1858.15 1224.47 1846.74 1224.47 1835.34 1224.47ZM1608.69 1218.22C1608.69 1221.26 1608.69 1224.3 1608.69 1227.33 1615.29 1227.33 1621.9 1227.33 1628.5 1227.33 1628.5 1224.3 1628.5 1221.26 1628.5 1218.22 1621.9 1218.22 1615.29 1218.22 1608.69 1218.22ZM1902.97 1214.19C1902.88 1214.32 1902.79 1214.45 1902.7 1214.58 1906.01 1218.74 1909.84 1222.39 1914.33 1225.64 1918.29 1222.39 1921.2 1218.35 1922.78 1214.19 1916.18 1214.19 1909.57 1214.19 1902.97 1214.19ZM2029.44 1200.65C2047.89 1200.65 2066.33 1200.65 2084.78 1200.65 2084.78 1204.73 2084.78 1208.81 2084.78 1212.89 2084.78 1237.62 2083.2 1240.61 2057.97 1240.74 2056.3 1236.62 2054.62 1232.5 2052.95 1228.38 2054.84 1228.38 2056.74 1228.38 2058.63 1228.38 2071.05 1228.38 2071.31 1227.85 2071.31 1218.48 2071.31 1216.83 2071.31 1215.19 2071.31 1213.54 2061.71 1213.54 2052.11 1213.54 2042.51 1213.54 2042.51 1224.86 2042.51 1236.18 2042.51 1247.51 2056.74 1247.51 2070.96 1247.51 2085.18 1247.51 2084.92 1261.7 2081.22 1283.04 2073.03 1297.1 2077.65 1302.05 2083.07 1305.3 2088.22 1308.03 2085.62 1311.9 2083.02 1315.76 2080.42 1319.62 2075.27 1315.84 2069.72 1311.03 2065.63 1306.08 2060.87 1311.94 2055.19 1316.49 2050.31 1319.88 2047.71 1316.15 2045.11 1312.42 2042.51 1308.68 2042.51 1312.37 2042.51 1316.06 2042.51 1319.75 2038.15 1319.75 2033.8 1319.75 2029.44 1319.75 2029.44 1280.05 2029.44 1240.35 2029.44 1200.65ZM1684.57 1197.4C1691.04 1201.3 1702 1209.37 1707.55 1214.32 1704.56 1218.18 1701.56 1222.04 1698.57 1225.9 1692.62 1220.57 1682.72 1213.28 1675.58 1208.72 1678.58 1204.95 1681.57 1201.17 1684.57 1197.4ZM1538.02 1197.27C1545.02 1201.56 1555.85 1209.5 1560.74 1214.06 1557.79 1217.88 1554.84 1221.69 1551.89 1225.51 1546.61 1220.96 1536.17 1212.89 1529.17 1208.59 1532.12 1204.82 1535.07 1201.04 1538.02 1197.27ZM1987.96 1196.75C1992.49 1196.75 1997.03 1196.75 2001.56 1196.75 2001.56 1200.04 2001.56 1203.34 2001.56 1206.64 2008.57 1206.64 2015.57 1206.64 2022.57 1206.64 2022.57 1210.72 2022.57 1214.79 2022.57 1218.87 2015.57 1218.87 2008.57 1218.87 2001.56 1218.87 2001.56 1222.78 2001.56 1226.68 2001.56 1230.59 2009.75 1230.59 2017.94 1230.59 2026.13 1230.59 2026.13 1234.75 2026.13 1238.92 2026.13 1243.08 2023.32 1243.08 2020.5 1243.08 2017.68 1243.08 2016.62 1247.77 2014.77 1254.15 2012.79 1259.22 2017.11 1259.22 2021.42 1259.22 2025.74 1259.22 2025.74 1263.39 2025.74 1267.55 2025.74 1271.72 2017.68 1271.72 2009.62 1271.72 2001.56 1271.72 2001.56 1276.14 2001.56 1280.57 2001.56 1285 2008.92 1285 2016.27 1285 2023.62 1285 2023.62 1289.2 2023.62 1293.41 2023.62 1297.62 2016.27 1297.62 2008.92 1297.62 2001.56 1297.62 2001.56 1305 2001.56 1312.37 2001.56 1319.75 1997.03 1319.75 1992.49 1319.75 1987.96 1319.75 1987.96 1312.37 1987.96 1305 1987.96 1297.62 1980.78 1297.62 1973.61 1297.62 1966.43 1297.62 1966.43 1293.41 1966.43 1289.2 1966.43 1285 1973.61 1285 1980.78 1285 1987.96 1285 1987.96 1280.57 1987.96 1276.14 1987.96 1271.72 1980.03 1271.72 1972.11 1271.72 1964.18 1271.72 1964.18 1267.55 1964.18 1263.39 1964.18 1259.22 1968.41 1259.22 1972.64 1259.22 1976.86 1259.22 1975.41 1254.02 1973.17 1247.51 1971.58 1243.08 1968.59 1243.08 1965.59 1243.08 1962.6 1243.08 1962.6 1238.92 1962.6 1234.75 1962.6 1230.59 1971.05 1230.59 1979.51 1230.59 1987.96 1230.59 1987.96 1226.68 1987.96 1222.78 1987.96 1218.87 1980.96 1218.87 1973.96 1218.87 1966.96 1218.87 1966.96 1214.79 1966.96 1210.72 1966.96 1206.64 1973.96 1206.64 1980.96 1206.64 1987.96 1206.64 1987.96 1203.34 1987.96 1200.04 1987.96 1196.75ZM1834.02 1196.75C1838.38 1196.75 1842.73 1196.75 1847.09 1196.75 1847.09 1198.09 1847.09 1199.44 1847.09 1200.78 1851.23 1200.78 1855.37 1200.78 1859.51 1200.78 1859.51 1199.44 1859.51 1198.09 1859.51 1196.75 1863.91 1196.75 1868.32 1196.75 1872.72 1196.75 1872.72 1198.09 1872.72 1199.44 1872.72 1200.78 1877.56 1200.78 1882.41 1200.78 1887.25 1200.78 1887.25 1203.9 1887.25 1207.03 1887.25 1210.15 1882.41 1210.15 1877.56 1210.15 1872.72 1210.15 1872.72 1211.58 1872.72 1213.02 1872.72 1214.45 1868.32 1214.45 1863.91 1214.45 1859.51 1214.45 1859.51 1213.02 1859.51 1211.58 1859.51 1210.15 1855.37 1210.15 1851.23 1210.15 1847.09 1210.15 1847.09 1211.45 1847.09 1212.76 1847.09 1214.06 1845.33 1214.06 1843.57 1214.06 1841.81 1214.06 1841.55 1214.84 1841.15 1215.62 1840.62 1216.53 1854.54 1216.53 1868.45 1216.53 1882.36 1216.53 1882.36 1217.48 1882.36 1218.44 1882.36 1219.39 1890.02 1213.8 1895.57 1204.69 1898.35 1196.88 1902.57 1197.27 1906.8 1197.66 1911.03 1198.05 1910.37 1200.13 1909.57 1202.08 1908.52 1204.17 1918.95 1204.17 1929.39 1204.17 1939.82 1204.17 1939.82 1207.51 1939.82 1210.85 1939.82 1214.19 1938.15 1214.19 1936.48 1214.19 1934.8 1214.19 1932.16 1220.96 1928.46 1226.68 1923.71 1231.5 1929.26 1234.36 1935.33 1236.45 1941.8 1237.62 1939.95 1241.52 1938.11 1245.43 1936.26 1249.33 1928.33 1246.99 1920.93 1243.21 1914.2 1238.66 1907.2 1242.95 1898.74 1246.08 1888.84 1248.03 1887.03 1244.25 1885.22 1240.48 1883.42 1236.71 1891.74 1236.18 1899.01 1234.36 1905.08 1231.5 1902.04 1228.77 1899.14 1225.77 1896.63 1222.78 1894.12 1225.9 1891.34 1228.64 1888.7 1230.85 1886.59 1227.55 1884.48 1224.25 1882.36 1220.96 1882.36 1240.48 1882.1 1246.73 1869.95 1248.16 1887.78 1248.12 1905.61 1248.07 1923.44 1248.03 1923.44 1250.63 1923.44 1253.24 1923.44 1255.84 1893.94 1255.84 1864.44 1255.84 1834.94 1255.84 1834.94 1253.28 1834.94 1250.72 1834.94 1248.16 1844.06 1248.16 1853.17 1248.16 1862.28 1248.16 1861.71 1246.73 1861.14 1245.3 1860.57 1243.86 1849.96 1243.86 1839.34 1243.86 1828.73 1243.86 1828.73 1239.96 1828.73 1236.05 1828.73 1232.15 1826.49 1234.62 1824.11 1236.84 1821.73 1238.4 1819.75 1234.93 1817.77 1231.46 1815.79 1227.98 1822.26 1223.95 1827.81 1217.57 1830.71 1212.5 1831.82 1212.58 1832.92 1212.67 1834.02 1212.76 1834.02 1211.89 1834.02 1211.02 1834.02 1210.15 1829.17 1210.15 1824.33 1210.15 1819.49 1210.15 1819.49 1207.03 1819.49 1203.9 1819.49 1200.78 1824.33 1200.78 1829.17 1200.78 1834.02 1200.78 1834.02 1199.44 1834.02 1198.09 1834.02 1196.75ZM1746.91 1196.75C1751.36 1196.75 1755.81 1196.75 1760.25 1196.75 1760.25 1201.65 1760.25 1206.55 1760.25 1211.45 1770.87 1211.45 1781.48 1211.45 1792.09 1211.45 1792.09 1221.48 1792.09 1231.5 1792.09 1241.52 1787.69 1241.52 1783.28 1241.52 1778.88 1241.52 1778.88 1235.92 1778.88 1230.33 1778.88 1224.73 1772.67 1224.73 1766.46 1224.73 1760.25 1224.73 1760.25 1232.63 1760.25 1240.52 1760.25 1248.42 1769.5 1248.42 1778.75 1248.42 1787.99 1248.42 1786.41 1266.9 1779.8 1282.52 1768.97 1294.63 1776.5 1299.31 1785.35 1303.22 1795.79 1306.21 1793.72 1310.51 1791.65 1314.8 1789.58 1319.1 1778.09 1315.19 1767.78 1309.73 1759.07 1302.96 1749.95 1310.12 1738.59 1316.23 1726.04 1319.75 1723.97 1315.45 1721.9 1311.16 1719.83 1306.86 1730.27 1304.52 1740.57 1300.35 1749.29 1294.37 1740.31 1285.13 1733.57 1274.06 1729.48 1261.18 1727.89 1261.18 1726.31 1261.18 1724.72 1261.18 1723.66 1283.04 1719.57 1304.39 1709.4 1319.49 1706.1 1315.54 1702.79 1311.59 1699.49 1307.64 1708.21 1293.46 1711.78 1274.58 1711.78 1240.22 1711.78 1230.63 1711.78 1221.04 1711.78 1211.45 1723.49 1211.45 1735.2 1211.45 1746.91 1211.45 1746.91 1206.55 1746.91 1201.65 1746.91 1196.75ZM1594.82 1196.75C1599.44 1196.75 1604.07 1196.75 1608.69 1196.75 1608.69 1199.91 1608.69 1203.08 1608.69 1206.25 1619.61 1206.2 1630.53 1206.16 1641.45 1206.12 1641.45 1213.19 1641.45 1220.26 1641.45 1227.33 1644.22 1227.33 1647 1227.33 1649.77 1227.33 1649.77 1231.41 1649.77 1235.49 1649.77 1239.57 1647 1239.57 1644.22 1239.57 1641.45 1239.57 1641.45 1246.6 1641.45 1253.63 1641.45 1260.66 1630.53 1260.66 1619.61 1260.66 1608.69 1260.66 1608.69 1263.61 1608.69 1266.56 1608.69 1269.51 1620.89 1269.51 1633.08 1269.51 1645.28 1269.51 1645.28 1273.32 1645.28 1277.14 1645.28 1280.96 1633.08 1280.96 1620.89 1280.96 1608.69 1280.96 1608.69 1284 1608.69 1287.03 1608.69 1290.07 1622.03 1290.07 1635.37 1290.07 1648.71 1290.07 1648.71 1294.15 1648.71 1298.23 1648.71 1302.31 1635.37 1302.31 1622.03 1302.31 1608.69 1302.31 1608.69 1308.16 1608.69 1314.02 1608.69 1319.88 1604.07 1319.88 1599.44 1319.88 1594.82 1319.88 1594.82 1314.02 1594.82 1308.16 1594.82 1302.31 1582.45 1302.31 1570.07 1302.31 1557.7 1302.31 1557.7 1298.23 1557.7 1294.15 1557.7 1290.07 1570.07 1290.07 1582.45 1290.07 1594.82 1290.07 1594.82 1287.03 1594.82 1284 1594.82 1280.96 1583.94 1280.96 1573.07 1280.96 1562.19 1280.96 1562.19 1277.14 1562.19 1273.32 1562.19 1269.51 1573.07 1269.51 1583.94 1269.51 1594.82 1269.51 1594.82 1266.56 1594.82 1263.61 1594.82 1260.66 1585.04 1260.66 1575.27 1260.66 1565.49 1260.66 1565.49 1256.75 1565.49 1252.85 1565.49 1248.94 1575.27 1248.94 1585.04 1248.94 1594.82 1248.94 1594.82 1245.82 1594.82 1242.69 1594.82 1239.57 1582.84 1239.57 1570.87 1239.57 1558.89 1239.57 1558.89 1235.49 1558.89 1231.41 1558.89 1227.33 1570.87 1227.33 1582.84 1227.33 1594.82 1227.33 1594.82 1224.3 1594.82 1221.26 1594.82 1218.22 1585.22 1218.22 1575.62 1218.22 1566.02 1218.22 1566.02 1214.23 1566.02 1210.24 1566.02 1206.25 1575.62 1206.25 1585.22 1206.25 1594.82 1206.25 1594.82 1203.08 1594.82 1199.91 1594.82 1196.75Z" fill="#FFFFFF" fill-rule="evenodd" fill-opacity="1"/><text fill="#000000" fill-opacity="0" font-family="Arial,Arial_MSFontService,sans-serif" font-size="123.133" direction="ltr" writing-mode="lr-tb" x="1525.34" y="1304.49">津波警報</text><path d="M2513.5 1212.5 2513.5 1305.38" stroke="#FFFFFF" stroke-width="4.58333" stroke-linecap="butt" stroke-linejoin="miter" stroke-miterlimit="8" stroke-opacity="1" fill="none" fill-rule="evenodd"/><path d="M3121.5 1212.5 3121.5 1305.38" stroke="#FFFFFF" stroke-width="4.58333" stroke-linecap="butt" stroke-linejoin="miter" stroke-miterlimit="8" stroke-opacity="1" fill="none" fill-rule="evenodd"/><path d="M2945.97 1272.05C2949.07 1272.05 2952.16 1272.05 2955.25 1272.05 2955.25 1278.68 2955.25 1285.31 2955.25 1291.94 2955.25 1294.62 2955.88 1295.05 2958.02 1295.05 2964 1295.05 2969.98 1295.05 2975.96 1295.05 2979.89 1295.05 2980.69 1294.62 2981.76 1283.23 2984.89 1284.63 2988.01 1286.02 2991.14 1287.42 2988.82 1304.51 2986.05 1306.02 2977.12 1306.02 2969.98 1306.02 2962.84 1306.02 2955.7 1306.02 2948.74 1306.02 2945.97 1304.51 2945.97 1296.88 2945.97 1288.6 2945.97 1280.33 2945.97 1272.05ZM2933.03 1271.51C2935.94 1272.91 2938.86 1274.31 2941.78 1275.7 2940.35 1283.98 2936.42 1295.91 2931.87 1303.55 2929.16 1301.04 2926.45 1298.53 2923.75 1296.02 2928.21 1289.46 2931.69 1279.25 2933.03 1271.51ZM2995.96 1270.44C3000.15 1276.78 3005.6 1287.31 3008.72 1295.16 3005.92 1297.42 3003.13 1299.68 3000.33 1301.93 2997.12 1292.37 2992.3 1283.23 2987.83 1276.24 2990.54 1274.31 2993.25 1272.37 2995.96 1270.44ZM2976.23 1249.58C2976.23 1252.02 2976.23 1254.45 2976.23 1256.89 2982.75 1256.89 2989.26 1256.89 2995.78 1256.89 2995.78 1254.45 2995.78 1252.02 2995.78 1249.58 2989.26 1249.58 2982.75 1249.58 2976.23 1249.58ZM2728.01 1247.65C2734.47 1247.65 2740.93 1247.65 2747.38 1247.65 2747.38 1260.04 2747.38 1272.44 2747.38 1284.84 2751.58 1292.69 2756.67 1294.95 2764.7 1294.95 2764.91 1294.95 2765.12 1294.95 2765.33 1294.95 2780.71 1294.73 2796.09 1294.52 2811.47 1294.3 2810.4 1298.06 2809.33 1301.83 2808.26 1305.59 2793.83 1305.59 2779.4 1305.59 2764.97 1305.59 2756.67 1305.59 2749.35 1303.44 2743.72 1295.16 2740.96 1300.32 2736.67 1305.48 2732.57 1308.92 2730.66 1305.62 2728.76 1302.33 2726.85 1299.03 2730.87 1296.45 2735.25 1292.26 2738.28 1287.21 2738.28 1277.71 2738.28 1268.21 2738.28 1258.72 2734.86 1258.72 2731.44 1258.72 2728.01 1258.72 2728.01 1255.03 2728.01 1251.34 2728.01 1247.65ZM2771.57 1237.54C2772.38 1240.01 2773.36 1242.92 2774.16 1245.82 2778.15 1245.82 2782.14 1245.82 2786.12 1245.82 2787.19 1243.13 2788.18 1240.34 2788.89 1237.54 2783.12 1237.54 2777.35 1237.54 2771.57 1237.54ZM2976.23 1234.96C2976.23 1237.22 2976.23 1239.48 2976.23 1241.73 2982.75 1241.73 2989.26 1241.73 2995.78 1241.73 2995.78 1239.48 2995.78 1237.22 2995.78 1234.96 2989.26 1234.96 2982.75 1234.96 2976.23 1234.96ZM2976.23 1220.23C2976.23 1222.49 2976.23 1224.75 2976.23 1227.01 2982.75 1227.01 2989.26 1227.01 2995.78 1227.01 2995.78 1224.75 2995.78 1222.49 2995.78 1220.23 2989.26 1220.23 2982.75 1220.23 2976.23 1220.23ZM2683.97 1214.75C2686.89 1214.75 2689.8 1214.75 2692.72 1214.75 2692.72 1237.51 2692.72 1260.26 2692.72 1283.01 2689.8 1283.01 2686.89 1283.01 2683.97 1283.01 2683.97 1260.26 2683.97 1237.51 2683.97 1214.75ZM2630.42 1212.39C2647.11 1212.39 2663.8 1212.39 2680.49 1212.39 2680.49 1215.93 2680.49 1219.48 2680.49 1223.03 2672.31 1223.03 2664.13 1223.03 2655.95 1223.03 2653.89 1229.8 2651.21 1236.79 2648.27 1242.81 2654.43 1242.27 2660.32 1241.41 2665.14 1240.55 2663.44 1236.79 2661.75 1233.13 2660.23 1230.23 2662.85 1228.65 2665.47 1227.08 2668.08 1225.5 2671.66 1232.38 2677.37 1244.21 2680.94 1252.7 2678.08 1254.53 2675.23 1256.35 2672.37 1258.18 2671.48 1255.82 2670.49 1253.13 2669.25 1250.33 2666.21 1250.98 2662.73 1251.52 2658.98 1252.05 2658.98 1256.39 2658.98 1260.73 2658.98 1265.06 2664.96 1265.06 2670.94 1265.06 2676.92 1265.06 2676.92 1268.64 2676.92 1272.23 2676.92 1275.81 2670.94 1275.81 2664.96 1275.81 2658.98 1275.81 2658.98 1280.54 2658.98 1285.27 2658.98 1290 2667.01 1288.93 2674.69 1287.64 2680.22 1286.35 2680.19 1290 2680.16 1293.66 2680.13 1297.31 2667.64 1300.43 2645.15 1303.55 2629.97 1304.19 2629.44 1300.36 2628.9 1296.52 2628.36 1292.69 2634.26 1292.69 2641.93 1292.04 2649.79 1291.18 2649.79 1286.06 2649.79 1280.94 2649.79 1275.81 2643.98 1275.81 2638.18 1275.81 2632.38 1275.81 2632.38 1272.23 2632.38 1268.64 2632.38 1265.06 2638.18 1265.06 2643.98 1265.06 2649.79 1265.06 2649.79 1261.16 2649.79 1257.25 2649.79 1253.34 2642.82 1254.1 2635.86 1254.74 2630.33 1254.96 2629.82 1251.27 2629.32 1247.57 2628.81 1243.88 2631.49 1243.88 2634.52 1243.78 2637.56 1243.56 2641.04 1236.79 2644.07 1228.73 2645.86 1223.03 2640.71 1223.03 2635.56 1223.03 2630.42 1223.03 2630.42 1219.48 2630.42 1215.93 2630.42 1212.39ZM2836.32 1211.74C2857.39 1211.74 2878.45 1211.74 2899.52 1211.74 2899.52 1214.32 2899.52 1216.9 2899.52 1219.48 2894.16 1226.15 2885.95 1233.78 2878.9 1239.37 2881.13 1240.59 2883.36 1241.81 2885.59 1243.02 2884.32 1244.46 2883.04 1245.89 2881.76 1247.32 2890.68 1247.32 2899.61 1247.32 2908.53 1247.32 2908.53 1250.48 2908.53 1253.63 2908.53 1256.78 2904.79 1268.29 2898.81 1278.28 2891.22 1285.92 2888.87 1282.94 2886.52 1279.97 2884.17 1276.99 2889.61 1272.05 2894.34 1266.24 2897.38 1258.29 2889.61 1258.29 2881.85 1258.29 2874.08 1258.29 2874.08 1267.89 2874.08 1277.5 2874.08 1287.1 2874.08 1304.94 2872.92 1308.71 2848.28 1308.71 2846.95 1304.66 2845.61 1300.61 2844.27 1296.56 2847.81 1296.56 2851.35 1296.56 2854.89 1296.56 2864.08 1296.45 2864.53 1295.05 2864.53 1288.39 2864.53 1278.36 2864.53 1268.32 2864.53 1258.29 2851.83 1258.29 2839.12 1258.29 2826.42 1258.29 2826.42 1254.63 2826.42 1250.98 2826.42 1247.32 2841.77 1247.32 2857.12 1247.32 2872.47 1247.32 2863.55 1242.81 2852.12 1237.54 2844.36 1234.53 2846.89 1231.88 2849.42 1229.23 2851.94 1226.58 2858.28 1229.05 2864.26 1231.84 2870.24 1234.96 2875.69 1231.2 2881.67 1226.15 2885.24 1222.6 2868.93 1222.6 2852.63 1222.6 2836.32 1222.6 2836.32 1218.98 2836.32 1215.36 2836.32 1211.74ZM2967.39 1210.88C2979.83 1210.88 2992.27 1210.88 3004.7 1210.88 3004.7 1229.41 3004.7 1247.93 3004.7 1266.46 2992.3 1266.46 2979.89 1266.46 2967.48 1266.46 2971.23 1269.9 2975.78 1274.41 2979.27 1278.39 2977.18 1281.08 2975.1 1283.77 2973.02 1286.45 2969.36 1281.94 2964.18 1276.35 2959.45 1272.26 2961.62 1269.86 2963.79 1267.46 2965.97 1265.06 2966.44 1265.49 2966.92 1265.92 2967.39 1266.35 2967.39 1247.86 2967.39 1229.37 2967.39 1210.88ZM2735.78 1209.27C2739.53 1214.32 2744.97 1222.38 2747.92 1227.76 2745.51 1230.23 2743.1 1232.7 2740.69 1235.18 2738.1 1230.55 2732.21 1221.63 2728.37 1216.58 2730.84 1214.14 2733.31 1211.7 2735.78 1209.27ZM2941.51 1207.44C2944.51 1207.44 2947.52 1207.44 2950.52 1207.44 2950.52 1211.31 2950.52 1215.18 2950.52 1219.05 2955.17 1219.02 2959.81 1218.98 2964.45 1218.94 2964.45 1222.49 2964.45 1226.04 2964.45 1229.59 2960.52 1229.59 2956.59 1229.59 2952.67 1229.59 2956.33 1237.43 2961.59 1242.81 2965.88 1246.03 2964.33 1249.69 2962.78 1253.34 2961.24 1257 2957.04 1252.27 2953.38 1245.5 2950.52 1238.51 2950.52 1248.04 2950.52 1257.57 2950.52 1267.1 2947.52 1267.1 2944.51 1267.1 2941.51 1267.1 2941.51 1257.29 2941.51 1247.47 2941.51 1237.65 2938.74 1247.32 2934.9 1255.82 2929.46 1262.91 2927.7 1259.36 2925.95 1255.82 2924.19 1252.27 2930.08 1247 2935.35 1238.94 2938.65 1229.59 2934.64 1229.59 2930.62 1229.59 2926.6 1229.59 2926.6 1226.07 2926.6 1222.56 2926.6 1219.05 2931.57 1219.05 2936.54 1219.05 2941.51 1219.05 2941.51 1215.18 2941.51 1211.31 2941.51 1207.44ZM2775.5 1207.44C2778.54 1207.44 2781.57 1207.44 2784.61 1207.44 2784.61 1209.55 2784.61 1211.67 2784.61 1213.78 2791.51 1213.78 2798.41 1213.78 2805.31 1213.78 2805.31 1216.79 2805.31 1219.8 2805.31 1222.81 2798.41 1222.81 2791.51 1222.81 2784.61 1222.81 2784.61 1224.82 2784.61 1226.83 2784.61 1228.83 2792.97 1228.83 2801.33 1228.83 2809.69 1228.83 2809.69 1231.74 2809.69 1234.64 2809.69 1237.54 2805.91 1237.54 2802.13 1237.54 2798.35 1237.54 2797.55 1240.34 2796.57 1243.24 2795.5 1245.82 2799.69 1245.82 2803.89 1245.82 2808.08 1245.82 2808.08 1248.76 2808.08 1251.7 2808.08 1254.63 2800.26 1254.63 2792.43 1254.63 2784.61 1254.63 2784.61 1256.5 2784.61 1258.36 2784.61 1260.22 2791.54 1260.22 2798.47 1260.22 2805.4 1260.22 2805.4 1262.98 2805.4 1265.74 2805.4 1268.5 2798.47 1268.5 2791.54 1268.5 2784.61 1268.5 2784.61 1270.54 2784.61 1272.59 2784.61 1274.63 2792.64 1274.63 2800.67 1274.63 2808.71 1274.63 2808.71 1277.6 2808.71 1280.58 2808.71 1283.55 2800.67 1283.55 2792.64 1283.55 2784.61 1283.55 2784.61 1286.1 2784.61 1288.64 2784.61 1291.18 2781.6 1291.18 2778.6 1291.18 2775.59 1291.18 2775.59 1288.64 2775.59 1286.1 2775.59 1283.55 2767.88 1283.55 2760.18 1283.55 2752.47 1283.55 2752.47 1280.58 2752.47 1277.6 2752.47 1274.63 2760.18 1274.63 2767.88 1274.63 2775.59 1274.63 2775.59 1272.59 2775.59 1270.54 2775.59 1268.5 2769.04 1268.54 2762.5 1268.57 2755.95 1268.61 2755.95 1265.81 2755.95 1263.02 2755.95 1260.22 2762.5 1260.22 2769.04 1260.22 2775.59 1260.22 2775.59 1258.36 2775.59 1256.5 2775.59 1254.63 2768.03 1254.63 2760.48 1254.63 2752.92 1254.63 2752.92 1251.7 2752.92 1248.76 2752.92 1245.82 2756.96 1245.82 2761.01 1245.82 2765.06 1245.82 2764.25 1243.02 2763.18 1240.12 2762.2 1237.54 2758.42 1237.54 2754.64 1237.54 2750.87 1237.54 2750.87 1234.64 2750.87 1231.74 2750.87 1228.83 2759.11 1228.83 2767.35 1228.83 2775.59 1228.83 2775.59 1226.83 2775.59 1224.82 2775.59 1222.81 2768.87 1222.81 2762.14 1222.81 2755.42 1222.81 2755.42 1219.8 2755.42 1216.79 2755.42 1213.78 2762.14 1213.78 2768.87 1213.78 2775.59 1213.78 2775.56 1211.67 2775.53 1209.55 2775.5 1207.44ZM2700.58 1207.33C2703.67 1207.33 2706.76 1207.33 2709.86 1207.33 2709.86 1235.5 2709.86 1263.66 2709.86 1291.83 2709.86 1306.34 2707.45 1308.92 2690.85 1308.92 2689.63 1305.05 2688.41 1301.18 2687.19 1297.31 2688.23 1297.31 2689.27 1297.31 2690.31 1297.31 2699.77 1297.31 2700.58 1296.88 2700.58 1291.51 2700.58 1263.45 2700.58 1235.39 2700.58 1207.33Z" fill="#FFFFFF" fill-rule="evenodd" fill-opacity="1"/><text fill="#000000" fill-opacity="0" font-family="Arial,Arial_MSFontService,sans-serif" font-size="101.588" direction="ltr" writing-mode="lr-tb" x="2628.36" y="1296.22">到達予想</text><path d="M3253.57 1282.43C3253.57 1285.33 3253.57 1288.23 3253.57 1291.13 3262.14 1291.13 3270.71 1291.13 3279.27 1291.13 3279.27 1288.23 3279.27 1285.33 3279.27 1282.43 3270.71 1282.43 3262.14 1282.43 3253.57 1282.43ZM3223.36 1258.35C3252.23 1258.35 3281.1 1258.35 3309.97 1258.35 3309.97 1269.02 3309.97 1279.7 3309.97 1290.38 3309.97 1306.51 3306.24 1307.26 3288.59 1308.01 3287.41 1305.18 3286.23 1302.35 3285.06 1299.52 3271.26 1299.52 3257.46 1299.52 3243.67 1299.52 3243.67 1291.1 3243.67 1282.68 3243.67 1274.26 3258.87 1274.26 3274.07 1274.26 3289.28 1274.26 3289.28 1281.6 3289.28 1288.95 3289.28 1296.29 3298.59 1296.19 3299.77 1295.22 3299.77 1290.17 3299.77 1282.75 3299.77 1275.33 3299.77 1267.91 3277.7 1267.91 3255.63 1267.91 3233.56 1267.91 3233.56 1281.28 3233.56 1294.65 3233.56 1308.01 3230.16 1308.01 3226.76 1308.01 3223.36 1308.01 3223.36 1291.46 3223.36 1274.9 3223.36 1258.35ZM3244.55 1237.6C3244.55 1239.89 3244.55 1242.19 3244.55 1244.48 3259.23 1244.48 3273.91 1244.48 3288.59 1244.48 3288.59 1242.19 3288.59 1239.89 3288.59 1237.6 3273.91 1237.6 3259.23 1237.6 3244.55 1237.6ZM3234.45 1228.89C3255.86 1228.89 3277.28 1228.89 3298.69 1228.89 3298.69 1237.03 3298.69 1245.16 3298.69 1253.29 3277.28 1253.29 3255.86 1253.29 3234.45 1253.29 3234.45 1245.16 3234.45 1237.03 3234.45 1228.89ZM3374.94 1208.68C3377.59 1214.49 3380.53 1220.18 3383.67 1225.77 3394.46 1224.38 3404.07 1222.66 3411.33 1220.72 3411.99 1224.66 3412.64 1228.6 3413.29 1232.55 3406.04 1234.16 3397.89 1235.56 3389.36 1236.63 3394.66 1244.37 3403.39 1255.55 3413.59 1265.87 3410.71 1268.95 3407.83 1272.03 3404.96 1275.12 3396.82 1268.02 3384.56 1267.05 3373.96 1267.05 3372.65 1267.05 3371.35 1267.05 3370.04 1267.05 3358.37 1267.16 3349.64 1272 3349.64 1278.23 3349.64 1289.84 3367.29 1291.56 3376.61 1291.56 3386.32 1291.56 3396.52 1289.63 3405.94 1287.05 3405.64 1291.49 3405.35 1295.94 3405.05 1300.38 3395.93 1302.74 3386.22 1303.6 3378.18 1303.6 3347.58 1303.6 3338.26 1289.74 3338.26 1278.99 3338.26 1262.75 3357.09 1256.73 3368.86 1256.41 3370.43 1256.41 3371.9 1256.3 3373.37 1256.3 3380.44 1256.3 3387.4 1256.84 3394.27 1259.1 3388.87 1252.65 3383.48 1245.77 3378.28 1238.03 3364.94 1239.32 3351.4 1240.07 3339.04 1240.07 3338.03 1240.07 3337.02 1240.07 3336 1240.07 3335.61 1236.13 3335.22 1232.19 3334.83 1228.25 3338.06 1228.35 3341.2 1228.35 3344.44 1228.35 3353.85 1228.35 3363.37 1227.92 3372.39 1227.06 3369.65 1222.12 3366.9 1216.85 3364.15 1211.15 3367.75 1210.33 3371.35 1209.51 3374.94 1208.68ZM3260.93 1206.42C3264.62 1206.42 3268.32 1206.42 3272.01 1206.42 3272.01 1208.86 3272.01 1211.3 3272.01 1213.73 3284.89 1213.73 3297.78 1213.73 3310.66 1213.73 3310.66 1217.14 3310.66 1220.54 3310.66 1223.95 3281.43 1223.95 3252.2 1223.95 3222.97 1223.95 3222.97 1220.54 3222.97 1217.14 3222.97 1213.73 3235.62 1213.73 3248.28 1213.73 3260.93 1213.73 3260.93 1211.3 3260.93 1208.86 3260.93 1206.42Z" fill="#FFFFFF" fill-rule="evenodd" fill-opacity="1"/><text fill="#000000" fill-opacity="0" font-family="Arial,Arial_MSFontService,sans-serif" font-size="101.588" direction="ltr" writing-mode="lr-tb" x="3222.97" y="1295.31">高さ</text></g></g></svg>