<svg width="600" height="52" viewBox="0 0 600 52" fill="none" xmlns="http://www.w3.org/2000/svg">
<mask id="path-1-inside-1_10_206" fill="white">
<path d="M0 0H600V52H0V0Z"/>
</mask>
<path d="M0 0H600V52H0V0Z" fill="white"/>
<path d="M600 52V51H0V52V53H600V52Z" fill="#C8C8C8" mask="url(#path-1-inside-1_10_206)"/>
<rect x="306" y="6" width="180" height="40" fill="#FEDC00"/>
<rect x="492" y="6" width="103" height="40" fill="#DE080A"/>
<path d="M513.557 40.108V35.32C516.473 37.408 519.425 38.2 521.981 38.2C526.589 38.2 529.361 35.536 529.361 32.152C529.361 29.452 527.309 26.932 523.061 26.932H522.773C522.377 26.932 520.901 27.004 520.289 27.076V23.188C521.225 23.26 522.305 23.26 522.665 23.26C526.121 23.188 528.101 20.812 528.101 18.616C528.101 16.708 526.625 14.62 522.233 14.62C520.145 14.62 517.589 15.196 514.889 16.852V12.352C517.409 11.236 520.037 10.804 522.341 10.804C530.369 10.804 532.385 15.268 532.385 18.472C532.385 21.244 530.909 23.908 528.497 24.952C532.025 26.032 533.825 29.092 533.825 32.332C533.825 37.156 530.081 42.232 521.621 42.232C518.849 42.232 515.933 41.584 513.557 40.108ZM564.214 41.584H560.182V27.868C560.182 25.96 558.814 24.448 556.582 24.448C554.854 24.448 553.306 25.6 552.802 27.364V41.584H548.806V27.868C548.806 25.96 547.51 24.448 545.278 24.448C543.478 24.448 541.966 25.708 541.57 27.58V41.584H537.538V21.604H541.57V22.432C542.686 21.604 544.09 21.028 545.674 21.028C548.446 21.028 550.354 22.036 551.47 23.44C552.73 22.072 554.71 21.028 556.978 21.028C562.054 21.028 564.214 24.376 564.214 27.508V41.584Z" fill="white"/>
</svg>
