<svg width="390" height="179" xmlns="http://www.w3.org/2000/svg" xmlns:xlink="http://www.w3.org/1999/xlink" xml:space="preserve" overflow="hidden"><g transform="translate(-2827 -224)"><g><path d="M2899.76 300.506C2899.76 307.413 2899.76 314.32 2899.76 321.227 2922.3 321.227 2944.84 321.227 2967.38 321.227 2967.38 314.32 2967.38 307.413 2967.38 300.506 2944.84 300.506 2922.3 300.506 2899.76 300.506ZM2886.7 254.549C2920.03 254.549 2953.35 254.549 2986.67 254.549 2986.67 259.109 2986.67 263.67 2986.67 268.23 2957.7 268.23 2928.73 268.23 2899.76 268.23 2899.76 274.428 2899.76 280.627 2899.76 286.825 2926.54 286.825 2953.31 286.825 2980.08 286.825 2980.08 302.853 2980.08 318.88 2980.08 334.907 2953.31 334.907 2926.54 334.907 2899.76 334.907 2899.76 341.637 2899.76 348.367 2899.76 355.097 2929.95 355.097 2960.14 355.097 2990.33 355.097 2990.33 359.657 2990.33 364.217 2990.33 368.777 2960.14 368.777 2929.95 368.777 2899.76 368.777 2899.76 371.08 2899.76 373.382 2899.76 375.684 2895.41 375.684 2891.06 375.684 2886.7 375.684 2886.7 335.306 2886.7 294.927 2886.7 254.549ZM3091.07 250.299C3095.42 250.299 3099.77 250.299 3104.13 250.299 3104.13 261.323 3104.13 272.347 3104.13 283.372 3120.11 283.372 3136.1 283.372 3152.09 283.372 3152.09 288.153 3152.09 292.935 3152.09 297.717 3136.55 297.717 3121.01 297.717 3105.47 297.717 3112.43 326.539 3131.95 350.315 3155.39 362.136 3152.66 366.608 3149.94 371.08 3147.21 375.551 3123.9 361.871 3108.15 342.744 3098.27 316.179 3089.72 343.408 3071.41 365.191 3048.59 375.95 3045.54 371.434 3042.49 366.918 3039.43 362.402 3069.09 350.581 3085.82 325.078 3089.97 297.717 3074.22 297.717 3058.48 297.717 3042.73 297.717 3042.73 292.935 3042.73 288.153 3042.73 283.372 3058.84 283.372 3074.95 283.372 3091.07 283.372 3091.07 272.347 3091.07 261.323 3091.07 250.299Z" fill="#FFFFFF" fill-rule="evenodd" fill-opacity="1"/><text fill="#000000" fill-opacity="0" font-family="Arial,Arial_MSFontService,sans-serif" font-size="125.651" direction="ltr" writing-mode="lr-tb" x="2886.7" y="360.243">巨大</text></g></g></svg>