<svg width="390" height="179" xmlns="http://www.w3.org/2000/svg" xmlns:xlink="http://www.w3.org/1999/xlink" xml:space="preserve" overflow="hidden"><g transform="translate(-2415 -224)"><g><path d="M2512.65 344.304C2512.65 347.894 2512.65 351.484 2512.65 355.075 2523.22 355.075 2533.8 355.075 2544.38 355.075 2544.38 351.484 2544.38 347.894 2544.38 344.304 2533.8 344.304 2523.22 344.304 2512.65 344.304ZM2475.34 314.52C2510.99 314.52 2546.64 314.52 2582.29 314.52 2582.29 327.728 2582.29 340.936 2582.29 354.144 2582.29 374.088 2577.69 375.019 2555.89 375.95 2554.43 372.448 2552.98 368.947 2551.53 365.446 2534.49 365.446 2517.45 365.446 2500.41 365.446 2500.41 355.03 2500.41 344.615 2500.41 334.199 2519.19 334.199 2537.96 334.199 2556.73 334.199 2556.73 343.285 2556.73 352.371 2556.73 361.457 2568.24 361.324 2569.69 360.127 2569.69 353.878 2569.69 344.703 2569.69 335.529 2569.69 326.354 2542.44 326.354 2515.19 326.354 2487.94 326.354 2487.94 342.886 2487.94 359.418 2487.94 375.95 2483.74 375.95 2479.54 375.95 2475.34 375.95 2475.34 355.473 2475.34 334.997 2475.34 314.52ZM2501.5 288.858C2501.5 291.695 2501.5 294.531 2501.5 297.368 2519.63 297.368 2537.76 297.368 2555.89 297.368 2555.89 294.531 2555.89 291.695 2555.89 288.858 2537.76 288.858 2519.63 288.858 2501.5 288.858ZM2489.03 278.088C2515.47 278.088 2541.92 278.088 2568.36 278.088 2568.36 288.149 2568.36 298.21 2568.36 308.271 2541.92 308.271 2515.47 308.271 2489.03 308.271 2489.03 298.21 2489.03 288.149 2489.03 278.088ZM2716.17 266.254C2732.52 283.939 2743.54 322.232 2743.54 347.097 2738.82 349.224 2734.09 351.352 2729.37 353.479 2729.25 329.412 2721.01 291.784 2703.93 272.105 2708.01 270.155 2712.09 268.205 2716.17 266.254ZM2639.74 265.723C2644.71 265.9 2649.67 266.077 2654.64 266.254 2653.43 275.562 2652.82 286.598 2652.82 297.235 2652.82 306.941 2653.67 350.421 2667.72 350.421 2673.53 350.421 2676.92 343.241 2683.34 326.221 2686.53 331.363 2689.72 336.504 2692.91 341.645 2686.49 356.138 2678.5 367.307 2666.99 367.307 2640.1 367.307 2639.01 314.653 2639.01 289.922 2639.01 281.811 2639.26 273.7 2639.74 265.723ZM2521.73 250.299C2526.29 250.299 2530.85 250.299 2535.42 250.299 2535.42 253.313 2535.42 256.326 2535.42 259.34 2551.32 259.34 2567.23 259.34 2583.14 259.34 2583.14 263.551 2583.14 267.761 2583.14 271.972 2547.04 271.972 2510.95 271.972 2474.86 271.972 2474.86 267.761 2474.86 263.551 2474.86 259.34 2490.48 259.34 2506.11 259.34 2521.73 259.34 2521.73 256.326 2521.73 253.313 2521.73 250.299Z" fill="#FFFFFF" fill-rule="evenodd" fill-opacity="1"/><text fill="#000000" fill-opacity="0" font-family="Arial,Arial_MSFontService,sans-serif" font-size="125.651" direction="ltr" writing-mode="lr-tb" x="2474.86" y="360.243">高い</text></g></g></svg>