<svg width="390" height="179" xmlns="http://www.w3.org/2000/svg" xmlns:xlink="http://www.w3.org/1999/xlink" xml:space="preserve" overflow="hidden"><g transform="translate(-2002 -224)"><g><path d="M2200.86 288.548C2209.49 288.548 2215.43 292.652 2218.9 298.367 2222.82 292.798 2228.98 288.548 2236.04 288.548 2251.84 288.548 2258.56 302.177 2258.56 314.927 2258.56 334.027 2258.56 353.128 2258.56 372.228 2254.38 372.228 2250.19 372.228 2246.01 372.228 2246.01 353.616 2246.01 335.004 2246.01 316.393 2246.01 308.625 2241.75 302.47 2234.81 302.47 2229.43 302.47 2224.61 307.16 2223.04 314.341 2223.04 333.637 2223.04 352.932 2223.04 372.228 2218.9 372.228 2214.75 372.228 2210.61 372.228 2210.61 353.616 2210.61 335.004 2210.61 316.393 2210.61 308.625 2206.57 302.47 2199.63 302.47 2194.03 302.47 2189.32 307.6 2188.09 315.22 2188.09 334.223 2188.09 353.225 2188.09 372.228 2183.91 372.228 2179.72 372.228 2175.54 372.228 2175.54 345.116 2175.54 318.005 2175.54 290.893 2179.72 290.893 2183.91 290.893 2188.09 290.893 2188.09 292.016 2188.09 293.14 2188.09 294.264 2191.56 290.893 2195.93 288.548 2200.86 288.548ZM2102.79 250.299C2112.27 250.299 2121.76 250.299 2131.24 250.299 2131.24 290.991 2131.24 331.683 2131.24 372.374 2126.61 372.326 2121.98 372.277 2117.35 372.228 2117.35 337.007 2117.35 301.786 2117.35 266.566 2112.5 266.566 2107.64 266.566 2102.79 266.566 2102.79 261.143 2102.79 255.721 2102.79 250.299Z" fill="#0D0D0D" fill-rule="evenodd" fill-opacity="1"/><text fill="#000000" fill-opacity="0" font-family="Arial,Arial_MSFontService,sans-serif" font-size="122.076" direction="ltr" writing-mode="lr-tb" x="2102.79" y="357.115">1m</text></g></g></svg>