<svg width="600" height="52" viewBox="0 0 600 52" fill="none" xmlns="http://www.w3.org/2000/svg">
<rect width="600" height="52" fill="white"/>
<rect x="306" y="6" width="180" height="40" fill="#FEDC00"/>
<rect x="492" y="6" width="103" height="40" fill="#FEDC00"/>
<path d="M526.877 41.62L522.413 41.584V15.628H517.733V11.632H526.877V41.62ZM564.214 41.584H560.182V27.868C560.182 25.96 558.814 24.448 556.582 24.448C554.854 24.448 553.306 25.6 552.802 27.364V41.584H548.806V27.868C548.806 25.96 547.51 24.448 545.278 24.448C543.478 24.448 541.966 25.708 541.57 27.58V41.584H537.538V21.604H541.57V22.432C542.686 21.604 544.09 21.028 545.674 21.028C548.446 21.028 550.354 22.036 551.47 23.44C552.73 22.072 554.71 21.028 556.978 21.028C562.054 21.028 564.214 24.376 564.214 27.508V41.584Z" fill="#1E1E1E"/>
</svg>
