<svg width="390" height="179" xmlns="http://www.w3.org/2000/svg" xmlns:xlink="http://www.w3.org/1999/xlink" xml:space="preserve" overflow="hidden"><g transform="translate(-2827 -421)"><g><path d="M2859.74 452.95C2869.23 452.95 2878.71 452.95 2888.2 452.95 2888.2 492.669 2888.2 532.388 2888.2 572.107 2883.57 572.059 2878.94 572.012 2874.31 571.964 2874.31 537.585 2874.31 503.207 2874.31 468.828 2869.45 468.828 2864.6 468.828 2859.74 468.828 2859.74 463.535 2859.74 458.242 2859.74 452.95Z" fill="#FFFFFF" fill-rule="evenodd" fill-opacity="1"/><text fill="#000000" fill-opacity="0" font-family="Arial,Arial_MSFontService,sans-serif" font-size="119.157" direction="ltr" writing-mode="lr-tb" x="2859.74" y="557.212">1</text><path d="M2947.95 465.681C2930.92 465.681 2927.11 492.86 2927.11 512.314 2927.11 531.768 2930.92 558.661 2947.95 558.661 2964.98 558.661 2968.9 531.768 2968.9 512.314 2968.9 492.86 2964.98 465.681 2947.95 465.681ZM2947.95 449.946C2975.51 449.946 2983.02 483.419 2983.02 512.457 2983.02 541.209 2975.4 574.825 2947.95 574.825 2920.5 574.825 2913 541.209 2913 512.457 2913 483.419 2920.39 449.946 2947.95 449.946Z" fill="#FFFFFF" fill-rule="evenodd" fill-opacity="1"/><text fill="#000000" fill-opacity="0" font-family="Arial,Arial_MSFontService,sans-serif" font-size="124.879" direction="ltr" writing-mode="lr-tb" x="2913" y="559.215">0</text><path d="M3026.64 490.285C3035.27 490.285 3041.21 494.29 3044.68 499.869 3048.6 494.433 3054.77 490.285 3061.82 490.285 3077.62 490.285 3084.34 503.588 3084.34 516.033 3084.34 534.677 3084.34 553.32 3084.34 571.964 3080.16 571.964 3075.98 571.964 3071.8 571.964 3071.8 553.797 3071.8 535.63 3071.8 517.463 3071.8 509.882 3067.54 503.874 3060.59 503.874 3055.21 503.874 3050.4 508.452 3048.83 515.461 3048.83 534.295 3048.83 553.13 3048.83 571.964 3044.68 571.964 3040.54 571.964 3036.39 571.964 3036.39 553.797 3036.39 535.63 3036.39 517.463 3036.39 509.882 3032.36 503.874 3025.41 503.874 3019.81 503.874 3015.1 508.881 3013.87 516.319 3013.87 534.867 3013.87 553.416 3013.87 571.964 3009.69 571.964 3005.51 571.964 3001.32 571.964 3001.32 545.5 3001.32 519.037 3001.32 492.573 3005.51 492.573 3009.69 492.573 3013.87 492.573 3013.87 493.67 3013.87 494.767 3013.87 495.864 3017.35 492.573 3021.71 490.285 3026.64 490.285Z" fill="#FFFFFF" fill-rule="evenodd" fill-opacity="1"/><text fill="#000000" fill-opacity="0" font-family="Arial,Arial_MSFontService,sans-serif" font-size="81.6792" direction="ltr" writing-mode="lr-tb" x="3001.32" y="561.754">m</text><path d="M3150.82 529.05C3150.82 533.903 3150.82 538.757 3150.82 543.61 3157.04 543.61 3163.26 543.61 3169.48 543.61 3169.48 538.757 3169.48 533.903 3169.48 529.05 3163.26 529.05 3157.04 529.05 3150.82 529.05ZM3142.18 518.461C3154.16 518.461 3166.14 518.461 3178.12 518.461 3178.12 530.411 3178.12 542.36 3178.12 554.309 3166.14 554.309 3154.16 554.309 3142.18 554.309 3142.18 542.36 3142.18 530.411 3142.18 518.461ZM3141.32 475.885C3154.04 475.885 3166.77 475.885 3179.5 475.885 3179.5 480.15 3179.5 484.415 3179.5 488.68 3179.5 512.174 3177.77 515.042 3162.22 515.042 3161.07 511.439 3159.92 507.836 3158.77 504.233 3160.29 504.233 3161.82 504.233 3163.35 504.233 3170.17 504.012 3170.86 502.468 3170.86 492.32 3170.86 490.335 3170.86 488.349 3170.86 486.364 3167.49 486.364 3164.12 486.364 3160.75 486.364 3159.63 498.718 3155.23 510.189 3145.03 517.579 3143.13 514.307 3141.23 511.034 3139.33 507.762 3147.8 502.468 3150.91 495.409 3151.94 486.364 3148.4 486.364 3144.86 486.364 3141.32 486.364 3141.32 482.871 3141.32 479.378 3141.32 475.885ZM3116.7 471.584C3119.63 471.584 3122.57 471.584 3125.51 471.584 3125.51 475.518 3125.51 479.452 3125.51 483.386 3129.37 483.386 3133.23 483.386 3137.08 483.386 3137.08 487.062 3137.08 490.739 3137.08 494.416 3133.23 494.416 3129.37 494.416 3125.51 494.416 3125.51 498.497 3125.51 502.578 3125.51 506.659 3130.06 506.659 3134.61 506.659 3139.16 506.659 3139.16 510.299 3139.16 513.939 3139.16 517.579 3134.75 517.579 3130.35 517.579 3125.94 517.579 3125.94 521.991 3125.94 526.403 3125.94 530.815 3129.8 530.815 3133.66 530.815 3137.52 530.815 3137.52 534.455 3137.52 538.095 3137.52 541.735 3133.66 541.735 3129.8 541.735 3125.94 541.735 3125.94 547.286 3125.94 552.838 3125.94 558.39 3130.09 560.486 3135.01 561.479 3140.71 561.479 3141.03 561.479 3141.35 561.479 3141.66 561.479 3155.23 561.258 3168.79 561.037 3182.35 560.817 3181.29 564.788 3180.22 568.758 3179.16 572.729 3167.12 572.729 3155.08 572.729 3143.04 572.729 3126.46 572.729 3117.99 567.766 3110.91 555.743 3110.13 562.802 3108.92 569.42 3107.28 575.597 3104.83 572.582 3102.38 569.567 3099.94 566.552 3103.31 555.633 3104.51 541.404 3104.51 527.065 3104.51 526.072 3104.51 525.079 3104.51 524.087 3107.16 524.528 3109.81 524.969 3112.46 525.41 3112.46 531.146 3112.38 536.661 3112.03 542.066 3113.59 545.706 3115.31 548.684 3117.3 551.221 3117.3 540.007 3117.3 528.793 3117.3 517.579 3112.23 517.579 3107.16 517.579 3102.1 517.579 3102.1 513.939 3102.1 510.299 3102.1 506.659 3106.96 506.659 3111.83 506.659 3116.7 506.659 3116.7 502.578 3116.7 498.497 3116.7 494.416 3112.49 494.416 3108.29 494.416 3104.08 494.416 3104.08 490.739 3104.08 487.062 3104.08 483.386 3108.29 483.386 3112.49 483.386 3116.7 483.386 3116.7 479.452 3116.7 475.518 3116.7 471.584Z" fill="#FFFFFF" fill-rule="evenodd" fill-opacity="1"/><text fill="#000000" fill-opacity="0" font-family="Arial,Arial_MSFontService,sans-serif" font-size="104.013" direction="ltr" writing-mode="lr-tb" x="3099.94" y="562.595">超</text></g></g></svg>