<?xml version="1.0"?>
<svg xmlns="http://www.w3.org/2000/svg" version="1.2" baseProfile="tiny" width="800" height="605" viewBox="0 0 800 605" stroke-linecap="round" stroke-linejoin="round">
<g id="layer1" fill="none" stroke="black" stroke-width="1">
<path d="M 525.52 2.17 526.48 2.66 526.82 3.76 527.72 4.54 528.75 4.91 529.65 6.67 530.49 7.27 534.65 9.4 539.2 13.87 544.01 18.02 546.98 20.35 547.79 20.41 547.99 21.19 548.95 21.7 549.44 23.32 550.74 24.29 551.22 25.15 551.08 25.87 551.92 26.72 552.9 27.18 553.97 29.05 554.55 29.24 557.03 32.18 558.41 33.1 559.21 33.91 560.97 34.92 562.28 36.07 563.14 36.47 567.12 40.19 571.19 42.49 575.78 44.8 576.55 45.54 580.74 47.5 581.39 47.99 581.72 48.86 583.54 49.96 587.66 51.6 594.55 53.95 598.41 55.05 603.26 56.23 606.05 56.76 609.4 57.25 610.38 57.15 611.75 57.65 615.28 58.13 616.54 57.84 616.82 58.8 616.73 60.59 618.08 61.44 617.98 61.99 618.52 62.88 619.47 63.35 622.38 64.27 625.61 64.9 630.46 65.39 632.74 65.43 636.03 65.19 638.02 64.84 639.37 64.15 640.1 63.18 641.34 62.72 642.7 61.83 643.44 60.53 643.93 60.58 645.18 59.57 646.32 58.97 646.41 58.43 647.72 57.79 650.72 56.01 651.05 55.63 653.59 54.47 654.28 53.67 654.92 52.38 658.1 49.84 658.4 49.03 659.34 48.71" stroke="#1EB4E6" stroke-width="4.58333" stroke-linecap="round" stroke-linejoin="round" stroke-miterlimit="10" stroke-opacity="1"/>
<path d="M 350.58 429.01 348.61 429.32 343.57 430.39 338.41 431.86 336.96 432.35 335.03 432.34 332.8 432.8 331.92 432.8" stroke="#1EB4E6" stroke-width="4.58333" stroke-linecap="round" stroke-linejoin="round" stroke-miterlimit="10" stroke-opacity="1"/>
<path d="M 160.48 497.89 160.16 497.77 158.25 498.38 157.18 497.06 154.82 496.89 154.96 497.62 153.39 498.69 153.1 497.31 153.96 497.31 154.98 496.48 154.35 495.17 153.73 494.51 153.81 492.26 153.08 491.38 153.58 490.2 154.35 489.51 153.04 489.34 152.42 489.72 151.72 488.66 152.24 487.63 152.68 487.63 153.81 488.43 154.72 487.97 154.47 486.91 155.85 486.12 155.87 485.63 154.48 484.32 153.65 484.06 153.65 483.48 155.38 482.55 154.16 482.18 153.02 482.32 151.28 482.89 149.68 482.23 150.73 480.95 149.98 480.48 149.59 479.55 150.24 479.21 149.82 478.4 150.7 477.66 150.47 476.75 149.49 476.66 148.96 475.95 148.39 476.23 146.67 476.2 145.65 477.24 144.65 477.47 143.93 478.09 141.82 478.61 139.52 480.48 139.25 479.46 137.25 480.03 135.58 481.31 135.12 481.32" stroke="#1EB4E6" stroke-width="4.58333" stroke-linecap="round" stroke-linejoin="round" stroke-miterlimit="10" stroke-opacity="1"/>
<path d="M 135.12 481.49 137.89 479.36 139.44 478.49 140.6 479.01 141.25 478.55 141.32 477.51 142.21 477.28 143.4 477.54 143.73 476.84 144.98 477.07 145 476.59 146.19 475.84 146.65 475.84 148.44 474.94 150.13 473.93 151.05 473.58 152.55 471.6 154.57 470.23 157.64 469.31 160.53 467.35 161.33 465.68 162.12 465.08 161.73 464.01 161.85 462.88 161.64 462.2 162.54 461.42 162.12 460.52 162.55 459.34 163.38 459.49 164.3 459.16 164.82 457.7 164.91 455.8 166.09 455.27 168.33 453.52 170.64 453.17 171.24 451.96 170.93 451.1 171.55 450.25 173.05 451.09 174.21 453.08 174.84 453.22 176.62 456.65 177.92 458.01 179.18 458.53 181.04 457.96 183.23 457.57 184.84 456.43 186.14 456.29 186.56 455.89 187.57 456.05 187.97 456.49 190.11 456.05 191.8 456.29 193.25 456.87 194.92 456.19 195.67 455.16 196.21 455.16 197.51 453.95 M 161.79 458.56 161.88 459.39 161.1 459.57 161.42 460.4 160.66 460.63 161.31 458.78 161.79 458.56 M 156.69 455.89 155.98 456.91 155.6 456.2 156.69 455.89 M 159.98 454.95 159.83 457.38 157.8 457.55 157.68 456.86 158.59 455.94 159.08 455.94 159.98 454.95 M 175.41 447.98 176.65 448.14 177.43 449.45 175.33 451.44 174.79 450.94 174.69 450.2 175.5 449.64 175.27 448.92 175.41 447.98 M 178.18 446.16 178.22 446.93 177 447.98 176.28 446.76 178.18 446.16 M 179.94 444.65 180.46 445.41 179.2 446.19 179.16 445.24 179.94 444.65 M 175.94 444.45 175.91 444.45 M 182.96 444.19 183.27 444.77 182.15 445.55 181.76 445.09 182.96 444.19 M 174.4 443.88 175.1 444.15 175.83 445.49 175.91 447.25 173.97 447.43 172.31 448.1 171.84 447.43 172.56 446.74 173.57 446.82 173.72 446.12 173.18 444.4 174.4 443.88" stroke="#1EB4E6" stroke-width="4.58333" stroke-linecap="round" stroke-linejoin="round" stroke-miterlimit="10" stroke-opacity="1"/>
<path d="M 331.89 432.88 333.59 429.94 334.45 429.61 335.26 430.54 335.93 430.68 336.88 429.91 337.92 429.82 339.36 428.98 340.26 428.93 340.4 428.13 342.45 426.87 343.38 427.13 343.85 426.79 343.87 425.29 343.38 424.98 343.09 423.76 341.2 423.93 340 423.49 339.5 424.05 338.84 423.95 338.59 424.92 336.99 424.62 336.16 424.83 335.39 424.52 334.71 425.09 334.25 424.66 332.84 425.12 332.22 425.03 330.86 423.53 329.84 423.25 329.49 421.99 330.01 421.31 329.55 420.95 328.51 422.23 327.88 425.34 329.35 426.6 329.84 426.75 330.2 428.12 328.98 428.07 326.85 427.27 325.67 426.49 325.02 425.64 325.58 424.4 326 422.65 325.61 421.7 324.98 421.08 324.45 421.18 324.24 419.61 324.4 418.12 324.17 417.58 325.09 416.06 326.9 413.48 326.33 412.68 325.55 414.02 325.05 413.91 325.23 412.97 324.47 412.99 324.56 414.27 323.24 414.22 323.13 415.68 322 415.43 321.39 414.82 320.5 415.25 319.34 415.45 317.53 416.52 317.28 418 317.35 420.04 316.73 421.08 315.08 423.17 313.72 424.63 312.8 426.26 312.39 428.16 312.48 428.68 313.5 429.25 313.53 430.54 313.3 431.19 315.03 431.95 316.6 432.16 317.35 432.49 317.88 433.38 M 323.59 421.08 324.33 422.23 323.62 422.34 323.59 421.08 M 324.59 414.31 324.91 415.06 323.79 415.2 323.76 414.31 324.59 414.31" stroke="#1EB4E6" stroke-width="4.58333" stroke-linecap="round" stroke-linejoin="round" stroke-miterlimit="10" stroke-opacity="1"/>
<path d="M 439.96 515.61 440.83 516.25 439.8 516.48 439.96 515.61 M 440.02 488.63 440.65 488.73 442.31 490.16 443.37 490.29 443.87 491 443.88 491.77 443.19 491.89 442.39 492.59 441.45 492.41 440.82 491.9 440.75 491.11 439.92 490.83 439.21 489.7 439.19 489.15 440.02 488.63 M 433.83 459.41 434.41 459.75 434.93 460.68 434.51 461.32 432.87 461.03 432.83 460.13 433.83 459.41 M 431.01 450.61 432.06 451.14 432.3 451.82 432.21 452.81 430.86 453.67 429.02 453.48 428.7 452.43 429.49 451.36 429.44 450.8 431.01 450.61 M 415.6 445.92 416.68 446.41 416.85 447.38 416.16 447.44 415.09 448.25 415.02 446.81 415.6 445.92 M 420.99 438.52 421.46 439.44 420.93 440.15 420.69 442.49 419.93 442.15 419.51 441.19 419.93 440.7 420.05 439.75 420.88 439.15 420.99 438.52 M 424.22 424.05 426.24 424.54 427.09 425.11 427.49 426.07 427.73 428.02 427.3 428.8 425.59 428.59 423.88 427.21 424.04 426.26 423.81 424.65 424.22 424.05" stroke="#1EB4E6" stroke-width="4.58333" stroke-linecap="round" stroke-linejoin="round" stroke-miterlimit="10" stroke-opacity="1"/>
<path d="M 44.39 461.03 45.17 461.55 47.1 461.87 46.41 463.28 46.76 464.14 47.65 464.76 47.6 465.74 45.74 465.98 44.82 467.2 43.31 466.36 43.61 465.97 42.14 465.38 42.6 463.42 43.58 463.34 43.06 462.5 43.29 461.75 44.39 461.03 M 31.76 443.68 31.79 444.4 30.84 445.01 30.49 444.14 31.76 443.68 M 24.77 442.61 25.65 442.9 25.44 443.89 27.15 443.66 27.92 443.05 28.68 443.5 28.59 444.55 30 443.88 30.58 444.74 29.71 444.8 29.09 446.08 29.51 446.74 28.5 447.33 28.18 448.17 28.38 448.87 27.72 449.61 27.72 450.37 26.66 451.34 25.29 451.9 24.96 451.43 23.45 451.03 23.76 447.02 24.38 445.09 24.41 443.33 24.77 442.61 M 34.37 427.84 35 428.26 35.93 429.54 36.01 430.29 35.58 431.28 34.77 431.4 35.55 432.32 35.12 434 33.88 435.69 32.86 436.44 31.4 438.04 31.83 438.76 31.57 439.39 31.53 440.75 32.17 441.49 31.96 442.24 31.21 442.49 31.59 443.16 30.56 444.03 29.95 443.54 30.58 442.12 29.51 441.7 28.91 442.3 28.47 441.09 27.56 441.7 25.88 441.77 26.1 441.2 27.03 441.17 27.58 440.57 27.34 438.82 27.64 438.18 27.44 437.31 27.99 436.63 28.8 435 29.57 434.49 28.33 433.02 29.2 430.97 29.26 430.19 30.79 430.09 31.59 430.35 33.16 428.58 34.37 427.84" stroke="#1EB4E6" stroke-width="4.58333" stroke-linecap="round" stroke-linejoin="round" stroke-miterlimit="10" stroke-opacity="1"/>
<path d="M 480.63 343 480.53 344.18 479.62 344.63 478.76 346.13 478.09 347.76 478.08 348.64 477.58 349.54 477.55 350.77 476.65 351.48 476.13 352.66 475.09 354.23 474.47 355.69 474.26 356.84 473.37 358.19 473.34 359.44 474.01 359.91 473.28 360.44 473.53 361.59 473.99 361.89 472.4 364.65 471.29 365.64 471.38 367.46 472.12 370.71 473.27 373.51 475.25 377.24 476.31 378.35 477.23 380.05 478.56 381.91 478.57 382.2 480.69 385 482.04 386.53 482.95 387.03" stroke="#1EB4E6" stroke-width="4.58333" stroke-linecap="round" stroke-linejoin="round" stroke-miterlimit="10" stroke-opacity="1"/>
<path d="M 174.14 375.59 175.39 375.76 175.66 376.56 174.36 376.82 174.14 375.59 M 178.47 372.15 179.34 372.92 179.21 374 178.59 373.76 177.85 374.95 176.71 375.24 177.13 374.02 176.55 373.03 177.73 372.27 178.47 372.15 M 176.74 371.26 177.6 371.6 177.2 372.12 175.67 372.52 176.26 373.61 176.03 374.29 174.87 374.38 174.2 373.32 173.06 373.61 173.74 374.65 171.85 374.33 171.9 373.75 173.43 372.3 174.5 372.33 174.48 371.53 176.2 371.77 176.74 371.26 M 185.09 363.12 185.79 363.93 186.57 364.11 187.06 364.68 189.06 365.97 188.79 366.99 189 367.79 188.7 368.72 187.3 368.89 187.48 370.2 185.93 369.92 185.04 370.2 183.32 370.23 183.48 369.66 181.36 368.42 181.65 367.21 181.05 367.04 181.79 365.13 182.36 365.01 183.27 363.92 184.45 363.95 185.09 363.12" stroke="#1EB4E6" stroke-width="4.58333" stroke-linecap="round" stroke-linejoin="round" stroke-miterlimit="10" stroke-opacity="1"/>
<path d="M 195.44 439.71 195.53 440.67 194.46 440.47 195.44 439.71 M 210.26 439.07 210.46 439.05 M 213.7 435.94 214.33 435.61 M 226.02 427.14 225.76 426.74 224.34 426.68 223.95 427.26 222.99 427.41 222.4 426.79 221.57 426.83 221.47 427.58 222.36 427.44 223.03 427.96 220.8 429.93 220.15 429.99 220.36 430.99 219.18 431.29 218.83 431.95 218.11 432.38 216.71 432.68 215.53 432.47 215.04 431.61 213.27 431.4 212.37 432.15 214.42 431.98 215 432.42 214.52 433.7 213.23 434.53 211.81 434.97 211.44 436.15 210.82 436.91 210.83 437.79 208.77 437.59 208.19 437.14 206.71 436.94 205.9 437.39 206.11 438.29 204.78 438 203.96 437.04 201.77 436.73 201.84 434.96 201 435.58 199.54 435.71 197.47 436.21 197.39 437 196.16 437.11 194.72 437.77 193.8 437.75 193.35 438.17 192.05 437.65 191.68 436.64 M 225.11 426.81 226.08 427.46 224.47 427.75 224.41 427.12 225.11 426.81" stroke="#1EB4E6" stroke-width="4.58333" stroke-linecap="round" stroke-linejoin="round" stroke-miterlimit="10" stroke-opacity="1"/>
<path d="M 515.46 201.88 516.94 203.53 516.94 203.88 518.31 205.12 518.95 206 519.06 206.95 520.43 208.63 521.32 210.32 521.26 210.89 520.36 211.1 520.11 212.29 521.31 212.52 522.44 213.11 522.9 214.23 521.67 214.49 521.17 215.19 521.38 216.62 522.04 217.33 523.16 217.71 523.97 218.94 525.39 219.17 526.23 220.35 526.28 221.66 525.53 222.24 526.17 223.83 526.8 224.07 526.92 225.4 527.57 226.6 527.31 227.85 527.89 228.43 527.4 229.84 527.35 231.82 526.8 232.84 527.18 233.48 526.51 234.78 525.79 235.29 526.28 235.79 528.23 233.47 528.85 233.85 529.2 235.68 530.2 236.25 530.76 237.39 530 237.99 529.25 238.02 528.87 239.05 527.6 239.8 526.2 240.14 526.25 240.85 527.15 241.54 529.33 239.85 530.27 240.35 529.46 241.25 529.68 242.02 528.65 242.18 528.15 242.65 526.49 242.61 525.5 243.72 526.27 244.81 525.56 245.11 524.76 244.84 523.97 245.54 525.55 245.88 526.2 245.43 527.26 245.48 526.77 246.5 524.14 246.67 524.23 247.35 524.99 247.57 525.12 248.29 523.8 248.12 524.54 249.32 525.82 249.25 525.96 249.84 525.07 250.09 523.76 250.94 523.29 251.51 524.86 251.81 523.51 252.66 522.04 252.62 521.52 253.11 522.95 253.67 522.9 254.18 524.23 254.19 524.52 254.68 523.34 255.24 522.42 254.69 520.51 254.39 521.06 255.85 522.64 255.99 522.59 256.4 520.66 256.46 520.77 256.83 521.89 257.26 521.5 257.81 519.26 257.67 517.37 258.2 517.86 259.09 517.08 259.13 516.06 260.05 517.07 260.66 516.04 261.07 515.46 259.97 515.05 259.84 515 258.58 513.27 258.69 513.45 259.93" stroke="#1EB4E6" stroke-width="4.58333" stroke-linecap="round" stroke-linejoin="round" stroke-miterlimit="10" stroke-opacity="1"/>
<path d="M 130.16 504.82 128.75 505.75 128.48 506.99 127.83 506.36 127.39 507.13 126.85 507.25 125.32 508.24 125.72 509.21 124.51 510.86 123.33 510.96 122.38 512.23 122.38 513.56 123.3 513.83 123.83 514.48 123.45 515.21 122.3 515.69 121.21 515.18 120.97 516.39 122.06 516.82 121.46 518 120.69 518.06 119.79 520.17 120 520.4 118.84 521.66 117.8 524.2 117.94 524.67 117.45 525.61 116.59 528.29 116.54 528.96 115.99 530.17 114.26 535.05 113.11 539.62 113.17 541.42 114.52 542.62 113.71 544.06 113.72 545.14 113.25 546.03 113.52 547.84 113.48 548.61 112.85 549.23 111.92 549.57 111.01 550.75 110.44 552.23 110.41 554.62 109.57 554.96 109.95 556.37 109.66 556.98 108.42 557.84 108.48 559.34 107.72 558.86 107.46 558.14 105.62 558.59 104.96 558.33 104.54 557.58 104.85 556.75 103.35 555.89 101.59 555.34" stroke="#1EB4E6" stroke-width="4.58333" stroke-linecap="round" stroke-linejoin="round" stroke-miterlimit="10" stroke-opacity="1"/>
<path d="M 507.22 286.94 507.68 287.17 508.27 288.22 507.45 288.16 506.73 287.47 507.22 286.94 M 511.05 285.76 511.93 286.23 511.62 287.09 510.52 286.81 510.3 286.17 511.05 285.76 M 513.33 263.26 513.64 264.7 513.01 265.06 512.44 263.72 513.33 263.26 M 513.62 259.91 514.36 262.02 514.37 262.57 515.31 264.33 514.34 263.85 513.56 262.84 512.55 263.47 511.67 264.51 512.01 265.28 510.64 266.46 509.22 267.07 508.87 267.88 509.56 268.25 509.99 269 510.98 269.46 510.68 270.33 509.38 270.1 509.06 270.97 508.3 270.93 506.73 271.74 506.99 272.61 509.58 273.07 509.41 273.99 507.64 275.2 506.78 275.33 506.95 276.01 507.66 276.12 508.13 277.11 509.7 276.5 510.24 277.54 509.19 278.63 508.89 277.91 508.21 278.08 507.98 279.64 508.27 280.42 506.95 281.04 507.41 281.82 508.87 282.7 507.85 283.58 509.12 283.6 509.41 285.33 510.04 285.8 509.39 286.74 508.16 285.99 507.1 286.06 506.52 285.57 507.38 285.16 506.44 284.55 505.16 284.3 506.3 283.29 505.36 282.91 504.8 282.21 503.95 282.99 503.13 282.91 503.23 282.07 502.76 281.81 498.86 282.04 497.7 282.33 495.52 283.32 494.52 283.98 493.17 283.06 491.58 283.23 491.16 284.13 490.12 284.58 490.57 285.76 491.68 285.53 491.89 286.11 491.12 286.97 489.82 287.26 487.39 290.58 485.9 294.15 485.28 298.09 485.3 299.4 485.6 301.39 485.93 302.18" stroke="#1EB4E6" stroke-width="4.58333" stroke-linecap="round" stroke-linejoin="round" stroke-miterlimit="10" stroke-opacity="1"/>
<path d="M 62.02 521.53 61.8 522.29 60.04 524.34 59.95 525.01 59.24 525.07 59.06 525.78 57.64 525.9 56.96 526.68 56.15 526.5 56.08 525.55 56.56 524.87 54.94 524.39 55.37 523.57 56.5 522.43 57.43 522.28 58.5 523.2 58.62 522.14 57.55 521.87 55.84 522.08 55.34 521.39 55.1 520.2 55.84 519.39 56.34 517.41 57.55 515.92 57.91 514.97 57.76 514.03 58.63 514 60.62 512.93 61.76 512.69 63.33 512.73 63.69 514.48" stroke="#1EB4E6" stroke-width="4.58333" stroke-linecap="round" stroke-linejoin="round" stroke-miterlimit="10" stroke-opacity="1"/>
<path d="M 149.82 448.57 151.06 449.32 149.88 449.66 149.82 448.57 M 167.28 448.19 167.96 447.92 168.88 448.59 167.99 449.27 166.87 449.61 166.3 448.76 167.28 448.19 M 155.71 447.66 156.54 448.53 155.19 449.36 156.28 449.67 156.19 450.49 157.08 451.03 156.54 452.32 155.82 451.84 154.41 451.5 154.27 452 152.84 452.34 152.26 451.46 153.89 450.41 154.5 450.32 154.05 449.17 154.45 448.26 155.71 447.66 M 161.24 447.58 161.6 448.17 160.96 448.83 160.19 448.21 161.24 447.58 M 162.69 447.53 163.05 447.8 164.57 447.99 164.8 448.59 162.88 448.73 161.66 448.36 161.8 447.81 162.69 447.53 M 171.33 444.33 171.62 444.79 170.76 446.33 170.83 447.01 169.32 447.44 168.37 447.35 167.82 446.75 169.58 445.24 170.43 445.12 171.33 444.33 M 176.03 444.3 176.06 444.3 M 153.53 443.87 154.27 444.96 153.91 447.59 153.23 448.36 153.95 449.47 152.84 450.24 152.03 450.21 152.1 448.87 151.26 448.44 151.2 447.78 149.91 446.72 149.97 445.27 151.17 445.38 152.17 446.78 153.52 446.39 153.1 445.84 151.78 445.8 152.07 445.26 151.78 444.32 153.58 444.24 153.53 443.87 M 147.76 443.27 148.36 444.04 148.05 444.7 146.6 445.9 145.37 446.35 145.14 445.69 146.06 444.21 147.04 443.89 147.76 443.27 M 179.31 443.05 179.94 443.67 179.83 444.22 177.3 445.45 176.72 445.05 176.97 444.26 177.84 443.44 179.31 443.05 M 180.03 441.41 180.89 441.44 181.02 441.99 182.35 442.98 181.67 443.73 182.13 444.05 181.61 444.72 180.2 443.76 179.5 441.99 180.03 441.41 M 178.68 441.35 179.04 442.27 178.62 442.96 177.79 442.73 178.68 441.35 M 186.63 440.85 186.72 441.59 185.92 442.04 185.56 441.36 186.63 440.85 M 182.55 439.41 183.33 439.5 183.39 440.1 182.78 440.45 182.44 441.22 181.52 441.47 180.76 440.27 182.55 439.41 M 191.68 436.59 191.63 437.79 191.07 438.81 190.34 438.33 189.25 438.96 189.02 440.45 187.92 441.12 187.26 440.52 185.62 440.42 184.79 439.5 184.71 438.47 183.73 438.81 183.23 439.3 182.32 439.35 179.94 440.05 179.08 440.45 177.73 440.21 177.12 441.96 176.15 442.01 175.63 442.45 174.65 442.59 171.87 442.28 171.32 442.67 169.86 442.67 168 443.84 166.94 443.04 166.24 443.36 165.44 444.61 164.33 444.69 165.07 445.58 164.6 446.05 163.52 445.99 162.22 446.27 161.43 447.24 159.78 447.55 158.38 446.89 156.43 447.9 155.57 446.8 156.63 446.16 155.48 445.92 154.9 444.99 155.08 444.43 154.1 443.07 154.53 442.38 154.01 441.61 151.95 441.66 150.28 441.22 149.42 441.33 148.99 441.84 147.27 442.47 145.74 444.27 143.85 445.35 143.57 446.27 144.29 447.26" stroke="#1EB4E6" stroke-width="4.58333" stroke-linecap="round" stroke-linejoin="round" stroke-miterlimit="10" stroke-opacity="1"/>
<path d="M 197.51 453.79 198.66 453.43 199.52 448.22 198.95 447.29 197.73 446.35 199.51 446.39 200.35 446.09 201.46 446.33 202.92 445.26 203.96 443.75 205.07 443.82 206.36 442.75 206.28 441.75 207.76 441.52 207.76 442.72 209.21 441.62 208.94 440.82 210.61 440.27 211.93 441.21 214.87 441.71 216.47 441.81 216.94 441.3 218.45 440.39 218.75 439.83 219.66 440.27 219.47 442.23 219.94 442.75 221.98 441.81 222.53 442.22 223.53 441.99 223.79 442.93 223.1 443.6 223.47 444.26 225.45 444.61 227.06 445.61 228.77 445.52 229.44 446.19 229.55 446.77 230.75 447.37 M 201.93 439.87 202.72 441.01 201.87 441.67 200.91 441.36 201.14 440.71 201.93 439.87 M 210.41 439.11 210.21 439.12 M 212.18 436.79 213.35 437.45 212.42 437.92 212.18 436.79 M 216.74 435.94 217.42 436.75 216.57 437.53 215.4 437.01 216.11 436.05 216.74 435.94 M 214.3 435.68 213.67 436 M 227.06 433.38 227.43 435.47 226.89 436.4 227.15 437.45 226.39 438.05 225.62 436.81 223.93 437.19 222.81 439.23 222.62 438.12 222.92 437.56 222.58 436.86 221.04 436.52 219.35 437.45 219.08 436.77 219.89 435.93 219.89 435.2 221.61 435.1 223.48 434.24 225.39 434.01 225.79 433.61 227.06 433.38" stroke="#1EB4E6" stroke-width="4.58333" stroke-linecap="round" stroke-linejoin="round" stroke-miterlimit="10" stroke-opacity="1"/>
<path d="M 47.65 481.53 49.27 482.95 49.69 482.2 49.24 481.71 50.39 480.38 50.88 479.44 50.42 478.93 49.35 478.64 48.49 477.82 47.36 477.21 48.27 475.83 49.49 475.77 49.25 474.49 49.97 474.66 50.28 473.97 51.92 473.33 53.85 474.15 54.35 475.04 53.77 475.54 53.93 476.35 54.85 477.04 55.96 477.36 57.53 477.1 57.56 476.44" stroke="#1EB4E6" stroke-width="4.58333" stroke-linecap="round" stroke-linejoin="round" stroke-miterlimit="10" stroke-opacity="1"/>
<path d="M 390.45 285.27 390.81 285.96 390.64 287.96 390.1 289.47 389.99 290.35 388.39 292.56 387.82 293.77 387.88 295.05 389.57 295.83 393 294.97 393.15 295.83 389.95 301.41 389.19 302.29 387.52 302.96 385.73 304.39 384.89 304.89 382.74 305.04 380.61 305.97 379.27 305.67 378.86 305.29 379.33 304.63 380.45 304.59 381.37 304.21 382.17 302.75 381.73 301.88 382.77 300.62 383.71 300.22 384.18 299.13 382.82 298.06 381.56 298.18 380.75 299.66 380.03 298.9 380.21 297.03 379.98 295.83 380.55 295.25 381.45 293.51 382.19 293.03 383.59 290.69 384.56 290.27 386.66 288.51 387.56 288.31 388.15 287.42 388.51 286.2 390.45 285.27" stroke="#1EB4E6" stroke-width="4.58333" stroke-linecap="round" stroke-linejoin="round" stroke-miterlimit="10" stroke-opacity="1"/>
<path d="M 318.08 433.38 319.4 434.13 320.25 434.23 322.19 435.44 323.91 435.65 325.42 436.73 326.17 436.71 326.24 437.7 327.21 438.04 328.09 437.84 328.42 439.05 327.86 440.03 326.45 440.5 325.99 441.15 326.78 442.01 326.66 442.8 327.2 443.28 326.92 443.89 327.4 444.71 326.31 444.83 325.15 445.65 324.32 445.71 322.19 445.32 322.21 444.63 324.73 444.92 325.1 444.12 324.7 443.68 323.05 444.21 321.63 444.06 321.03 443.69 319.23 444.27 319.21 443.57 319.93 442.23 317.65 443.16 318.14 443.36 317.86 444.29 315.14 445.45 314.53 444.22 312.72 445.08 311.99 445.18 311.84 446.44 310.51 446.43 307.83 447.49 307.29 447.37 306.36 447.99 305.41 447.98 304.02 448.48 302.96 450.06 303.24 450.73 304.42 450.91 303.99 451.57 302.86 452.28 301.42 452.02 300.03 452.69 301.6 453.03 301.71 454.01 303.15 454.62 302.76 455.28 302.75 456.63 301.51 456.74 301.04 457.39 299.6 457.88 299.89 458.56 298.77 458.9 297.46 459.88 297.01 459.52 296.06 459.99 295.11 461.07 293.91 463.11 292.56 466.33" stroke="#1EB4E6" stroke-width="4.58333" stroke-linecap="round" stroke-linejoin="round" stroke-miterlimit="10" stroke-opacity="1"/>
<path d="M 431.63 276.52 432.02 275.63 434.11 271.89 435.1 271.29 437.6 269.45 437.96 268.7 439.49 267.69 440.73 265.44 441.75 262.64 442.02 261.59 442.77 260.45 444.26 256.7 444.75 254.94 444.37 254.07" stroke="#1EB4E6" stroke-width="4.58333" stroke-linecap="round" stroke-linejoin="round" stroke-miterlimit="10" stroke-opacity="1"/>
<path d="M 133.61 463.45 134.51 464.16 133.35 464.58 133.15 464.11 133.61 463.45 M 143 462.69 144.5 463.5 144.98 464.16 143.25 464.06 142.15 463.07 143 462.69 M 143.97 456.84 144.55 457.36 146.06 457.84 147.23 459.24 147.95 459.42 148.83 459.04 149.31 458.37 150.3 458.46 150.58 457.87 151.43 457.37 152.61 458.11 151.22 458.77 149.55 458.92 149.03 459.55 149.26 460.75 148.05 460.33 147.33 459.73 146.11 459.39 144.93 460.34 143.52 460.48 142.79 460.29 141.66 459.37 141.58 458.54 143.07 457.12 143.97 456.84 M 92.2 458.01 92.63 458.45 91.97 459.04 M 129.19 455.96 129.79 456.57 129.07 457.59 128.3 458.16 127.84 457.72 129.07 456.5 129.19 455.96 M 118.5 454.66 118.71 455.6 117.7 456.08 117.81 455.06 118.5 454.66 M 144.43 447.38 143.89 448.29 144.69 449.42 144.5 450.38 142.76 450.69 143.07 452.35 143 453.27 143.39 454.06 143.14 455.5 142.15 457.01 140.77 457.28 139.81 457.24 139.68 458.46 139.82 459.93 140.98 461.04 140.95 461.63 140.27 462.13 139.3 462.05 139.49 460.43 137.82 459.73 137.68 459.27 136.56 458.92 135.06 459.07 133.55 458.19 133.07 457.54 132.26 457.63 131.56 456.87 130.15 456.31 129.23 455.31 128.53 455.18 127.63 455.84 127.55 456.77 125.79 456.45 126.22 455.77 127.37 454.96 127.63 454.21 125.53 453.5 123.34 453.22 122.89 453.75 120.74 453.75 119.95 454.03 119.47 454.66 118.46 454.59 116.67 455.68 115.76 455.45 115.45 454.69 113.8 454.28 114.29 455.06 112.59 456.04 112.1 455.92 112.24 455.03 110.95 454.56 109.13 456.3 109.15 456.89 108.55 457.39 107.91 457.34 106.94 458.13 105.92 458.58 104.59 458.42 103.72 457.74 102.71 457.95 101.63 457.31 101.76 456.12 100.21 455.43 99.48 454.37 97.31 453.94 96.63 454.06 96.26 454.8 95.24 456.01 92.21 457.98" stroke="#1EB4E6" stroke-width="4.58333" stroke-linecap="round" stroke-linejoin="round" stroke-miterlimit="10" stroke-opacity="1"/>
<path d="M 91.89 459.04 91.52 458.9 91.24 457.74 92.12 458 M 92.13 457.97 91.83 457.15 92.09 456.39 91.77 455.84 92.07 454.76 91.57 454.55 92.01 453.72 91.86 453.11 90.72 452.6 89.93 451.44 90.12 450.13 91.09 450.24 91.78 449.27 92.44 448.85 92.62 447.26 92.06 447.05 92.27 446.1 91.26 445.04 90.11 444.2 91.09 443.22 91.01 441.96 91.41 441.32 92.17 441.61 93.36 441.64 95.4 440.8 96.81 440.6 95.78 439.69 94.57 439.78 93.73 439.46 93.84 438.68 94.59 438.37 95.49 438.68 95.57 439.19 97.07 439.37 98.3 438.8 99.77 439.4 100.44 439.28 101.42 440.83 102.77 440.54 103.45 440.77 106.08 440.17 106.93 440.54 108.19 440.06 108.64 439.12 109.26 439.33 110.79 439.1 111.99 438.22 112.6 436.99 113.78 435.92 113.17 435.2 113.67 434.56 115.24 434.49 115.87 433.7 117.23 432.69 117.49 431.17 118.66 430.74 118.9 429.8 119.5 429.28 120.92 429.79 121.69 429.07 122.58 428.7 M 105.07 438.27 105.43 438.91 104.12 438.82 103.11 439.84 102.17 439.45 102.1 438.76 103.94 438.76 105.07 438.27 M 100.52 424.05 101.12 424.47 101.7 425.43 100.8 425.65 100.52 424.05" stroke="#1EB4E6" stroke-width="4.58333" stroke-linecap="round" stroke-linejoin="round" stroke-miterlimit="10" stroke-opacity="1"/>
<path d="M 82.11 573.92 81.92 573.43 82.72 572.36 82.76 571.28 81.98 570.89 84.19 569.17 84.84 569.11 85.36 568.53 86.25 566.6 85.72 565.7 86.49 564.31 87.09 563.91 87.37 562.49 87.18 561.69 87.67 560.45 86.74 559.01 85.88 557.09 84.78 555.92 83.6 555.54 83.28 554.45 83.91 552.42 82.28 551.93 81.23 552.25 79.35 550.54 80.73 549.3 82.41 549.02 83.31 549.13 84.34 550.58 84.06 551.4 84.63 551.78 86.27 551.53 87.06 550.64 87.06 549.93 88.47 547.75 88.01 546.8 87.26 546.05 84.83 545.78 84.28 545.17 83.09 544.79 82.06 545.05 80.25 546.3 80.21 547.52 79.78 548.84 78.76 549.5 78.24 550.22 78.46 551.27 78.08 552.21 77.37 552.65 77 554.65 76.3 554.39 76.49 556.47 76.84 557.68 77.3 558.33 78.31 561.02 78.63 561.45 80.01 562.24 80.81 562.95 82.01 563.04 81.63 564.31 81.98 564.98 80.73 566.59 79.75 566.52 79.14 567.38 77.88 566.68 76.95 567.28 76.09 566.82 76.37 565.9 75.22 564.37 74.17 563.82 73.05 564 71.95 563.73 69.9 563.83 67.27 563.17 66.92 563.91 65.51 563.5 64.09 562.06 65.01 561.68 64.23 560.45 64.34 560.01 63.6 559.27 62.97 559.29 61.99 558.37 61.4 557.31 62.67 556.6 63.45 557.56 64.96 557.87 66.78 556.92 68.19 554.88 68.94 553.02 69.23 551.56 69.24 550.12 69.04 548.96 68.51 547.8 67.87 547.35 66.34 545.3 64.41 543.96 63.92 544.02 62.65 542.43 62.91 542.2 63.81 539.98 64.35 539.42 64.92 537.88 64.3 535.45 63.14 534.32 63.16 533.75 64.09 532.87 64.27 532.07 63.94 531.34 62.85 531.29 63.02 530.2 64.41 529.44 65.97 529.32 67.38 530.07 68.53 529.76 69.96 529.03 70.38 528.4 70.28 527.74 M 47.65 542.58 48.11 543.5 47.01 545.66 46.21 545.49 46 546.58 45.31 547.31 45.8 547.95 44.18 549.21 42.98 548.49 42.69 547.74 43.61 547.63 43.67 546.93 44.53 545.28 46.24 544.68 47.22 544.58 47.82 543.45 47.65 542.58 M 50.29 538.97 51.44 539.98 52.59 540.55 53.4 540.25 53.35 541.28 52.92 541.57 51.15 541.86 51.14 541.43 50.11 540.95 50.31 540.18 48.92 539.81 49.61 539.02 50.29 538.97 M 62.96 525.34 63.95 526.69 63.36 527.31 64.18 528.51 63.16 528.98 63.05 529.82 62.29 530.85 60.56 529.44 60.71 528.46 59.9 527.08 60.27 525.97 61.93 525.84 62.96 525.34 M 66.22 522.31 66.69 523.26 64.5 524.43 64.5 523.35 65.28 522.57 66.22 522.31" stroke="#1EB4E6" stroke-width="4.58333" stroke-linecap="round" stroke-linejoin="round" stroke-miterlimit="10" stroke-opacity="1"/>
<path d="M 101.59 555.52 99.64 554.96 99.03 555.71 98.38 555.67 96.91 556.91 96.06 558.32 95.89 559.56 99.2 560.63 99.33 561.18 98.3 562.68 99.5 562.85 99.66 563.24 98.44 564.07 97.92 564.73 96 564.71 95.56 565.25 95.44 566.23 94.24 567.15 94.48 567.52 93.85 568.25 91.4 569.26 90.5 569.81 89.24 570.17 88.68 570.01 87.4 570.39 87.19 570.78 85.86 571.45 84.19 572.03 83.12 573.12 82.33 573.36 82.05 573.92" stroke="#1EB4E6" stroke-width="4.58333" stroke-linecap="round" stroke-linejoin="round" stroke-miterlimit="10" stroke-opacity="1"/>
<path d="M 75.65 594.43 76.58 595.3 77.44 595.3 79.58 596.47 79.64 596.77 81.18 597.1 82.15 597.7 82.47 598.26 82.1 600.18 81.77 601.09 79.09 603.41 76.58 603.95 75.3 603.92 73.47 603.55 72.62 602.36 72.01 600.58 71.48 600.23 70.87 598.11 71.06 597.4 72.56 597.3 73.86 595.86 74.61 594.74 75.65 594.43 M 61.85 593.61 62.18 593.82 63.94 593.96 65.32 594.4 66.41 595.27 64.32 596.15 63.64 595.62 61.85 593.61 M 89.8 582.81 90.2 583.78 89.75 584.4 89.03 584.34 89.19 583.47 89.8 582.81 M 68 581.13 68.71 581.79 68.39 582.22 66.5 582.29 68 581.13 M 97.62 579.91 98.67 582.14 98.23 582.7 98.26 584.7 98.09 585.66 97.36 587.48 97.56 589.12 96.73 589.75 96.32 591.02 95.37 591.35 95.2 592.02 94.57 592.65 94.57 593.16 93.93 594.07 93.76 594.81 94.51 595.85 94.17 596.17 94.54 597.04 94.02 597.46 93.99 598.2 92.91 598.12 91.63 598.56 90.79 599.36 90.27 599.22 89.8 598.32 90.12 597.4 90.1 596.47 89.54 595.25 90.26 594.64 90.76 593.76 91.3 593.47 92.06 592.45 93.24 590.44 93.56 589.57 93.42 587.95 93.1 587.43 93.64 586 94.4 584.99 94.56 584.4 95.52 583.39 95.51 582.16 97.62 579.91 M 53.68 579.46 54.67 580.29 53.6 580.99 52.8 580.78 52.31 580.25 53.11 579.53 53.68 579.46" stroke="#1EB4E6" stroke-width="4.58333" stroke-linecap="round" stroke-linejoin="round" stroke-miterlimit="10" stroke-opacity="1"/>
<path d="M 444.13 254.07 444.73 253.48 445.53 251.6 445.04 250.71 445.91 248.97 445.71 248.56 446.52 247.38 447.94 247.16 449.15 245.31 450.11 242.83 451.05 239.17 451.47 236.53 451.75 233.07 451.6 230.48 451.09 229.35 451.22 228.38 450.4 226.76 449.44 225.44 448.46 224.57 446.31 223.47 445.22 223.36 443.9 223.82 M 443.9 223.82 442.22 225.07 441.17 224.72 439.87 224.93 438.91 224.22 438.82 223.24 437.97 222.72 437.17 219.71 438.37 220.26 440.04 220.51 441.3 221.23 443.17 220.67 444.26 219.98 446.26 217.92 447.26 216.45 448.32 214.34 448.96 212.65 448.64 212.35 449.45 210.75 449.88 209.18 450.3 206.26 449.79 204.97 448.49 204.34 448.41 203.93 447.22 203.34 446.75 202.76" stroke="#1EB4E6" stroke-width="4.58333" stroke-linecap="round" stroke-linejoin="round" stroke-miterlimit="10" stroke-opacity="1"/>
<path d="M 356.41 338.34 358.98 337.75 361.61 336.85 363.44 336.36 364.04 335.98 367.31 335.14 370.95 333.02 371.83 332.96 374.75 330.71 376.71 331.21 379.99 330.63 381.15 329.77 381.6 329.75 384.72 327.53 387.93 324.89 389.84 323.94 392.13 323.05 393.85 321 395.03 318.88 396.48 317.1 397.32 316.4 398.61 315.71 399.54 314.31 400.15 313.73 400.89 312.23 402.23 307.86 402.83 306.57 404.75 304.69 406.98 303.39 408.3 302.81 411.69 300.87 412.32 300.35 414.92 299.82 417.9 298.95 419.7 298.08 421.96 296.64 423.78 295.05 425.23 293.43 426.94 291.12 426.85 290.49 427.69 289.06 427.39 288.54 427.67 287.51 427.92 282.93 430 279.22 431.63 276.89 431.56 276.52 M 420.09 278.96 419.79 280.44 418.81 280.22 420.09 278.96" stroke="#1EB4E6" stroke-width="4.58333" stroke-linecap="round" stroke-linejoin="round" stroke-miterlimit="10" stroke-opacity="1"/>
<path d="M 485.28 158.73 486.86 159.7 487.67 160.6 488.84 161.14 491.03 161.23 492.92 161.92 496.31 165.01 497 165.43 499.1 166.24 500.41 166.45 501.88 166.22 504.64 165.12 506.69 163.51 506.97 164.37 506.8 165.32 506.14 166.18 504.67 170.86 504.01 174.18 504.41 176.3 504.1 177.51 503.9 179.62 503.95 183.23 504.1 183.43 504.38 186.24 505.15 190.39 505.57 192.24 506.35 194.46 507.72 197.21 508.51 198.24 509.77 198.85 511.39 198.24 511.87 199.05 512.68 199.37 514.29 201.1 515.6 201.88" stroke="#1EB4E6" stroke-width="4.58333" stroke-linecap="round" stroke-linejoin="round" stroke-miterlimit="10" stroke-opacity="1"/>
<path d="M 446.85 202.76 447.39 200.17 447 197.86 446.15 196.56 444.19 196.6 443.88 195.36 445.49 194.2 446.85 193.85 448.53 191.95 449.25 190.37 450.69 189.68 451.93 189.42 453.13 190.2 453.92 190.43 454.96 190.08 456.9 188.81 457.78 188.95 458.78 188.55 459.51 187.69 460.57 185.61 461.12 183.96 461.69 181.63 462.11 178.06 461.93 176.6 460.71 175.55 462.02 174.43 462.5 173.16 462.32 171.63 462.99 170.05 464.98 171.02 466.39 172.53 467.78 173.1 468.68 172.93 469.8 172.16 470.09 171.54 471.21 171.41 472.74 171.73 M 480 171.98 480.26 171.18 480.06 170.28 480.69 169.27 480.81 167.62 481.5 166.93 481.94 164.89 482.97 163.27 483.47 163.07 484.19 161.86 484.73 161.49 485.16 160.42 484.68 159.55 485.28 158.73" stroke="#1EB4E6" stroke-width="4.58333" stroke-linecap="round" stroke-linejoin="round" stroke-miterlimit="10" stroke-opacity="1"/>
<path d="M 414.47 410.64 414.35 411.1 413.11 412.36 413.22 413.49 413 414.36 414.03 414.46 413.86 415.93 413.34 416.17 414.24 417.39 415.13 417.43 415.89 418.73 415.3 420.32 415.28 420.95 414.16 421.31 413.11 422.45 413.2 423.14 412.36 424.65 410.27 426 409.78 427.32 409.29 427.65 409.05 428.51 409.49 429.51 408.41 429.71 408.39 428.94 406.8 429.98 406.65 430.58 404.78 431.19 403.85 431.88 402.55 430.84 401.29 430.33 401.59 429.55 401.35 428.99 399.87 427.82 400.14 426.72 401.33 425.66 400.45 423.96 400.31 423.28 400.8 422.83 400.52 420.72 401.8 419.89 400.95 418.21 400.75 417.3 401.59 415.24 403.29 415.33 403.97 415.65 405.87 414.97 405.12 413.48 404 412.49 402.55 411.64 399.82 410.93 398.66 410.83 395.69 411.68 393.52 411.82 392.76 412.2 391.38 414.53 390.45 415.04 390.54 415.76 391.77 415.69 391.49 416.41 390.74 417.09 389.26 417.79 386.96 418.54 386.6 418.9 384.85 419.55 383.67 421.44 383.59 422.02 384.05 422.97 382.16 425.56 380.25 426.55 379.24 427.62 378.49 429.42 378.57 430.67 379.53 431.68 378.35 431.93 377.86 431.67 374.18 430.36 371.53 429.67 370.16 429.44 367.86 429.28 365.06 429.66 363.4 430.09 362.07 430.09 360.22 429.54 357.46 429.11 353.99 428.8 350.58 429.03" stroke="#1EB4E6" stroke-width="4.58333" stroke-linecap="round" stroke-linejoin="round" stroke-miterlimit="10" stroke-opacity="1"/>
<path d="M 301.6 365.16 302.55 364.49 303.79 362.97 305.6 362.45 308.3 360.41 310.88 357.58 312.23 356.35 315.06 353.37 315.33 352.71 316.56 351.65 318.16 349.71 320.55 345.92" stroke="#1EB4E6" stroke-width="4.58333" stroke-linecap="round" stroke-linejoin="round" stroke-miterlimit="10" stroke-opacity="1"/>
<path d="M 320.65 345.92 321.74 343.59 322.33 341.45 321.83 340.09 M 321.83 340.09 322.28 339.31 322.39 337.63 321.39 337.12 321.21 336.3 320.54 335.3 320.4 334.45 320.84 333.74 320.77 332.25 318.51 331.77 318.78 331 318.92 329.38 319.89 328.44 319.81 327.87 320.51 327.45 321.01 326.53 320.54 324.9 321.78 323.89 321.89 323.14 322.54 323.1 325.45 321.68 326.7 321.51 328.44 321.96 334.23 319.55 335.08 318.64 337.02 317.82 338.42 317.81 339.81 317.44 342.12 316.47 343.04 316.75 344.12 316.62 345.08 317.72 344.65 318.32 345.33 319.18 345 320.03 343.53 320.26 343.04 320.04 341.41 320.51 340.65 322.15 340.74 322.88 341.68 324.71 341.01 325.42 339.72 325.88 337.34 325.59 335.25 326.55 334.75 327.72 334.04 328.42 334.1 328.95 332.54 329.6 332.41 330.15 331.63 330.32 331.05 329.69 329.96 329.49 329.26 328.59 328.41 328.9 328.29 329.47 326.89 331.06 326.52 332.03 327.5 332.17 327.2 333.14 326.23 333.2 325.96 334.61 327.02 334.88 328.59 334.19 329.06 334.9 330.32 335.73 331.49 334.98 332.23 333.59 333.4 333.39 333.5 334.62 333.17 336.1 333.4 339.21 M 332.87 330.94 333.47 331.61 332.97 332.14 333.34 332.73 331.94 333.16 331.15 332.93 330.55 333.47 329.49 333.74 328.85 332.85 327.56 332 329.93 331.94 331.15 332.09 332.34 331.85 332.87 330.94" stroke="#1EB4E6" stroke-width="4.58333" stroke-linecap="round" stroke-linejoin="round" stroke-miterlimit="10" stroke-opacity="1"/>
<path d="M 483 387.03 483.53 387.16 483.42 388.86 482.72 388.86 482.17 388.25 481.22 388.33 478.99 389.06 476.72 388.82 474.83 389.44 473.8 390.01 471.34 391.72 468.99 393.65 467.09 395.78 465.73 398.01 464.95 400.58 465.02 403.13 465.79 404.34 465.22 405.72 465.42 406.99 464.98 408.35 464.23 409.25 463.23 409.23 462.67 409.76 462.29 410.83 461.18 410.4 460.74 411.04 459.64 410.89 458.64 411.79 457.19 411.74 456.98 411.32 455.46 411.71 454.78 411.53 453.63 412.31 453.41 413.17 452.45 414.05 451.67 413.99 449.6 415.09 448.72 415.92 447.94 417.69 448.12 418.44 447.22 419.56 445.05 420.26" stroke="#1EB4E6" stroke-width="4.58333" stroke-linecap="round" stroke-linejoin="round" stroke-miterlimit="10" stroke-opacity="1"/>
<path d="M 445.05 420.26 444.17 419.97 443.44 420.13 442.52 419.67 442.26 418.62 439.8 417.65 439.87 417.22 441.53 417.33 442.47 417.11 442.77 416.65 443.81 416.67 443.91 415.86 443.56 415.3 442.6 415.06 442.9 414.32 442.47 413.43 443.29 412.81 442.6 411.82 443.17 411.19 442.34 410.2 442.31 408.96 442.84 408.24 444.25 407.64 444.16 406.25 443.49 405.56 443.71 405.07 442.66 404.38 440.99 403.94" stroke="#1EB4E6" stroke-width="4.58333" stroke-linecap="round" stroke-linejoin="round" stroke-miterlimit="10" stroke-opacity="1"/>
<path d="M 439.51 406.09 438.57 407.56 436.39 408.45 435.91 409.02 436.46 410.54 434.33 410.64 434.37 408.68 433.72 406.77 432.63 405.7 432.59 404.66 431.85 404.61 428.54 403.81 427.12 403.64 423.39 403.86 419.89 404.67 418.18 405.31 415.89 406.76 415.63 407.29 415.4 409.02 415.69 410.14 414.43 410.55" stroke="#1EB4E6" stroke-width="4.58333" stroke-linecap="round" stroke-linejoin="round" stroke-miterlimit="10" stroke-opacity="1"/>
<path d="M 256.41 443.3 256.74 443.02 260.45 442.26 261.65 441.83 262.5 440.83 263.16 440.59 266.07 438.03 266.71 437.82 267.53 436.85 267.25 435.23 269.28 435.15 270.31 433.65 268.96 433.51 269.17 432.21 270.4 430.34 269.23 429.45 269.42 428.82 268.83 428.14" stroke="#1EB4E6" stroke-width="4.58333" stroke-linecap="round" stroke-linejoin="round" stroke-miterlimit="10" stroke-opacity="1"/>
<path d="M 102.75 470.71 103.51 470.71 104.18 471.18 105.61 471.23 106.19 472.01 106.85 472.19 108.02 472.02 108.75 472.4 109.48 472.25 111.91 472.41 112.06 471.69 113.55 470.62 114.84 469.24 116.48 468.26 118.39 467.79 120.76 468.92 121.3 468.65 122.87 470.83 124.14 472.11 124.35 473.9 123.96 475.21 124.34 475.48 123.26 477.65 122.88 478.92 122.3 478.9 121.27 478.27 120.32 478.23 120.64 480.09 118.86 480.32 118.65 481.2 116.96 481.08 116.54 480.49 114.97 480.68 114.87 481.86 115.52 484.3 118.51 485.14 119.48 484.49 122.52 483.83 124.17 484.71 126.98 485.28 128.34 485.02 129.99 484.37 130.74 484.3" stroke="#1EB4E6" stroke-width="4.58333" stroke-linecap="round" stroke-linejoin="round" stroke-miterlimit="10" stroke-opacity="1"/>
<path d="M 132.16 494.24 132.45 495 131.81 495.44 131.55 494.39 132.16 494.24 M 130.9 484.41 129.12 487.19 128.36 487.71 127.72 488.51 127.99 488.99 127.25 489.46 127.47 490.07 128.55 490.39 129.29 489.86 130.76 489.81 129.38 491.36 131.07 491.68 131.9 492.21 132.99 492.03 134.97 492.49 133.73 493.05 132.03 492.79 131.66 493.57 130.38 495.15 131.72 496.25 133.44 496.7 133.99 497.24 135.12 497.49 135.09 498.54 134.1 498.26 134.16 498.97 134.87 499.12 134.04 500.24 132.91 500.94 133.25 501.96 134.21 501.42 135.01 501.65 133.38 502.61 132.91 502.38 132.21 503.29 131.57 503.26 130.76 502.61 129.58 503.78 130.23 504.82" stroke="#1EB4E6" stroke-width="4.58333" stroke-linecap="round" stroke-linejoin="round" stroke-miterlimit="10" stroke-opacity="1"/>
<path d="M 248.63 439.8 248.6 441.63 249.42 442.3 249.55 443.09 250.56 443.9 250.87 445.12 248.78 445.7 246.74 446.56 244.94 447.8 243.95 447.78 242.33 448.25 242.21 447.53 240.99 446.91 241.4 446.23 239.89 445.8 239.5 444.7 239.51 443.9 239.98 443.07 241.52 442.88 242.59 441.66" stroke="#1EB4E6" stroke-width="4.58333" stroke-linecap="round" stroke-linejoin="round" stroke-miterlimit="10" stroke-opacity="1"/>
<path d="M 64.25 510.35 63.21 510.8 62.76 509.77 61.18 508.93 61.3 507.32 63.9 505.91 64.27 505.29 63.12 502.88 61.76 502.82 60.98 503.16 59.38 502.9 57.04 504.3 55.62 504.29 54.75 504.04 54.01 504.29 54.38 504.97 53.86 505.59 52.67 506.12 52.77 506.64 52.01 508.06 51.52 508.47 49.61 509.26 49.72 509.71 48.4 510.88 47.62 511.2 46.49 511.28 47.87 509.95 47.91 509.32 48.61 508.33 49 507.17 49.82 506.68 50.27 505.78 49.55 505.61 49.15 504.81 48.1 504.04 47.22 502.73 47.27 502.01 46.11 501.82 45.85 502.41 44.31 501.36 43.4 500.05 43.51 499.56 42.42 497.54 41.42 496.76 41.46 495.65 42.55 494.75 42.24 494 42.7 493.25 43.59 490.93 45.12 491.82 46.72 493.03 45.89 493.74 46.74 494.2 48.1 494.47 49.12 495.54 48.55 496.2 48.95 496.9 47.62 497.57 48.43 498.46 48.69 500.14 49.95 501.01 50.88 500.85 51.32 499.75 52.31 499.62 53.49 500.41 54.03 500.24 55.34 501.08 55.68 500.35 54.62 499.69 54.27 498.55 53.38 497.75 53.42 496.15 54.13 495.4 53.95 494.23 52.33 493.28 51.17 492.26 50.11 492.72 48.37 492.17 47.76 490.79 48.14 489.67 47.64 489.21 46.41 489.15 45.87 489.63 45.15 489.44 45.24 488.38 44.37 488.43 44.76 490.21 42.78 490.41 42.78 489.91 44 489.33 43.16 488.28 42.36 488.02 42.39 487.15 41.4 487.38 40.36 486.51 38.97 486.28 39.17 484.31 39.95 484.17 39.81 483.3 38.88 482.08 39.28 481.84 39.51 479.91 40.18 480.31 42.17 480.51 43.04 479.67 43.43 480.98 44.52 481.24 45.54 480.66 47.79 480.25 47.87 481.47 M 2.44 507.38 2.47 508.68 1.67 508.36 2.44 507.38 M 16.52 503.04 17.08 503.84 16.96 504.62 15.72 504.88 16.52 503.04 M 9.28 502.75 9.5 504.61 10.66 504.73 10.49 505.63 10.78 506.73 12.19 507.8 12.34 508.33 11.72 508.8 9.96 509.13 9.18 508.35 7.76 508.78 7.73 509.81 8.49 510.3 8.67 510.87 7.86 511.52 7.08 511.32 6.44 510.26 4.55 510.42 3.66 510.2 2.68 510.82 2.25 510.33 1 510.03 1.44 509.4 2.54 509.52 2.87 508.52 3.69 508.16 2.99 506.73 3.43 506.18 2.85 505.65 3.12 504.78 2.93 503.89 3.26 503.48 4.29 503.51 4.9 504 5.26 505.08 7.57 504.23 8.12 503.54 9.28 502.75 M 11.44 500.91 12.89 501.83 12.95 503.13 11.53 504.1 10.57 503.42 10.31 502.82 10.42 501.49 11.44 500.91 M 14.5 499.36 15.15 499.97 15.34 500.73 15 501.34 14.04 501.6 13.6 500.98 12.46 500.47 13.5 499.92 14.51 500.33 14.5 499.36 M 40.32 496.89 41.31 497.28 41.02 498.07 40.1 497.42 40.32 496.89 M 16.39 497.45 17.22 497.74 18.09 498.95 17.86 499.33 17.98 500.58 16.24 500.08 15.26 498.78 16.42 498.98 16.39 497.45 M 26.51 493.92 26.8 494.84 25.93 494.79 26.51 493.92 M 40.71 492.26 41.74 492.84 40.7 493.89 39.89 493.74 40.06 492.99 40.71 492.26 M 46.98 489.19 47.99 489.42 47.96 491.59 47.16 491.77 46.86 492.73 45.99 492.4 45.44 490.9 46.12 490.96 46.15 489.91 46.98 489.19 M 21.24 488.38 21.27 489.26 20.84 489.93 21.54 490.64 21.39 491.48 20.38 493.31 20.38 495.27 21.62 495.4 22.17 494.87 23.72 494.54 23.96 495.96 22.63 496.55 22.37 497.25 21.44 497.24 20.57 498.05 20.41 499.19 20.73 500.32 19.85 500.26 18.62 501.54 18.66 500 19.02 499.11 18.85 498.33 17.81 497.4 17.07 497.17 16.7 496.14 18.85 495.65 18.47 495.19 18.46 493.74 19.39 493.27 19.91 493.48 20.15 491.86 20.78 491.68 21.04 490.79 20.69 489.93 21.24 488.38 M 19.02 486.2 20.05 487.15 19.68 487.45 17.91 486.95 19.02 486.2 M 21.85 482.97 22.68 484.25 21.91 484.58 21.44 485.19 20.51 484.95 19.54 484.2 20.26 483.65 21.56 483.47 21.85 482.97 M 48.11 478.56 49.55 479.14 49.56 479.78 50.54 480.1 48.63 480.86 48.52 479.39 48.11 478.56 M 38.59 478.75 39.06 480.75 38.25 481.14 37.69 482.65 36.62 483.04 36.26 483.74 36.49 484.66 33.85 487.33 32.35 487.71 31.74 486.67 31.74 486.05 32.31 485.5 33.35 485.67 32.66 484.42 33.42 483.49 34.35 483.18 33.79 482.49 34.22 481.82 33.97 481.3 35.24 480.94 36.51 480.81 38.28 480.05 38.13 478.8 38.59 478.75 M 33.86 477.53 33.62 478.77 33.96 479.27 33.73 480.13 33.9 480.91 32.55 480.75 33.01 479.21 33.36 478.8 33.31 477.88 33.86 477.53 M 46.46 476.37 47.1 476.77 47.09 477.46 46.08 478.83 45.04 478.4 46.26 477.41 46.46 476.37 M 38.66 474.79 38.56 476.42 37.81 476.21 37.53 475.23 38.66 474.79" stroke="#1EB4E6" stroke-width="4.58333" stroke-linecap="round" stroke-linejoin="round" stroke-miterlimit="10" stroke-opacity="1"/>
<path d="M 183.52 394.59 184.14 395.76 184.16 396.43 185.44 397.42 186.61 397.89 189.3 398.4 190.72 398.02 191.46 396.77 192.5 396.58 194.32 395.72 195.36 395.68 197.11 395.27 200.33 396.29 205.37 396.51 209.18 396.24 210.62 396.06 211.11 395.76 212.82 395.62 213.57 395.03 214.09 395.76 215.48 395.79 219.91 395.2 222.32 394.69 223.96 394.12 224.91 392.96 226.5 392.82 227.83 392.32 227.79 391.98" stroke="#1EB4E6" stroke-width="4.58333" stroke-linecap="round" stroke-linejoin="round" stroke-miterlimit="10" stroke-opacity="1"/>
<path d="M 122.58 428.69 123.15 429.01 124.5 428.93 127.3 428.25 128.81 427.5 129.67 426.59 129.41 425.77 130.56 425.48 132.63 424.27 133.04 423.32 134.32 422.88 136.13 420.78 137.28 420.37 137.21 419.91 138 418.96 138.98 418.5 139.05 418.09 140.52 417.47 140.78 417.06 142.14 416.36 143.98 414.78 145.28 414.6 146.91 413.86 147.41 412.67 148.04 412.12 149.82 411.12 150.04 410.39 151.01 408.94 152.45 408.26 153.06 407.59 155.35 406.64 155.51 406.18 156.5 405.75 158.85 405.08 159.94 404.25 160.7 403.12 161.17 401.5 161.05 400.38 159.33 399.1 161.57 398.36 162.52 398.78 164.25 398.53 163.4 397.68 166.1 397.13 166.34 396.74 168.8 396.04 170.71 395.79 172.55 395.89 172.81 394.72 175.05 394.89 176.3 393.84 176.62 393.18 177.55 393.38 177.72 392.57 179.46 394.08 180.06 394.1 182.77 393.5 183.52 393.7 184.42 393.38 185.44 393.45 186.43 394 183.9 394.36 183.52 394.54" stroke="#1EB4E6" stroke-width="4.58333" stroke-linecap="round" stroke-linejoin="round" stroke-miterlimit="10" stroke-opacity="1"/>
<path d="M 439.82 391.91 439.59 392.57 439.85 393.52 440.93 393.52 439.82 391.91 M 440.47 396.33 439.08 396.81 439.45 397.18 440.47 396.33 M 438.99 396.79 437.73 397.35 438.14 398 439.3 397.49 438.99 396.79 M 439.47 406.27 438.73 405.96 437.28 405.87 436.62 405.05 435.65 405 435.38 404.57 436.1 403.41 435.52 401.43 435.13 400.94 435.78 400.04 436.44 400.44 437.27 399 436.47 398.51 435.75 398.76 435.23 398.29 435.46 397.54 436.93 397.44 439.58 396.31 439.47 395.82 441.26 396.05 441.4 395.31 441.96 395.03 441.02 393.78 439.96 394.03 439.54 393.05 439.73 391.24 440.53 390.78 441.1 391.52 441.93 391 442.96 390.86 444.4 391.06 444.46 391.6 445.46 391.94 447.11 391 446.28 390.41 448.1 389.36 448.83 389.36 452.82 392.73 453.75 392.91 454.08 393.82 453.33 393.95 452.95 394.99 451.92 394.85 449.77 397.4 448.15 397.83 447.24 398.8 445.68 399.3 445.43 399.64 445.82 400.97 444.86 402.1 443.42 401.52 442.49 402.78 442.39 403.87 440.96 404.01" stroke="#1EB4E6" stroke-width="4.58333" stroke-linecap="round" stroke-linejoin="round" stroke-miterlimit="10" stroke-opacity="1"/>
<path d="M 225.83 473.6 225.83 473.62 M 230.73 447.34 231.96 447.31 232.92 446.7 234.66 446.62 235.36 446.81 235.8 446.18 236.57 446.7 236.41 447.6 237.88 448.41 238.56 448.45 237.56 449.84 237.93 450.14 237.11 450.83 237.14 451.95 236.39 453.46 236.61 455.21 237.4 455.85 238 455.87 238.53 455.27 239.68 457.06 240.66 457.43 241.04 458.44 240.66 459.31 239.12 460.53 238.32 460.69 238.73 461.42 241.13 461.41 240.86 461.97 242.7 462.13 239.65 463.3 238.8 463.83 237.73 463.92 237.14 464.45 236.17 464.57 235.57 466.07 232.62 467.79 230.88 468.64 229.9 468.69 228.74 469.29 227.78 470.3 228.06 470.88 227.78 471.66 226.79 472.12 225.97 471.97 225.5 473.28 M 238.64 446.1 237.53 447.88 236.6 447.6 237.62 446.47 238.64 446.1 M 237.22 445.63 237.61 446.3 236.87 446.81 236.48 446.39 237.22 445.63" stroke="#1EB4E6" stroke-width="4.58333" stroke-linecap="round" stroke-linejoin="round" stroke-miterlimit="10" stroke-opacity="1"/>
<path d="M 333.42 339.14 332.47 339.88 332.67 340.53 331.11 342.29 331.05 343.28 332.19 344.34 334.79 346.04 336.79 346.35 337.53 346.84 338.77 347.07 340.96 346.75 343.02 347.08 344.53 346.85 345.18 346.07 346.86 345.11 347.17 343.94 347.91 342.23 347.54 341.51 348.27 340.43 350.73 339.34 354.04 338.94 354.62 338.52 356.41 338.34" stroke="#1EB4E6" stroke-width="4.58333" stroke-linecap="round" stroke-linejoin="round" stroke-miterlimit="10" stroke-opacity="1"/>
<path d="M 271.86 394.36 273.1 394.7 272.67 396.44 273.8 397.1 275.33 396.92 276.44 396.06 277.68 395.92 277.95 396.4 277.13 397.21 278.2 397.52 278.67 396.98 279.91 397.15 281.71 396.89 282.28 395.4 279.85 394.73 280.82 393.89 281.65 393.84 282.55 394.98 283.36 394.67 283.71 395.41 285.48 395.24 285.13 394.58 286.42 393.42 286.26 392.57 285.24 392.25 285.25 391.16 285.97 391.3 286.49 392.27 286.92 392.38 288.05 391.76 288.62 392.33 289.65 392.08 290.23 391.54 291.01 391.73 291.46 390.99 290.71 390.34 291.13 389.26 290.43 388.66 290.22 387.94 291.27 387.43 292.8 386.21 293.21 386.63 293.62 388.8 293.06 389.57 293.92 390.43 294.83 390.29 295.64 388.31 295.93 385.61 294.77 383.79 291.92 381.43 291.88 379.4 290.81 378.35 290.36 377.58 290.6 376.95 291.46 376.5 292.43 375.53 292.85 374.05 293.43 372.8 294.18 371.79 295.03 371.37 297.2 368.38 296.86 366.95 298.92 366.79 300.55 365.93 301.6 365.16 M 271.87 394.36 271.86 394.36" stroke="#1EB4E6" stroke-width="4.58333" stroke-linecap="round" stroke-linejoin="round" stroke-miterlimit="10" stroke-opacity="1"/>
<path d="M 96.77 461.19 97.02 462.6 96.65 462.64 96.34 461.19 96.77 461.19 M 91.97 459.64 92.65 459.16 93.22 457.96 94.34 457.14 95.44 456.71 96.15 457 96.2 457.82 95.41 458.5 95.52 459.88 95.1 461.41 93.78 461.89 94.03 463.06 95.83 462.66 95.28 463.77 96.06 464.71 95.39 465.14 96.2 466.17 96.59 467.19 97.28 467.79 98.04 469.04 99.39 470.66 99.93 470.15 101.79 470.7 102.75 470.69" stroke="#1EB4E6" stroke-width="4.58333" stroke-linecap="round" stroke-linejoin="round" stroke-miterlimit="10" stroke-opacity="1"/>
<path d="M 57.56 476.53 57.93 475.53 59.75 475.06 61.01 474.94 61.32 474.2 62.08 473.87 61.34 472.69 60.74 472.37 59.99 472.8 59.66 471.95 61.87 471.49 62.6 470.06 63.28 470.06 64.15 469.51 64.29 468.67 65.35 469.41 64.87 470.08 65.72 470.9 65.92 471.49 66.76 472.04 67.52 472.15 68.35 471.44 69.66 471.56 71.59 470.96 71.95 470.2 71.94 469.29 73.1 468.88 72.75 468.37 71.72 467.89 74.03 465.94 74.52 464.43 73.54 463.6 74.32 462.92 75.19 461.37 76.12 461.13 76.78 460.48 76.83 459.9 78.13 459.81 79.24 460.29 80.77 460.09 82.08 459.38 82.04 458.88 83.56 457.87 85.08 458.14 87.75 458.15 88.42 458.6 89.61 458.24 91.43 459.78 91.97 459.58 M 73.3 458.83 72.89 459.95 71.97 459.52 72.04 459.02 73.3 458.83" stroke="#1EB4E6" stroke-width="4.58333" stroke-linecap="round" stroke-linejoin="round" stroke-miterlimit="10" stroke-opacity="1"/>
<path d="M 485.88 302.18 486.23 303.47 487 304.68 488.04 305.03 488.13 306.84 489.03 308.37 489.03 310.32 489.4 311.13 489.46 313.01 489.78 316.65 490.24 318.45 489.89 321.49 489.98 322.98 489.58 324.68 489.55 325.8 489.23 326.78 489.06 328.45 488.63 329.96 488.56 333.1 487.95 333.9 487.55 335.59 487.52 336.6 487.87 337.64 487.38 338.53 485.67 339.8 484.95 339.61 483.88 340.32 482.37 341.01 481.26 341.18 480.32 342.5 480.48 343" stroke="#1EB4E6" stroke-width="4.58333" stroke-linecap="round" stroke-linejoin="round" stroke-miterlimit="10" stroke-opacity="1"/>
<path d="M 242.51 441.55 243.07 440.28 243.43 440.21 244.74 437.78 245.56 437.02 246.66 436.7 247.56 435.26 248.28 434.58 249.28 434.36 250.14 433.84 252.06 431.72 252.77 431.49 253.69 432.77 252.5 433.99 252.39 434.89 251.88 435.64 250.79 436.54 250.11 437.54 248.81 438.96 248.55 439.73 M 250.52 429.44 249.05 428.86 248.58 428.37 246.55 427.14 245.88 427.7 244.72 426.66 242.74 425.25 241.37 424.94 240.64 425.18 239.39 424.65 239.06 425.17 238.25 424.91 236.41 425.25 235.83 425.67 234.96 425.08 233.99 424.84 233.42 425.37 232.34 425.37 231.9 424.64 230.45 425.35 229.79 426.72 228.59 426.92 227.73 426.34 226.79 426.42 226.08 427.07 M 232.58 429.05 233.12 430.07 231.51 429.86 232.58 429.05 M 261.3 428.61 262.29 429.86 261.19 429.89 260.58 428.98 261.3 428.61 M 234.47 428.46 234.72 429.57 233.6 429.09 234.47 428.46 M 263.71 428.05 264.08 428.66 262.66 428.81 262.57 428.2 263.71 428.05 M 268.65 428.05 267.24 428.69 266.81 427.7 265.97 427.07 264.69 427.38 263.97 427.79 261.9 428 260.14 428.67 259.87 429.92 257.02 430.24 255.6 430.75 254.47 430.88 253.45 430.18 251.62 430.14 250.52 429.44" stroke="#1EB4E6" stroke-width="4.58333" stroke-linecap="round" stroke-linejoin="round" stroke-miterlimit="10" stroke-opacity="1"/>
<path d="M 227.83 391.98 230 391.73 231.1 391.45 233.16 390.26 234.48 389.94 235.43 390.48 236.89 390.38 237.44 391.03 238.02 390.97 238.72 390.31 239.49 390.21 240.66 390.53 241.24 390.11 243.57 390.36 244.54 389.96 245.29 390.18 246.27 390.94 247.17 390.38 M 247.17 390.38 247.37 390.37" stroke="#1EB4E6" stroke-width="4.58333" stroke-linecap="round" stroke-linejoin="round" stroke-miterlimit="10" stroke-opacity="1"/>
<path d="M 526.68 120.17 524.79 118.92 524.21 118.24 520.54 116.93 520.18 117.28 518.55 116.53 516.87 116.27 513.24 116.17 509.52 116.85 506.88 117.65 505.16 118.35 502.09 119.82 499.76 121.19 496.84 123.12 494.88 123.62 491.77 125.93 489.26 128.28 488.85 129.09 486.55 128.39 486.11 127.64 486.84 127.36 488.15 128.08 487.85 126.86 486.28 126.65 485.19 126.11 484.69 124.14 483.38 122.63 482.52 122.45 480.88 121.28 480.28 121.24 480 120.02 479.53 119.45 477.35 118.03 476.83 117.88 474.59 117.94 472.38 118.64 470.67 117.86 468.9 117.98 468.21 117.79 466.87 118.63 465.18 120.05 463.58 121.88 462.45 123.55 461.12 126.07 460.42 128.33 460.39 129.95 461.15 131.34 463.21 132.09 464.75 132.19 465.65 133.02 466.57 133.41 467.71 134.39 469.08 135.13 469.72 135.84 471.17 136.49 472.27 136.67 473.69 136.41 475.22 135.89 476.56 135.97 477.2 135.52 479.44 136.44 479.74 137.34 480.45 137.89 481.77 139.57 483.01 140.38 483.88 140.64 485.19 141.57 486.17 143.15 487.25 144.25 489.56 145.18 490.06 145.03 491.83 145.39 494.02 146.49 494.51 147.52 496.11 148.42 494.89 149.38 493.73 149.21 493 149.39 491.7 151.01 489.04 152.1 487.53 152.3 486.84 152.1 485.91 151.2 483.01 150.34 482.34 150.39 480.54 149.82 478.49 150.01 477.17 151.14 476.72 150.17 477.96 149.81 478.05 149.13 477.08 148.17 475.25 147.94 473.98 148.57 473.89 149.26 473.26 150.25 473.16 151.03 471.6 151.59 469.91 152.63 467.68 152.8 466.89 153.44 466.54 154.65 466.38 157.61 466.54 158.91 465.73 159.71 462.75 160.29 461.35 160.9 459.67 161.34 458.02 164.09 457.29 164.57" stroke="#1EB4E6" stroke-width="4.58333" stroke-linecap="round" stroke-linejoin="round" stroke-miterlimit="10" stroke-opacity="1"/>
<path d="M 601.61 107.71 592.25 114.52 590.12 116.32 587.92 118.44 584.87 121.65 583.11 123.94 581.41 126.52 580.24 128.59 580.26 129.31 579.58 130.67 579.52 131.36 579.94 132.59 580.61 133 580.5 134.08 580.09 134.78 580.03 136.5 579.51 137.81 579.68 138.82 578.96 139.29 577.59 140.82 576.99 142.31 576.9 143.86 575.86 142.9 575.06 142.62 573.82 141.67 573.72 141.1 572.66 139.89 569.81 138.39 567.73 137.7 566.52 136.97 566.04 136.32 563.79 135.75 562.49 135.75 560.07 135.38 558.53 134.66 557.97 134.09 556.51 133.71 554.4 133.4 552.74 132.19 551.04 131.37 549.4 131.07 547.98 130.44 546.74 130.14 545.27 128.88 544 128.79 542.26 127.79 538.89 126.12 538.46 125.55 536.86 124.49 536.15 123.68 534.79 122.91 533.56 122.58 530.91 122.4 530.77 122.09 529.06 121.82 528.6 121.25 526.68 120.11" stroke="#1EB4E6" stroke-width="4.58333" stroke-linecap="round" stroke-linejoin="round" stroke-miterlimit="10" stroke-opacity="1"/>
<path d="M 457.1 164.57 455.62 163.61 454.38 163.26 452.29 163.52 450.43 162.02 450.49 161.61 449.02 158.83 448.66 156.58 449.45 154.55 449.7 153 452 150.29 452.23 148.75 452.66 148.34 453.64 148.52 454.15 147.83 454.32 146.55 454.79 145.04 454.85 143.8 454.03 140.67 452.18 138.68 451.6 137.57 450.29 136.32 449.02 135.79 446.41 135.58 444.73 133.29 444.67 132.64 441.99 131.79 441.5 131.81 440.52 130.5 440.95 129.98 440.21 128.89 440.77 126.91 441.36 126.78 442.92 124.84 443.59 122.47 443.18 120.66 443.33 120.11 442.41 117.38 442.54 116.44 443.16 116.15 443.71 115.2 445.38 114.03 446.43 113.69 448.93 113.54 450.52 113.71 451.83 113.05 452.06 112.3 455.02 111.07 455.13 110.43 456.7 108.24 457.39 108.91 458.7 109.58 459.01 110.54 459.8 110.57 461.3 110.17 461.53 109.48 461.48 108.07 462.96 107.01 464.11 105.31 465.68 103.71 466.73 103.31 469.72 101.86 470.12 101.17 470.12 100.28 469.46 100.18 468.43 98.4 467.6 97.9 465.92 95.66 463.45 94.29 462.11 92.68 463.3 89.51 463.48 88.33 466 88.44 467.39 87.82 467.5 86.72 M 423.49 159.55 424.86 159.66 425.15 160.24 423.47 160.73 423.49 159.55 M 432.08 130.99 432.13 131.79 431.53 132.8 430.4 133.88 430.51 135.38 429.59 137.56 427.79 138.43 426.84 138.02 426.51 136.3 426.72 135.46 426.02 134.35 426.07 133.8 427.21 132.31 431.18 131.65 432.08 130.99" stroke="#1EB4E6" stroke-width="4.58333" stroke-linecap="round" stroke-linejoin="round" stroke-miterlimit="10" stroke-opacity="1"/>
<path d="M 467.5 86.77 468.31 86.65 469.99 87.31 472.09 89.21 473.36 89.8 474.11 89.84 474.74 91.09 477.54 91.63 478.41 92.24 479.89 92.59 479.85 93.46 480.43 93.77 482.74 93.6 483.44 93.26 485.25 93.13 485.79 92.51 486.81 92.45 487.81 92.01 489.28 92.02 489.24 93.05 488.74 93.29 489.56 94.15 492.15 94.69 495.03 95.76 496.77 95.21 498.98 94.2 500.65 93.17 501.66 92.33 504.27 89.76 505.31 88.52 505.64 86.12 505.48 84.85 504.09 82.66 503.39 82.09 502.77 80.99 502.84 80.32 503.8 78.5 503.72 77.64 503.03 77.13 502.51 76.2 502.41 75.16 501.69 73.58 501.64 72.88 502.88 71.47 503.68 69.88 506.66 68.55 508.08 68.53 508.71 67.78 509.8 67.91 512.15 66.64 513.32 65.2 514.71 61.16 514.71 59 514.36 56.48 514.56 55.73 514.42 53.2 514.54 52.56 514.11 49.8 515.37 48.99 515.89 47.68 516.58 46.68 517.62 45.75 518.58 43.5 518.86 40.22 519.64 39 519.81 36.06 519.46 33.43 518.78 30.57 517.66 27.25 516.11 23.93 514.21 20.56 511.91 16.96 511.02 14.67 511.24 13.35 512.62 12.04 513.04 11.13 512.87 10.52 513.99 9.6 514.5 8.2 513.76 7.35 513.61 6.21 514.15 5.07 515.02 5.78 515.29 6.59 516.45 7.14 519.96 6.76 521.64 6.14 522.64 5.46 523.22 4.61 523.25 3.28 523.85 2.66 525.52 2.17 M 501.52 44.68 501.86 45.07 501.23 45.73 500.19 45.58 501.52 44.68 M 496.5 12.56 497.62 13.14 500.6 14.3 501.43 15.53 501.63 16.89 499.93 18.23 498.43 18.68 496.7 18.26 495.18 17.33 494.2 16.37 493.75 15.49 494.24 15.25 493.87 14.35 495.7 12.91 496.5 12.56 M 487.38 4.48 488.07 5.29 489.18 5.72 490.61 5.01 491.3 6.13 490.88 6.67 490.97 8.91 490.61 9.34 490.88 10.18 490.42 11.13 489.7 11.09 488.91 9.99 488.63 8.91 487.98 7.68 488.42 6.21 487.38 4.48" stroke="#1EB4E6" stroke-width="4.58333" stroke-linecap="round" stroke-linejoin="round" stroke-miterlimit="10" stroke-opacity="1"/>
<path d="M 472.74 171.69 474.24 172.66 474.69 173.43 474.3 174.97 474.22 176.24 475.15 180.78 475.27 182 475.99 184.65 476.58 185.81 478.38 187.02 480.04 186.94 480.88 186.65 481.69 185.8 482.57 185.32 483.54 183.63 483.12 182.01 483.94 179.94 484.85 179.96 485.65 180.55 486.26 180.45 487.95 181.8 487.81 182.92 488.54 182.77 490.34 183.65 491.16 183.71 491.89 184.73 492.68 185.33 494.47 185.05 495.56 184.11 496.58 182.75 497.25 181.52 497.94 179.4 498.12 176.96 498.62 175.48 499.31 174.91 499.57 173.99 498.81 172.1 497.8 170.68 496.4 169.48 494.91 169.23 494.07 170.47 494.28 170.97 493.08 171.79 491.56 172.3 490.92 172.98 490 172.92 488.98 172.43 487.96 172.36 486.5 173.37 485.37 173.28 484.34 173.78 483.82 173.65 482.1 174.32 481.26 175.21 480.15 175.05 479.42 174.4 479.4 172.52 479.96 171.93" stroke="#1EB4E6" stroke-width="4.58333" stroke-linecap="round" stroke-linejoin="round" stroke-miterlimit="10" stroke-opacity="1"/>
<path d="M 284.7 476.06 286.44 476.47 285.39 477.06 284.22 476.52 284.7 476.06 M 292.56 466.52 291.06 468.59 291.17 469.04 289.7 469.59 289.9 471.23 290.3 472.24 289.26 472.27 288.78 473.24 285.88 474.65 285.22 474.74 284.12 475.45 283.54 476.51 283.96 477.38 283.03 477.41 283.22 476.43 282.63 475.94 281.36 476.21 280.26 475.71 279.33 475.8 277.48 475 275.54 475.05 272.92 474.31 271.96 473.36 270.32 473.39 270.23 472.82 268.9 472.33 267.95 471.38 268.3 470.37 267.8 469.36 266.65 469.22 265.82 468.77 266.31 467.87 267.12 468.1 268.23 467.21 267.45 466.27 265.78 465.69 265.55 465.08 263.42 464.17 262.14 464.27 262.05 463.57 260.5 462.94 259.63 462.21 258.67 460.37 257.18 459.82 256.08 460.06 255.76 458.17 256.45 455.87 257.73 455.71 258.74 455.32 258.74 453.83 258.1 453.05 257 452.85 256.59 452.01 257.23 451.29 258.02 450.92 257.98 450.15 259.34 450.31 260.01 449.75 259.93 448.82 259.19 448.19 258.31 448.02 258.27 446.72 256.98 446.59 256.28 445.32 255.24 445.26 255.7 444.52 255.7 443.56 256.43 443.3" stroke="#1EB4E6" stroke-width="4.58333" stroke-linecap="round" stroke-linejoin="round" stroke-miterlimit="10" stroke-opacity="1"/>
<path d="M 680.96 83.34 681.36 83.87 682.53 83.86 683.39 84.87 681.46 84.87 680.96 83.34 M 690.68 79.93 691.72 80.48 693.13 80.75 692.38 81.78 692.75 82.5 690.27 83.35 689.58 82.31 688.24 81.03 688.66 80.52 690.68 79.93 M 697.64 75.91 698.27 76.38 699.21 76.41 699.4 77.24 697.48 77.12 697.64 75.91 M 718.07 66.64 719.32 67.13 720.56 68.23 720.79 69 718.17 70.4 716.78 70.59 716.11 71.76 714.2 72.12 713.72 72.67 712.96 72.15 712.23 72.68 711.95 73.71 710.15 73.19 709.69 72.39 708.65 71.69 709.26 71.32 708.37 69.96 709.34 69.27 711.4 68.95 712.16 69.06 713.77 68.58 715.77 67.07 717.7 67.44 718.07 66.64 M 659.34 48.78 659.76 50.62 660.47 51.81 659.72 52.71 659.75 53.43 658.98 54.68 657.18 56.37 656.43 56.76 655.5 58.69 655.7 59.52 654.81 60.74 654.12 61.05 652.15 62.9 651.17 64.16 650.73 65.2 649.75 66.52 649.93 67.65 649.26 69.32 648.46 69.82 648.39 70.62 648.77 72.1 649.86 73.28 651.25 75.19 651.42 75.83 652.26 76.3 655.77 77.34 657.94 77.76 657.18 78.23 656.55 77.51 653.8 77.02 653.89 78.06 654.63 78.37 654.79 79.58 655.56 80.57 656.37 84.27 656.98 85.71 657.73 86.86 658.75 87.99 660.96 89.45 662.13 90.02 665.44 91.03 666.98 89.23 668.28 88.69 669.61 87.54 670.56 87.24 671.64 86.12 674.41 86.44 675.77 85.83 676.95 86.32 677.84 86.26 677.53 87.27 675.74 88.19 674.2 88.28 672.66 88.95 671.16 88.89 670.03 89.3 669.5 90.36 668.37 90.59 667.49 93.15 666.98 93.25 666.84 94.19 665.82 94.65 664.79 94.1 662.78 94.15 659.47 94.48 658.49 94.93 657.74 94.71 655.84 95.26 654.92 95.92 653.98 96.17 652.72 95.6 650.86 96.3 650.37 97.44 650.6 98.2 649.47 98.98 649.43 99.74 647.24 100.4 647.01 101.49 645.02 102.24 643.17 101.92 641.39 102.11 639.7 100.56 640.33 99.59 638.29 99.19 637.3 99.5 636.08 100.57 635.13 102.34 637.47 104.1 635.39 104.1 633.28 103.9 631.51 103.43 627.56 103.43 625.83 103.89 624.46 103.72 621.47 102.79 621.37 102.07 620.5 101.59 619.11 101.59 618.68 101.32 615.12 101.72 612.42 102.42 610.25 103.37 608.05 104.07 603.95 106.21 601.61 107.71 M 691.92 41.86 693.17 42.88 694.26 43.25 694.78 44.3 696.51 45.13 698.65 45.79 701 45.62 702.58 45.74 705.36 45.43 706.81 45.02 707.04 45.4 706.35 47.25 704.66 48.29 703.19 47.38 702.15 47.47 700.64 48.08 699.76 48.9 699.57 49.62 697.24 50.97 697.01 51.37 694.21 51.47 689.47 52.01 688.07 53 687.01 54.99 684.58 55.57 684.03 56.2 683.22 56.2 681.68 57.45 681.64 58.28 680.68 58.83 679.67 61.05 678.79 61 677.93 61.7 677.15 63.02 677.09 64.23 676.14 64.87 674.41 65.6 671.16 66.03 669.81 67.39 669.29 67.34 668.68 68.45 668.54 70.92 668.08 73.05 667.85 75.16 667.09 75.14 667.7 72.79 665.38 72.7 663.1 73.17 662.5 71.96 662.81 70.85 662.12 69.26 662.06 68.38 663.39 68.08 664.66 66.18 667.04 65.28 667.03 64.99 669.26 64.09 669.41 63.46 671.81 62.04 672.66 61.73 672.7 61.2 674.99 60.36 675.45 59.81 675.25 58.58 677.03 56.35 678.2 55.68 679.67 54.27 679.9 53.57 680.88 52.47 682.84 51.24 683.27 51.23 684.89 49.67 685.38 48.98 685.61 47.25 687.38 45.79 688.59 43.57 690.45 42.24 691.92 41.86 M 793.57 1 795.87 1.17 797.66 1.64 798.95 2.54 799 3.75 798.36 4.24 796.69 4.84 796.55 6.06 797.49 6.4 798.41 7.65 797.66 8.45 797.1 9.65 795.42 9.73 794.52 10.2 793.08 9.62 788.43 9.88 786.54 10.45 784.34 11.89 783.69 12.64 781.38 12.93 779.78 13.77 776.72 14.15 775.59 14.56 774.35 15.48 773.43 15.66 771.83 16.67 770.58 17.12 767.9 18.46 764.3 21.49 763.23 22.8 762.09 23.05 760.22 24.42 758.11 24.26 755.53 24.94 753.91 24.23 753.28 23.64 753.22 22.79 751.63 22.68 750.41 23.13 748.92 24.44 748.69 25.27 749.86 26.26 748.19 28.2 748.14 28.66 746.31 30.13 744.96 30.25 744.18 30.75 743.78 31.49 742.85 31.55 739.81 32.88 738.82 33.81 737.9 34.1 735.12 37.18 734.55 38.61 732.85 39.68 730.74 40.19 728.97 39.84 727.61 40.36 725.77 41.83 724.89 42.94 724.02 44.72 722.59 45.46 721.06 45.36 719.37 44.78 719.11 44.38 719.83 42.56 720.63 41.75 721.58 41.6 722.87 40.34 722.01 39.39 722.13 38.38 724.35 39.59 725.71 38.68 725.99 37.1 724.84 36.43 725.79 36.17 727.09 36.49 727.58 37.16 728.92 36.98 729.78 36.57 731.14 35.36 731.71 35.14 732.32 34.12 732.55 33.03 732.15 32.12 730.18 32.01 729.14 31.57 728.65 30.69 728.89 29.88 729.89 29.58 731.34 30.02 732.26 30.86 734.32 30.36 735.41 27.9 737.81 27.25 739.73 26.37 741.15 25.31 742.5 24.01 743.89 23.28 745.01 23 744.8 21.92 745.28 21.02 745.59 19.55 745.39 19 746.36 18.58 747.9 19.62 749.76 19.93 751.78 19.16 752.1 18.8 751.88 17.67 752.47 16.38 753.25 16 753.57 15.28 754.78 15.24 755.32 14.68 757.18 14.35 758.25 14.58 759.34 13.03 758.74 12.5 758.97 11.28 758.37 10.37 758.07 8.46 759.17 6.9 760.22 5.98 761.07 5.68 762.49 6.67 762.78 7.82 763.8 9.93 765.15 12.24 766.74 12.7 768.07 12.8 770.53 12.73 774.67 12.19 777.35 11.53 777.82 10.85 779.83 10.02 781.46 9.01 782.09 8.09 782.85 7.71 782.47 7.16 783.1 6.37 784.12 5.91 784.46 5.31 785.88 4.88 786.72 3.65 787.84 3.58 789.11 2.9 789.61 1.76 791.91 1.61 793.57 1" stroke="#1EB4E6" stroke-width="4.58333" stroke-linecap="round" stroke-linejoin="round" stroke-miterlimit="10" stroke-opacity="1"/>
<path d="M 271.84 394.27 271.86 394.27 M 247.37 390.34 249.58 390.81 251.15 390.19 252.04 389.03 253.2 389.09 254.72 388.54 255.98 387.7 255.98 387.17 258.41 386.76 260.36 386.07 261.73 385.86 263.43 387.15 263.97 388.4 264.8 388.95 264.25 389.87 263.19 390 262.61 390.7 262.28 391.82 261.1 392.7 259.99 394.3 262.37 393.34 261.96 394.59 262.31 395.15 263.25 395.24 263.93 395.87 265.83 396.32 265.37 397.07 265.56 398.1 266.43 397.07 268.43 396.75 267.34 396.29 266.65 396.45 265.91 395.06 268.03 394.33 269.49 393.6 270.4 392.82 270.98 393.75 271.84 394.27" stroke="#1EB4E6" stroke-width="4.58333" stroke-linecap="round" stroke-linejoin="round" stroke-miterlimit="10" stroke-opacity="1"/>
<path d="M 156.11 504.65 157.08 505.38 157.08 506.27 156.31 506.27 155.82 505.74 156.11 504.65 M 225.79 473.67 225.79 473.65 M 225.45 473.33 224.64 474.07 224.57 474.62 222.94 476.67 222.93 477.18 221.82 479.04 221.84 479.64 221.24 481.42 220.75 483.38 220.57 485.15 218.79 483.26 217.73 482.91 217.33 481.97 216.4 481.45 216.05 480.86 214.74 480.04 214.9 479.49 214.56 478.64 211.79 477.52 211.11 476.69 210.93 475.83 208.7 475.14 207.24 474.99 206.24 474.63 204.23 474.62 203.42 473.79 202.48 473.71 199.92 474.03 197.55 474.51 196.03 475.32 191.25 477.64 190.21 477.49 189.27 478.1 188.35 478.09 188.17 478.56 190.11 478.09 191.14 478.01 191.13 478.58 189.52 479.11 187.63 479.16 187.37 479.5 185.92 480.05 185.46 479.85 184.34 480.4 184.05 482.62 183.42 483.26 183.62 484.15 184.43 484.83 183.77 485.12 184.11 486.09 183.43 486.42 183.31 487.16 182.5 487.39 182.74 488.11 182.47 489 181.58 488.37 180.74 489.05 179.46 491.26 178.16 492.09 177.7 493.73 176.89 493.53 175.37 493.55 174.39 494.53 173.73 496.86 173.81 497.68 174.36 498.47 173.75 500.41 172.48 500.32 172.4 501.82 172.66 502.91 174.12 503.37 174.88 505.68 174.02 505.92 172.97 505.54 172.8 504.78 171.63 503.82 170.55 503.36 168.68 503.28 167.7 503.6 166.75 504.71 165.72 504.86 163.34 503.71 162.93 502.99 161.87 503.11 161.49 503.62 160.19 503.76 159.6 503.51 159.51 502.8 160.25 501.85 160.8 501.59 160.82 500.5 161.9 499.55 162.98 499.17 162.52 497.91 160.88 498.17 160.45 497.94" stroke="#1EB4E6" stroke-width="4.58333" stroke-linecap="round" stroke-linejoin="round" stroke-miterlimit="10" stroke-opacity="1"/>
<path d="M 70.24 527.56 71.01 526.63 70.69 526.26 71.57 525.24 73.04 524.72 73.11 523.83 73.8 523.47 74.12 522.8 74.88 522.9 74.43 521.56 75.08 520.75 76.07 520.11 75.34 519.79 78.68 516.92 78.33 515.49 77.45 515.15 77.62 514.54 76.99 513.76 77.5 513.05 78.24 513.06 79.32 511.57 80.07 510.89 81.07 510.5 81.18 509.25 78.88 509.78 77.39 509.68 76.14 510.18 75.2 510.13 74.45 510.45 73.89 509.58 75.74 508.5 77.27 508.07 78.45 506.73 80.01 506.19 80.01 505.04 79.65 503.65 80.29 503.07 79.01 501.74 78.88 501.16 76.67 500.69 76.68 499.61 74.94 498.7 74.06 498.64 73.37 498.05 72.98 495.44 72.17 494.57 72.72 493.78 72.8 492.86 71.71 490.71 70.75 490.25 70.49 489.49 67.39 489.18 67.27 488.61 65.91 487.47 65.2 487.32 64.76 488.47 63.5 489.21 61.89 490.53 61.06 490.54 61.72 491.56 61.89 492.3 62.69 493.01 63.71 495.39 64.28 495.49 64.85 496.43 64.04 496.61 63.96 497.73 62.15 498.64 62.11 499.12 63.69 500.9 64.87 500.41 65.62 499.82 66.3 499.99 68.01 499.67 69.47 500.61 69.66 501.22 70.9 503.22 70.64 504.18 70.87 505.14 69.66 506.4 70.12 506.9 69.76 507.72 67.85 508.62 66.79 508.52 65.78 509.63 64.19 510.45 M 70.03 520.36 70.78 520.71 69.63 521.91 69.02 521.09 70.03 520.36 M 68.42 519.73 69.46 520.37 68.69 520.81 68.42 519.73 M 63.77 514.42 64.11 515.38 64 516.37 64.27 517.93 64.65 518.77 64.62 519.85 64.02 521.1 63.31 521.85 62.63 521.38 62.06 521.55 M 74.2 513.37 73.29 515.09 73.23 515.75 72.12 517.17 72.43 517.59 71.81 518.55 70.07 519.38 69.5 518.22 68.18 518.63 66.99 518.36 65.7 518.6 64.88 518.01 64.06 516.46 67.11 515.18 68.47 513.86 70.2 513.48 70.57 513.84 72 513.96 74.2 513.37 M 74.71 511.11 75.26 511.8 74.59 512.57 74.2 511.67 74.71 511.11 M 73.51 509.61 74 510.27 74.11 511.17 73.8 512.19 72.91 512.65 72 512.56 72.48 511.37 71.57 511.19 72.66 509.95 73.51 509.61" stroke="#1EB4E6" stroke-width="4.58333" stroke-linecap="round" stroke-linejoin="round" stroke-miterlimit="10" stroke-opacity="1"/>
<path d="M 234.72 136.58 235.63 137.38 235.72 138.32 233.96 138.14 234.06 136.9 234.72 136.58 M 245.05 121.9 245.32 122.56 244.37 122.94 242.76 124.87 241.62 125.69 240.09 126.27 239.38 126.16 238.64 125.53 238.18 124.57 238.57 123.43 239.72 123.68 240.99 123.53 241.86 123.14 242.72 123.14 243.5 122.58 245.05 121.9 M 253.41 104.06 254.24 104.27 255.89 104.1 256.14 104.9 255.77 106.81 256.54 107.58 257.47 108.02 257.67 108.5 258.58 109 258.36 109.86 256.38 112.94 255.74 112.83 254.58 113.23 253.96 112.71 253.81 111.84 252.4 110.81 253.14 110.28 253.4 109.11 252.75 108.27 252.66 106.98 252.32 106.71 252.83 105.68 252.71 104.71 253.41 104.06 M 265.51 97.71 266.37 98.65 267.55 98.43 267.7 99.2 267.06 99.32 265.19 98.53 265.51 97.71 M 263.89 97.16 263.61 99.03 262.76 98.95 263.02 98 263.89 97.16 M 265.35 91.95 265.18 92.66 265.44 93.42 266.76 93.9 266.77 94.83 267.61 94.54 267.77 95.34 269.61 95.69 270.52 95.4 270.95 95.92 270.49 96.87 269.53 96.98 268.58 96.3 268.26 97.41 267.38 96.79 267.29 95.68 266.11 96.37 265.59 95.45 265.58 94.57 264.5 93.7 264.38 93.04 264.81 92.14 265.35 91.95 M 264.35 87.83 265.45 88.12 265.26 88.77 264.12 88.17 264.35 87.83 M 297.23 84.97 297.81 85.38 297.66 86.01 296.58 86.81 295.6 88.54 294.67 89.01 294.02 88.92 293.13 88.2 293.44 87.13 294.48 86.94 295.46 86.38 296.81 85.08 297.23 84.97 M 284.27 79.01 284.28 80.08 284.59 80.82 285.34 81.34 285.4 82.58 285.02 83.28 283.61 83.7 283.31 84.16 281.94 83.83 281.19 84.16 279.24 86.78 278.23 86.87 278.26 87.8 276.79 88.12 276.24 88.48 275.27 88.17 275.21 89.32 274.54 89.99 274.58 90.84 275.67 91.16 274.95 92.01 273.68 92.4 273.1 92.24 272.91 93.73 271.6 93.36 271.06 93.71 272 94.93 269.94 94.54 268.75 93.93 268.49 92.41 267.51 92.26 268.72 91.23 267.58 90.74 267.11 91.23 264.75 90.91 263.92 90.45 263.1 90.54 262.67 89.73 263.63 89.79 264.12 89.27 264.95 89.55 266.37 88.77 265.47 87.96 266.34 87.74 267.63 87.02 268.66 86.99 269.44 86.65 270.45 85.37 271.54 85.92 272.82 84.89 273.97 84.58 274.81 84.81 275.52 84.05 276.22 83.86 277.08 84.16 277.63 82.36 278.9 81.93 280.53 81.17 281.34 81.08 280.91 82.1 281.49 82.58 281.52 83.41 282.29 83.47 283.04 82.85 283.61 81.84 282.95 80.91 282.98 80.19 283.75 79.15 284.27 79.01 M 265.03 54.24 265.7 54.25 265.76 55.51 264.44 54.45 265.03 54.24 M 280.54 41.71 281.1 41.91 281.51 42.76 280.57 42.96 280.21 42.38 280.54 41.71 M 286.24 34.03 285.98 35.78 284.59 36.74 284.02 34.81 285.51 34.11 286.24 34.03 M 290.64 25.7 292 26.14 292.36 27.26 293.04 27.81 291.71 28.33 290.99 28.12 289.93 26.62 290.64 25.7 M 293.2 20.83 293.43 21.55 294.39 22.69 293.89 23.12 293.07 22.79 292.57 22.13 293.2 20.83" stroke="#1EB4E6" stroke-width="4.58333" stroke-linecap="round" stroke-linejoin="round" stroke-miterlimit="10" stroke-opacity="1"/>
<path d="M 192.65 169.67 193.3 170.62 192.29 172.01 191.94 171.41 192.65 169.67 M 190.79 168.66 190.95 169.63 190.06 169.64 190.79 168.66 M 216.57 164.19 216.91 164.79 216.32 165.25 215.8 164.76 216.57 164.19 M 217.46 163.41 217.72 164.21 216.77 164.58 216.89 163.75 217.46 163.41 M 169.79 163.16 170.92 163.98 171.67 164.93 170.94 165.82 170.72 167.02 169.97 166.57 169.29 165.41 168.61 164.96 167.48 164.67 167.48 163.82 169.79 163.16 M 187.69 154.84 188.36 155.46 186.79 155.87 187.69 154.84 M 218.71 151.74 219.17 152.6 217.81 152.71 217.95 151.99 218.71 151.74 M 210.38 149.44 211.2 150.02 210.48 150.71 208.51 150.64 208.05 150.1 208.49 149.49 209.85 149.62 210.38 149.44 M 228.06 144.05 229.31 145.2 230.54 146.55 230.38 147.31 230.75 147.72 230.4 149.61 229.95 149.79 228.91 151.85 228 152.62 227.31 153.66 225.07 153.98 224.19 153.71 223.88 155.01 222.78 154.81 223.61 156.03 223.42 156.67 222.27 156.85 221.5 157.44 220.44 156.84 219.32 156.96 220.01 158.07 218.92 158.45 218.4 158.36 217.56 159.85 216.65 160.12 216.11 159.91 215.74 161.15 213.4 160.55 212.03 160.91 211.64 161.75 211.8 162.58 212.85 163.29 212.93 164.32 213.52 165.16 214.6 165.9 214.92 166.68 213.95 166.59 212.52 165.01 211.63 165.47 210.47 167 210.7 167.66 209.98 168.12 209.56 169.69 208.71 170.52 209.85 171.28 210.88 171.04 211.23 172.08 209.78 173.28 209.09 173.28 207.97 173.94 207.14 175 206.4 175.05 205.36 175.64 204.41 175.28 204.73 174.08 204.56 173.2 204.91 172.6 204.32 172.21 203.63 170.76 204.12 170.06 204.75 169.86 204.91 169.04 205.45 169.01 206.38 167.83 208.11 167.16 208.49 166.37 207.94 165.87 207.99 165.19 206.66 162.37 206.69 161.2 207.54 161.94 209.03 161.15 209.55 161.44 211.46 159.68 211.64 159.05 212.68 158.47 214.73 158.18 216.98 156.55 217.26 155.52 214.81 154.55 213.77 154.35 213.22 153.49 213.16 152.79 213.56 152.07 212.97 151.59 213.2 150.84 214.14 151.02 216.31 150.7 216.81 151.08 218.15 151.45 217.49 152.74 218.13 153.71 218.89 153.85 221.05 153.17 221.97 152.4 221.79 151.77 222.57 150.85 223.59 150.64 224.23 149.95 224.03 149.39 225.07 149.06 227.02 147.14 227.86 145.46 227.52 144.7 228.06 144.05 M 215.47 140.89 216.23 141.7 215.51 142.61 214.82 142.33 214.76 141.2 215.47 140.89 M 218.74 135.41 217.96 136.19 217.58 137.39 216.54 137.76 216.48 138.28 215.29 138.28 216 137.36 217.43 136.19 217.75 135.64 218.74 135.41" stroke="#1EB4E6" stroke-width="4.58333" stroke-linecap="round" stroke-linejoin="round" stroke-miterlimit="10" stroke-opacity="1"/>
<path d="M 52.2 254.51 52.98 254.73 52.52 255.53 51.15 255.44 50.9 254.87 52.2 254.51 M 60.72 247.3 61.74 247.94 61.1 248.58 60.61 248.48 60.2 247.57 60.72 247.3 M 63.97 243.87 64.55 244.64 63.69 244.95 63.97 243.87 M 59.54 243.3 60.64 244.18 59.1 244.18 59.54 243.3 M 52 240.03 53.18 241.06 57.3 242.36 58.14 242.87 57.73 243.72 57.8 244.36 57.04 244.7 55.86 247.21 55.16 247.2 54.02 246.58 52.93 246.67 50.93 246.27 49.68 245.49 49.53 246.33 48 246.13 47.27 245.15 48.12 244.25 49.12 244.53 49.89 244.13 50.67 244.59 50.89 243.36 50.47 242.76 50.58 241.96 51.18 240.94 52 240.03 M 21.23 238.54 22.83 239.02 21.76 240.05 20.63 239.85 20.01 240.02 19.24 239.76 19.08 239.22 19.84 238.63 20.31 238.85 21.23 238.54 M 72.97 233.11 73.81 233.39 73.68 234.73 72.5 235.7 72.67 236.32 71.69 237.23 71.6 237.94 70.41 239.03 70.66 239.68 70.37 240.31 70.69 241.02 70.35 243.11 69.82 243.68 68.52 243.31 68.11 244.09 67.22 244.28 66.21 243.51 64.93 242.82 65.94 242.08 66.17 240.97 65.28 240.14 64 240.59 63.3 240.37 63.71 239.57 64.27 239.37 64.9 239.76 65.39 238.57 65.8 238.51 66.53 239.35 67.57 239.59 68.12 239.23 69.3 239.32 69.56 237.63 70.7 236.77 71.34 237.37 72.09 235.64 72.23 234.78 72.97 233.11 M 88.45 230.52 89.07 230.94 89.05 231.59 88.35 232.08 87.07 231.88 86.96 231 87.34 230.7 88.45 230.52 M 105.29 223.9 106.68 225.12 106.15 225.57 105.49 225.33 105.11 224.73 105.29 223.9 M 106.21 223.08 108.11 223.93 108.48 225.12 107.85 225.52 106.75 225.2 105.89 224.19 106.21 223.08 M 110.27 221.13 110.99 222.39 111.5 222.61 112.08 224.21 112.85 224.7 112.82 225.47 113.62 226.06 114.3 225.97 115.06 226.34 115.59 227.01 116.8 227.21 117.62 228.23 117.44 228.62 115.76 228.45 114.42 228.49 111.92 229.17 110.04 228.22 109.75 227.52 110.94 227.58 110.85 227.04 109.84 225.89 110.82 225.15 110.66 224.21 111.43 223.87 110.45 222.02 110.27 221.13" stroke="#1EB4E6" stroke-width="4.58333" stroke-linecap="round" stroke-linejoin="round" stroke-miterlimit="10" stroke-opacity="1"/>
<path d="M 345.24 183.5 346.2 183.71 346.51 184.28 345.88 185.65 344.95 185.85 344.17 185.44 344.62 183.59 345.24 183.5 M 347.01 180.02 348.83 180.41 348.46 181.16 347.78 181.3 346.98 180.51 347.01 180.02" stroke="#1EB4E6" stroke-width="4.58333" stroke-linecap="round" stroke-linejoin="round" stroke-miterlimit="10" stroke-opacity="1"/>
<path d="M 683.18 380.57 683.87 381.09 684.08 381.78 682.04 382.94 681.75 381.46 683.18 380.57 M 681.62 355.55 681.99 356.45 681.32 356.69 681.21 355.82 681.62 355.55 M 714.88 305.74 715.67 306.57 716.42 306.83 716.38 307.78 716.73 308.82 715.99 308.77 715.65 307.3 715.1 306.75 714.88 305.74 M 717.54 290.34 718.51 290.57 719.11 291.46 719.08 292.27 718.62 292.91 717.37 292.59 718.05 291.57 717.44 291 717.54 290.34 M 717.48 288.83 718.02 289.44 718.87 289.62 718.61 290.22 717.35 289.39 717.48 288.83 M 717.39 287.02 717.9 287.85 717.16 287.97 717.39 287.02" stroke="#1EB4E6" stroke-width="4.58333" stroke-linecap="round" stroke-linejoin="round" stroke-miterlimit="10" stroke-opacity="1"/>
</g>
</svg>