<svg width="688" height="312" xmlns="http://www.w3.org/2000/svg" xmlns:xlink="http://www.w3.org/1999/xlink" xml:space="preserve" overflow="hidden"><g transform="translate(-1310 -875)"><g><path d="M1313 912.67C1313 894.075 1328.07 879 1346.67 879L1962.33 879C1980.93 879 1996 894.075 1996 912.67L1996 1153.33C1996 1171.93 1980.93 1187 1962.33 1187L1346.67 1187C1328.07 1187 1313 1171.93 1313 1153.33Z" fill="#DE080A" fill-rule="evenodd" fill-opacity="1"/><path d="M1760.37 1066.54C1764.52 1085.09 1767.93 1110.16 1769.64 1129.21 1762.08 1131.05 1754.51 1132.89 1746.95 1134.73 1746.21 1114.42 1743.53 1087.6 1740.6 1071.55 1747.19 1069.88 1753.78 1068.21 1760.37 1066.54ZM1683.01 1064.28C1690.41 1065.7 1697.81 1067.12 1705.22 1068.54 1704.73 1091.86 1703.26 1120.19 1699.36 1139.24 1691.47 1136.57 1683.58 1133.89 1675.69 1131.22 1680.08 1110.66 1682.03 1087.1 1683.01 1064.28ZM1523.5 982.05C1523.5 1001.19 1523.5 1020.32 1523.5 1039.46 1542.78 1039.46 1562.06 1039.46 1581.34 1039.46 1581.34 1020.32 1581.34 1001.19 1581.34 982.05 1562.06 982.05 1542.78 982.05 1523.5 982.05ZM1434.43 982.05C1434.43 1001.19 1434.43 1020.32 1434.43 1039.46 1452.9 1039.46 1471.36 1039.46 1489.83 1039.46 1489.83 1020.32 1489.83 1001.19 1489.83 982.05 1471.36 982.05 1452.9 982.05 1434.43 982.05ZM1771.84 918.371C1781.68 918.371 1791.52 918.371 1801.36 918.371 1801.36 967.091 1801.36 1015.81 1801.36 1064.53 1814.3 1053.25 1826.26 1037.21 1835.28 1018.9 1826.09 1018.9 1816.9 1018.9 1807.71 1018.9 1807.71 1009.13 1807.71 999.349 1807.71 989.571 1817.88 989.571 1828.04 989.571 1838.21 989.571 1838.21 984.808 1838.21 980.044 1838.21 975.281 1831.22 977.872 1824.22 980.462 1817.23 983.053 1814.05 969.264 1808.93 952.467 1804.05 939.931 1811.21 937.341 1818.36 934.75 1825.52 932.16 1830.16 943.943 1835.28 958.484 1838.21 971.771 1838.21 954.472 1838.21 937.174 1838.21 919.875 1847.57 919.875 1856.92 919.875 1866.28 919.875 1866.28 937.174 1866.28 954.472 1866.28 971.771 1870.67 960.239 1874.82 944.695 1877.26 931.658 1885.23 933.747 1893.2 935.837 1901.17 937.926 1898 952.968 1892.39 971.019 1887.26 983.554 1880.27 981.131 1873.27 978.707 1866.28 976.284 1866.28 980.713 1866.28 985.142 1866.28 989.571 1877.34 989.571 1888.4 989.571 1899.46 989.571 1899.46 999.349 1899.46 1009.13 1899.46 1018.9 1889.3 1018.9 1879.13 1018.9 1868.96 1018.9 1878.97 1038.46 1892.39 1055.76 1904.34 1067.04 1898.33 1077.15 1892.31 1087.26 1886.29 1097.37 1878.72 1084.09 1871.4 1064.28 1866.28 1043.47 1866.28 1064.28 1866.28 1085.09 1866.28 1105.9 1856.92 1105.9 1847.57 1105.9 1838.21 1105.9 1838.21 1085.34 1838.21 1064.78 1838.21 1044.23 1833.09 1064.03 1825.28 1084.84 1816.01 1098.38 1811.13 1089.1 1806.24 1079.83 1801.36 1070.55 1801.36 1084.34 1801.36 1098.13 1801.36 1111.92 1836.26 1111.92 1871.16 1111.92 1906.05 1111.92 1906.05 1121.61 1906.05 1131.3 1906.05 1141 1871.16 1140.91 1836.26 1140.83 1801.36 1140.75 1801.36 1144.26 1801.36 1147.77 1801.36 1151.28 1791.52 1151.28 1781.68 1151.28 1771.84 1151.28 1771.84 1073.64 1771.84 996.006 1771.84 918.371ZM1714 914.359C1722.79 918.12 1731.57 921.881 1740.36 925.641 1734.01 940.684 1724.49 959.988 1715.95 975.532 1718.07 978.122 1720.18 980.713 1722.3 983.304 1730.11 969.766 1737.18 956.478 1742.55 945.196 1750.85 949.793 1759.15 954.389 1767.44 958.985 1755.73 981.047 1739.14 1007.87 1725.71 1027.43 1731.82 1027.18 1737.43 1026.68 1742.8 1026.17 1741.82 1020.66 1740.6 1015.39 1739.62 1011.13 1746.29 1008.88 1752.96 1006.62 1759.63 1004.36 1764.03 1021.16 1768.66 1043.72 1770.86 1058.01 1763.38 1060.35 1755.89 1062.69 1748.41 1065.03 1747.92 1061.27 1747.68 1057.26 1746.95 1053.25 1744.02 1053.75 1740.84 1054 1737.43 1054.25 1737.43 1086.59 1737.43 1118.94 1737.43 1151.28 1728.16 1151.28 1718.88 1151.28 1709.61 1151.28 1709.61 1119.6 1709.61 1087.93 1709.61 1056.26 1698.63 1056.76 1687.89 1057.26 1679.1 1057.26 1677.97 1047.57 1676.83 1037.87 1675.69 1028.18 1681.3 1028.43 1687.65 1028.43 1693.99 1028.43 1698.38 1022.16 1702.78 1015.39 1707.41 1008.37 1697.9 996.842 1685.69 983.554 1675.69 974.278 1680.73 965.169 1685.78 956.06 1690.82 946.951 1693.01 949.208 1695.46 951.715 1697.65 954.472 1704 941.686 1709.61 927.396 1714 914.359ZM1489.83 914.359C1501.05 914.359 1512.28 914.359 1523.5 914.359 1523.5 926.31 1523.5 938.26 1523.5 950.21 1553.19 950.21 1582.88 950.21 1612.57 950.21 1612.57 997.51 1612.57 1044.81 1612.57 1092.11 1602.16 1092.11 1591.75 1092.11 1581.34 1092.11 1581.34 1085.17 1581.34 1078.24 1581.34 1071.3 1562.06 1071.3 1542.78 1071.3 1523.5 1071.3 1523.5 1098.04 1523.5 1124.79 1523.5 1151.53 1512.28 1151.53 1501.05 1151.53 1489.83 1151.53 1489.83 1124.79 1489.83 1098.04 1489.83 1071.3 1471.36 1071.3 1452.9 1071.3 1434.43 1071.3 1434.43 1078.24 1434.43 1085.17 1434.43 1092.11 1424.02 1092.11 1413.61 1092.11 1403.2 1092.11 1403.2 1044.81 1403.2 997.51 1403.2 950.21 1432.07 950.21 1460.95 950.21 1489.83 950.21 1489.83 938.26 1489.83 926.31 1489.83 914.359Z" fill="#FFFFFF" fill-rule="evenodd" fill-opacity="1"/><text fill="#000000" fill-opacity="0" font-family="Arial,Arial_MSFontService,sans-serif" font-size="237.168" direction="ltr" writing-mode="lr-tb" x="1403.2" y="1121.88">中継</text></g></g></svg>