<svg width="600" height="135" viewBox="0 0 600 135" fill="none" xmlns="http://www.w3.org/2000/svg">
<g filter="url(#filter0_i_17_48)">
<rect width="600" height="135" rx="8" fill="#005AFF"/>
</g>
<path d="M148.814 43.656L146.942 49.368C145.118 48.12 143.15 46.92 141.182 45.816C138.59 53.256 133.646 59.112 124.718 61.416L120.542 57.144C129.182 55.512 134.126 50.808 136.478 43.56C132.59 41.784 128.606 40.584 124.478 40.2C122.654 44.424 120.878 48.168 119.006 50.952C115.694 55.896 111.71 56.664 110.366 56.664C106.958 56.664 104.126 53.976 104.126 49.56C104.126 42.264 110.75 35.784 119.438 35.496C119.63 35.496 120.782 35.448 121.022 35.448C121.934 33.192 122.798 31.128 123.47 29.304C124.046 27.672 125.678 24.12 125.87 23.688C125.87 23.688 121.31 24.024 120.83 24.024L112.286 24.312V19.512L131.918 19.08L132.11 22.488C130.142 26.664 128.27 31.32 126.35 35.832C130.094 36.216 133.838 37.128 137.63 38.52C138.014 36.168 138.206 33.576 138.206 30.84C138.206 29.88 138.158 28.872 138.11 27.912L143.774 28.392C143.726 32.52 143.438 36.6 142.622 40.44C144.734 41.4 146.798 42.456 148.814 43.656ZM110.606 51.048H110.654C113.966 51.048 117.086 44.376 119.006 40.104C113.966 40.584 108.782 43.656 108.782 48.456C108.782 49.896 109.214 51.048 110.606 51.048ZM190.847 36.552L195.887 40.2C194.399 47.112 191.039 59.64 179.903 59.64C174.047 59.64 172.031 55.896 172.031 50.664V50.28C172.031 49.128 172.127 47.784 172.127 46.392C172.127 44.808 172.127 41.544 169.775 41.544C166.655 41.544 161.135 48.696 159.071 53.064C157.919 55.56 157.391 56.904 156.479 59.496L151.055 57.576C155.327 46.536 163.823 28.008 167.903 17.208L173.615 18.984C170.447 25.752 166.943 33 162.911 42.024C166.175 38.28 169.007 37.032 171.023 37.032H171.167C176.687 37.032 177.311 42.504 177.311 47.064C177.311 52.104 177.359 54.024 179.999 54.024C185.567 54.024 189.407 45.576 190.847 36.552ZM245.375 53.16L242.975 58.44C240.383 55.896 237.839 53.64 235.199 51.96C234.431 57.96 230.063 60.072 224.495 60.072C218.159 60.072 213.887 56.76 213.887 52.152C213.887 46.296 220.367 44.088 224.975 44.088C226.703 44.088 228.335 44.28 230.015 44.664C229.919 41.016 229.631 36.792 229.487 33.096H234.959C235.103 37.416 235.247 42.024 235.295 46.488C238.799 48.12 242.207 50.424 245.375 53.16ZM207.263 52.2L202.223 50.136C207.167 43.224 211.103 35.304 213.983 28.2H204.191L204.239 23.352H215.423C216.287 21.048 216.911 18.84 217.487 16.92L223.055 17.688C222.479 19.464 221.855 21.384 221.135 23.352H227.999V28.2H219.647C216.431 36.024 212.255 44.664 207.263 52.2ZM246.095 25.56L245.183 30.888C242.015 29.928 238.031 29.304 234.575 29.304C233.135 29.304 231.791 29.448 230.639 29.688L230.207 24.744C231.743 24.504 233.759 24.36 235.871 24.36C239.327 24.36 243.167 24.696 246.095 25.56ZM230.111 49.464C228.527 48.936 226.943 48.648 225.263 48.648C223.679 48.648 218.783 48.936 218.783 51.912C218.783 53.976 221.423 55.272 224.495 55.272C228.719 55.272 229.967 53.352 230.111 49.464ZM273.49 60.6L270.562 55.656C281.41 54.552 288.994 49.608 288.994 39.72C288.994 31.224 284.674 25.368 276.13 24.216C273.826 39.768 270.322 49.56 267.634 53.448C265.81 56.04 263.602 57.336 261.106 57.336C256.594 57.336 250.834 52.68 250.834 42.6C250.834 29.736 261.298 19.56 273.922 19.56C286.402 19.56 294.658 27.048 294.658 39.768C294.658 47.928 290.338 58.296 273.49 60.6ZM260.77 51.768H260.866C265.762 51.768 269.698 30.456 270.322 24.408C262.882 25.992 256.114 33.192 256.114 42.888C256.114 46.872 258.274 51.768 260.77 51.768ZM342.754 47.88L345.634 52.584C344.242 58.104 342.274 61.368 340.21 61.368C338.002 61.368 336.418 58.2 335.266 54.984C333.298 57.384 331.138 59.4 328.306 61.32L324.85 57.432C328.402 55.512 331.234 53.064 333.682 49.8C332.194 43.176 331.858 34.776 331.714 26.712H318.178V36.84C318.178 45.576 317.89 54.456 314.338 61.464L309.826 57.72C313.042 51.72 313.234 43.128 313.234 35.832V22.008H331.666C331.666 19.944 331.666 17.976 331.618 16.056H336.562V22.008H339.538C338.962 20.568 338.386 19.176 337.714 17.976L340.978 16.248C342.322 19.128 343.954 23.496 344.962 26.664L341.506 28.68L341.026 26.712H336.658C336.802 33.192 336.994 39.528 337.378 44.04C338.914 40.488 339.874 36.312 340.546 31.416L344.77 33.768C343.282 40.92 341.314 46.248 338.722 50.472C339.394 52.968 340.114 55.032 340.594 55.032C341.122 55.032 341.89 53.064 342.754 47.88ZM330.322 52.968H320.242V37.944H330.322V52.968ZM304.978 60.024L300.274 57.528C303.298 52.968 305.89 46.056 307.234 40.344L311.65 42.888C310.402 48.312 307.81 55.56 304.978 60.024ZM312.466 22.344L309.298 26.712C307.186 24.792 303.97 22.104 301.282 20.328L304.498 16.344C307.09 17.976 310.45 20.568 312.466 22.344ZM311.218 33.336L308.146 37.704C306.274 35.928 302.386 32.952 300.178 31.656L303.154 27.576C305.65 29.016 309.394 31.752 311.218 33.336ZM330.562 34.536H319.714V30.264H330.562V34.536ZM326.77 48.936V42.024H323.746V48.936H326.77ZM396.37 56.328L393.778 61.32C385.138 59.352 377.314 54.6 373.186 47.448C370.114 54.216 363.634 58.584 352.834 61.416L350.146 56.376C363.97 53.256 370.786 47.784 370.786 35.352H375.874C375.874 37.512 375.73 39.672 375.442 41.688C378.706 48.552 385.09 54.216 396.37 56.328ZM365.794 32.52L361.234 35.352C359.218 32.184 355.666 27.624 353.17 25.032C355.57 22.824 359.314 18.84 361.474 15.768L365.89 18.792C364.066 21 361.762 23.352 359.65 25.032C361.474 26.856 363.778 29.736 365.794 32.52ZM393.058 32.664L388.546 35.448C386.626 32.424 382.978 27.816 380.482 25.128C383.17 22.776 386.386 19.224 388.69 15.912L393.106 18.888C391.186 21.288 388.834 23.64 386.914 25.128C388.786 27.096 391.09 29.784 393.058 32.664ZM379.234 32.472L374.674 35.16C372.562 31.896 369.346 27.816 366.754 25.128C369.25 22.824 372.514 19.32 375.01 15.864L379.426 18.84C377.602 21.048 375.01 23.64 373.186 25.128C374.866 26.808 377.314 29.736 379.234 32.472ZM385.33 49.08L381.154 45.96C383.314 43.56 385.906 39.72 387.346 36.504L392.002 39.048C390.418 42.552 387.778 46.344 385.33 49.08ZM365.122 46.104L361.042 49.32C359.314 46.44 356.626 42.648 354.13 40.008L358.402 36.984C360.754 39.528 363.49 43.368 365.122 46.104ZM411.922 60.6L407.938 55.224C427.042 53.736 434.962 46.344 436.114 36.072C427.474 36.12 405.058 36.408 404.146 36.408V31.128H442.786C442.306 48.312 432.034 57.864 411.922 60.6ZM438.85 24.456H408.13V19.416L438.85 19.368V24.456ZM494.29 30.888H477.442C477.442 34.248 477.49 51.768 477.49 52.584C477.49 57.384 475.042 59.88 468.37 59.88C467.266 59.88 466.018 59.784 465.202 59.736L463.234 54.12C465.106 54.312 467.41 54.408 468.514 54.408C470.434 54.408 471.922 53.688 471.97 51.528C471.97 49.464 471.922 39.432 471.874 30.888H453.826V25.752H471.874L471.826 17.544H477.49L477.442 25.752H494.29V30.888ZM457.138 56.904L451.282 54.456C455.65 48.84 458.722 41.256 459.826 35.928L465.298 37.08C463.858 43.464 460.642 51.816 457.138 56.904ZM496.354 52.872L490.69 55.896C488.818 49.752 484.93 42.072 481.762 37.224L486.802 35.448C489.922 39.768 494.098 47.064 496.354 52.872ZM490.834 24.312L487.234 25.32C486.418 22.536 484.738 18.648 483.394 16.2L486.802 15.432C488.098 17.688 489.97 21.432 490.834 24.312ZM497.746 23.496L494.194 24.504C493.33 21.768 491.698 18.216 490.162 15.528L493.57 14.856C495.058 17.256 496.882 20.712 497.746 23.496ZM178.697 112.12L176.897 116.08C174.953 114.172 173.045 112.48 171.065 111.22C170.489 115.72 167.213 117.304 163.037 117.304C158.285 117.304 155.081 114.82 155.081 111.364C155.081 106.972 159.941 105.316 163.397 105.316C164.693 105.316 165.917 105.46 167.177 105.748C167.105 103.012 166.889 99.844 166.781 97.072H170.885C170.993 100.312 171.101 103.768 171.137 107.116C173.765 108.34 176.321 110.068 178.697 112.12ZM150.113 111.4L146.333 109.852C150.041 104.668 152.993 98.728 155.153 93.4H147.809L147.845 89.764H156.233C156.881 88.036 157.349 86.38 157.781 84.94L161.957 85.516C161.525 86.848 161.057 88.288 160.517 89.764H165.665V93.4H159.401C156.989 99.268 153.857 105.748 150.113 111.4ZM179.237 91.42L178.553 95.416C176.177 94.696 173.189 94.228 170.597 94.228C169.517 94.228 168.509 94.336 167.645 94.516L167.321 90.808C168.473 90.628 169.985 90.52 171.569 90.52C174.161 90.52 177.041 90.772 179.237 91.42ZM167.249 109.348C166.061 108.952 164.873 108.736 163.613 108.736C162.425 108.736 158.753 108.952 158.753 111.184C158.753 112.732 160.733 113.704 163.037 113.704C166.205 113.704 167.141 112.264 167.249 109.348ZM212.167 111.544L211.987 115.936C208.207 116.476 204.463 116.8 200.647 116.8C195.283 116.8 185.563 116.08 185.563 108.268C185.563 102.616 190.639 99.592 195.283 97.792C193.627 93.976 193.483 88.648 193.411 85.624H197.983C197.947 86.272 197.911 86.956 197.911 87.64C197.911 90.628 198.307 93.904 199.279 96.46C202.663 95.524 206.407 94.876 210.151 94.444L211.339 98.62C205.651 99.088 189.667 100.888 189.667 107.836C189.667 112.48 196.039 112.768 199.963 112.768C204.067 112.768 208.135 112.264 212.167 111.544ZM212.059 92.14L209.575 93.58C208.531 91.528 206.407 88.612 205.111 87.172L207.523 85.912C208.711 87.244 211.015 90.16 212.059 92.14ZM216.739 90.088L214.399 91.636C213.391 89.692 211.303 86.92 209.827 85.336L212.131 84.076C213.463 85.444 215.659 88.144 216.739 90.088ZM248.779 112.624L247.987 116.908C247.159 116.98 246.331 117.016 245.503 117.016C236.971 117.016 228.871 113.668 228.871 105.424C228.871 99.808 232.615 94.948 237.223 92.104C232.687 92.32 225.559 92.788 220.735 92.968L220.627 88.864C227.683 88.72 242.731 88.54 251.191 88.072L251.515 91.924H249.391C247.627 91.924 244.747 92.068 242.911 92.788C238.015 94.732 232.903 99.304 232.903 104.992C232.903 109.42 237.043 112.84 245.071 112.84C246.223 112.84 247.483 112.768 248.779 112.624ZM249.967 101.356L247.411 102.76C246.439 100.672 244.423 97.648 243.163 96.136L245.611 94.912C246.763 96.316 249.031 99.34 249.967 101.356ZM254.611 99.232L252.199 100.672C251.227 98.728 249.211 95.848 247.807 94.192L250.183 92.968C251.479 94.408 253.603 97.18 254.611 99.232ZM303.163 93.64H274.219V91.576L272.011 92.872C271.579 90.472 270.523 86.488 269.515 83.32V119.416H264.571V74.056H269.515V82.888L272.347 81.448C273.307 83.8 274.315 87.064 274.987 89.56H285.883V86.968H276.283V83.512H285.883V81.016H275.179V77.128H285.883V74.104H291.067V77.128H302.107V81.016H291.067V83.512H300.811V86.968H291.067V89.56H303.163V93.64ZM290.491 119.368L288.667 115.048C289.483 115.048 290.347 115.096 291.163 115.096C293.467 115.096 295.435 114.808 295.435 112.936V111.208H281.371V119.416H276.331V95.8H300.523V111.928C300.523 118.408 298.315 119.176 290.491 119.368ZM261.739 100.072L257.899 97.576C259.147 92.632 259.435 87.16 259.483 81.256L263.179 81.976C263.131 88.312 262.795 94.6 261.739 100.072ZM295.435 107.896V105.256H281.371V107.896H295.435ZM295.435 101.944L295.483 99.448H281.371V101.944H295.435ZM353.899 115.096L351.067 119.368C349.195 117.976 347.179 116.2 345.691 114.376C343.963 116.536 341.899 118.216 340.123 119.464L337.291 115.336V119.416H332.539V75.496H352.651V80.008C352.651 89.128 352.075 90.232 342.907 90.28L341.083 85.72H343.147C347.659 85.72 347.755 85.528 347.755 82.072V80.248H337.291V92.776H352.795C352.699 98.008 351.355 105.88 348.379 111.064C350.059 112.888 352.027 114.088 353.899 115.096ZM322.411 119.416H317.467V111.256H309.643V106.6H317.467V101.704H308.827V97.096H313.435C312.907 95.176 312.091 92.776 311.515 91.144H308.251V86.536H317.467V82.216H309.835V77.704H317.467V74.056H322.411V77.704H330.043V82.216H322.411V86.536H331.339V91.144H328.267C327.883 92.872 327.211 95.224 326.491 97.096H331.195V101.704H322.411V106.6H330.427V111.256H322.411V119.416ZM338.731 97.384H337.291V115.144C338.971 114.328 341.083 113.224 343.099 111.064C340.987 107.224 339.307 102.808 338.731 97.384ZM317.851 97.096H321.835C322.651 95.176 323.323 92.824 323.707 91.144H316.171C316.699 92.824 317.371 95.224 317.851 97.096ZM348.091 97.384H343.051C343.387 100.888 344.155 104.488 345.643 107.752C347.083 104.536 347.947 100.504 348.091 97.384ZM396.859 118.36H389.899C387.163 118.36 384.955 118.072 384.955 113.512V106.312H376.987C375.355 112.648 371.275 117.16 361.675 119.416L359.083 114.52C366.667 113.224 370.267 110.728 371.899 106.312H361.147V101.512H372.859L372.907 101.272C373.051 99.352 373.099 97.432 373.147 95.416H369.067V93.688C366.523 95.32 363.787 96.712 360.859 97.816L358.507 93.016C361.579 92.2 364.459 90.904 367.003 89.32C364.699 87.352 361.963 85.528 359.659 84.232L362.779 80.248C365.563 82.024 368.395 84.184 370.987 86.44C373.339 84.424 375.211 82.264 376.363 80.2H365.035V75.448H382.699C383.659 77.08 384.763 78.664 385.963 80.152C388.363 78.52 390.475 76.456 392.203 74.152L395.851 77.224C394.027 79.288 391.531 81.64 389.035 83.416C390.091 84.424 391.243 85.384 392.539 86.248C395.227 84.232 397.387 81.88 399.163 79.384L402.763 82.552C401.083 84.616 398.971 86.824 396.571 88.696C398.827 89.896 401.371 90.904 404.251 91.72L402.043 96.76C399.499 95.752 397.003 94.6 394.651 93.256V95.416H389.851V101.512H401.659V106.312H389.851V112.072C389.851 113.416 390.619 113.464 391.483 113.464H396.187C398.059 113.464 398.539 113.272 399.067 107.464L403.867 109.912C402.571 117.976 401.179 118.36 396.859 118.36ZM373.243 90.664H390.523C386.779 88.024 383.563 84.952 381.211 81.496C379.195 84.856 376.507 87.928 373.243 90.664ZM384.955 101.512V95.416H378.043C378.043 97.24 377.995 99.016 377.851 100.84C377.851 101.08 377.803 101.32 377.803 101.512H384.955ZM451.627 119.464H446.635V117.016H430.507V119.464H425.515V104.056H451.627V119.464ZM420.043 119.416H415.051V93.064C413.563 95.176 412.027 96.952 410.587 98.296L409.003 91.912C413.275 87.592 417.307 80.872 419.371 74.008L424.507 75.352C423.547 79.144 421.915 82.888 420.043 86.152V119.416ZM454.315 87.592H423.355V83.128H454.315V87.592ZM450.859 80.44H426.091V76.024H450.859V80.44ZM450.715 94.456H426.235V90.424H450.715V94.456ZM450.715 101.224H426.283V97.192H450.715V101.224ZM446.635 112.888V108.28H430.507V112.888H446.635ZM502.555 108.04H497.515V103.768H484.699V119.464H479.275V103.768H466.843V108.04H461.803V81.64H479.275V74.056H484.699V81.64H502.555V108.04ZM497.515 98.776V86.68H484.699V98.776H497.515ZM479.275 98.776V86.68L466.843 86.632V98.776H479.275Z" fill="white"/>
<rect x="90" y="73" width="48" height="48" rx="4" fill="black"/>
<g clip-path="url(#clip0_17_48)">
<path d="M117.044 93.9661L128.957 80H126.134L115.79 92.1265L107.529 80H98L110.493 98.3375L98 112.983H100.823L111.746 100.177L120.471 112.983H130L117.044 93.9661H117.044ZM113.178 98.499L111.912 96.673L101.84 82.1434H106.176L114.304 93.8693L115.57 95.6953L126.135 110.937H121.799L113.178 98.4997V98.499Z" fill="white"/>
</g>
<defs>
<filter id="filter0_i_17_48" x="0" y="0" width="600" height="135" filterUnits="userSpaceOnUse" color-interpolation-filters="sRGB">
<feFlood flood-opacity="0" result="BackgroundImageFix"/>
<feBlend mode="normal" in="SourceGraphic" in2="BackgroundImageFix" result="shape"/>
<feColorMatrix in="SourceAlpha" type="matrix" values="0 0 0 0 0 0 0 0 0 0 0 0 0 0 0 0 0 0 127 0" result="hardAlpha"/>
<feOffset/>
<feGaussianBlur stdDeviation="5"/>
<feComposite in2="hardAlpha" operator="arithmetic" k2="-1" k3="1"/>
<feColorMatrix type="matrix" values="0 0 0 0 0 0 0 0 0 0 0 0 0 0 0 0 0 0 0.3 0"/>
<feBlend mode="normal" in2="shape" result="effect1_innerShadow_17_48"/>
</filter>
<clipPath id="clip0_17_48">
<rect width="32" height="33" fill="white" transform="translate(98 80)"/>
</clipPath>
</defs>
</svg>
